<?xml version="1.0" standalone="no"?>
<!DOCTYPE svg PUBLIC "-//W3C//DTD SVG 20010904//EN"
 "http://www.w3.org/TR/2001/REC-SVG-20010904/DTD/svg10.dtd">
<svg version="1.0" xmlns="http://www.w3.org/2000/svg"
 width="2000.000000pt" height="2000.000000pt" viewBox="0 0 2000.000000 2000.000000"
 preserveAspectRatio="xMidYMid meet">

<g transform="translate(0.000000,2000.000000) scale(0.100000,-0.100000)"
fill="#000000" stroke="none">
<path d="M7175 18664 c-100 -24 -187 -73 -1645 -916 -52 -30 -169 -98 -260
-150 -91 -52 -250 -145 -355 -205 -263 -152 -856 -495 -1180 -681 -148 -85
-306 -176 -350 -202 -44 -26 -172 -100 -285 -165 -113 -65 -272 -157 -355
-205 -82 -48 -224 -130 -315 -182 -515 -296 -726 -421 -767 -454 -112 -92
-235 -292 -268 -436 -13 -59 -15 -773 -13 -6545 l3 -6479 39 -79 c44 -89 129
-179 219 -233 211 -127 434 -160 589 -90 29 14 240 133 468 265 404 234 474
273 484 273 3 0 6 -132 8 -292 3 -266 5 -296 22 -328 22 -40 35 -52 91 -82
l40 -21 -20 23 -20 23 25 -6 c25 -6 25 -6 -1 5 -15 6 -31 25 -37 43 -9 23 -12
1556 -12 6119 0 5534 1 6094 16 6150 20 78 64 172 74 157 3 -7 7 2 7 19 0 24
-7 35 -27 45 -30 16 -44 49 -30 75 12 22 138 140 150 140 5 0 32 14 60 31 27
17 54 28 60 24 6 -4 9 -2 8 5 -2 6 26 27 62 46 36 20 101 57 145 84 86 51 461
267 535 308 25 13 68 39 95 57 28 18 66 40 85 50 19 10 72 39 116 66 45 27 90
49 100 49 9 0 14 3 11 6 -4 4 41 34 99 67 l106 60 42 -20 c52 -26 106 -70 106
-88 0 -9 30 4 82 36 45 27 88 47 96 44 7 -2 11 -1 8 4 -5 7 211 141 228 141 4
0 4 -5 0 -12 -4 -7 -3 -8 5 -4 6 4 9 11 7 15 -9 13 288 180 301 170 7 -7 14
-6 19 2 4 8 3 9 -4 5 -7 -4 -12 -3 -12 1 0 8 98 66 260 156 30 17 57 34 58 39
2 4 8 8 12 8 5 0 43 20 83 45 41 25 77 45 80 45 3 0 42 22 86 49 44 27 82 47
85 43 3 -3 6 0 6 7 0 8 6 11 16 7 8 -3 13 -2 10 3 -5 7 13 20 34 25 3 1 23 13
45 27 22 14 54 33 70 42 17 8 41 27 54 41 19 20 26 22 37 13 64 -57 87 -47
105 46 5 31 16 69 24 84 20 39 20 40 -25 63 -45 23 -48 30 -22 52 24 21 174
110 188 112 7 1 18 7 25 13 36 29 122 73 131 67 7 -4 8 -2 4 4 -8 14 30 35 47
26 6 -4 9 -3 4 1 -9 10 104 76 117 68 5 -4 6 -2 3 4 -3 5 35 33 86 62 51 28
172 97 270 154 l178 103 -1 695 c0 747 -1 750 -52 859 -48 100 -226 233 -378
281 -63 20 -248 35 -295 23z m-3865 -4594 c0 -5 -5 -10 -11 -10 -5 0 -7 5 -4
10 3 6 8 10 11 10 2 0 4 -4 4 -10z"/>
<path d="M16430 16890 c-45 -24 -103 -86 -120 -127 -10 -27 -10 -39 0 -63 16
-39 34 -38 71 5 62 70 96 30 59 -71 -61 -165 -70 -195 -76 -247 -7 -63 -3 -67
46 -42 18 9 32 26 36 43 18 80 29 114 65 194 63 138 72 246 27 303 -23 30 -58
32 -108 5z"/>
<path d="M7989 16843 c-13 -17 -13 -17 6 -3 11 8 22 16 24 17 2 2 0 3 -6 3 -6
0 -17 -8 -24 -17z"/>
<path d="M7585 16591 c6 -10 4 -13 -7 -9 -8 4 -15 1 -15 -6 0 -6 8 -12 17 -12
18 0 21 19 5 33 -4 5 -5 2 0 -6z"/>
<path d="M16178 16544 c-15 -8 -32 -23 -38 -34 -6 -11 -10 -102 -10 -222 0
-168 -3 -207 -16 -226 -8 -12 -22 -22 -30 -22 -12 0 -14 34 -14 209 0 116 -4
212 -8 215 -13 8 -73 -26 -89 -50 -20 -32 -16 -502 6 -527 31 -39 91 -5 133
76 19 36 23 39 26 20 5 -31 25 -29 67 8 l36 32 -2 248 c0 137 -3 258 -6 269
-6 24 -18 25 -55 4z"/>
<path d="M7210 16310 c-9 -6 -10 -10 -3 -10 6 0 15 5 18 10 8 12 4 12 -15 0z"/>
<path d="M15753 16303 c-108 -52 -167 -213 -157 -427 8 -178 76 -235 177 -147
69 61 107 182 108 346 2 195 -41 271 -128 228z m20 -173 c15 -57 4 -243 -16
-274 -27 -40 -45 -33 -53 20 -9 65 0 245 15 272 17 32 43 24 54 -18z"/>
<path d="M16394 16258 c-42 -32 -44 -37 -44 -106 0 -72 12 -84 57 -56 46 29
53 44 53 116 0 60 -2 68 -19 68 -10 0 -31 -10 -47 -22z"/>
<path d="M6856 16181 c-3 -5 1 -11 9 -14 9 -4 12 -1 8 9 -6 16 -10 17 -17 5z"/>
<path d="M15488 16145 c-30 -20 -38 -33 -43 -67 -10 -76 -35 -302 -35 -322 0
-51 -10 3 -25 139 -10 83 -22 154 -26 160 -6 6 -21 3 -42 -8 -62 -33 -62 -35
-12 -274 25 -119 50 -220 56 -224 9 -5 6 -42 -10 -142 -11 -74 -21 -137 -21
-141 0 -14 28 -4 58 22 l33 27 54 355 c52 345 69 465 70 484 0 19 -21 15 -57
-9z"/>
<path d="M6925 16150 c-3 -6 1 -7 9 -4 18 7 21 14 7 14 -6 0 -13 -4 -16 -10z"/>
<path d="M14650 15914 c-51 -34 -50 -26 -50 -393 0 -371 5 -417 44 -427 52
-13 116 47 116 108 0 47 -14 66 -34 49 -15 -12 -16 16 -17 300 -1 173 -2 327
-3 344 -1 35 -21 42 -56 19z"/>
<path d="M6825 15880 c3 -5 8 -10 11 -10 2 0 4 5 4 10 0 6 -5 10 -11 10 -5 0
-7 -4 -4 -10z"/>
<path d="M14962 15836 c-17 -19 -34 -45 -38 -58 l-7 -23 -8 23 c-11 29 -17 28
-61 -12 l-37 -34 0 -369 c0 -203 4 -375 9 -382 7 -12 13 -12 39 -1 54 22 61
42 61 167 l0 113 29 0 c39 0 86 49 110 116 54 143 50 411 -7 477 -24 27 -57
21 -90 -17z m23 -274 c0 -115 -3 -142 -18 -165 -9 -15 -24 -27 -32 -27 -13 0
-15 23 -15 139 0 135 9 188 33 203 25 15 32 -16 32 -150z"/>
<path d="M14389 15517 c-49 -33 -96 -100 -116 -165 -26 -83 -26 -343 0 -390
37 -69 106 -61 188 20 55 55 69 97 45 134 l-17 24 -38 -40 c-44 -46 -78 -52
-87 -16 -11 44 0 59 65 97 87 50 106 86 97 183 -9 97 -23 143 -49 161 -29 21
-48 19 -88 -8z m35 -129 c3 -13 6 -44 6 -69 0 -42 -2 -46 -35 -62 -20 -9 -38
-17 -41 -17 -11 0 8 114 22 142 18 34 39 36 48 6z"/>
<path d="M13933 15500 c-22 -13 -34 -29 -38 -52 -9 -48 -1 -775 8 -784 9 -9
66 21 85 44 9 12 12 72 12 222 0 170 3 209 16 228 18 26 44 29 44 5 2 -259 7
-393 13 -399 10 -11 76 25 88 48 6 12 9 116 7 269 -3 230 -5 252 -21 264 -32
23 -83 -9 -121 -76 l-26 -44 0 148 c0 164 -2 167 -67 127z"/>
<path d="M6200 15500 c-8 -5 -10 -10 -5 -10 6 0 17 5 25 10 8 5 11 10 5 10 -5
0 -17 -5 -25 -10z"/>
<path d="M5715 15300 c-3 -6 1 -7 9 -4 18 7 21 14 7 14 -6 0 -13 -4 -16 -10z"/>
<path d="M13631 15271 c-60 -32 -60 -31 -61 -428 0 -280 3 -362 13 -366 15 -5
45 9 75 36 l22 20 0 379 c0 208 -3 378 -7 378 -5 -1 -23 -9 -42 -19z"/>
<path d="M11765 15234 c-68 -35 -65 -22 -65 -301 0 -272 1 -275 50 -235 20 16
23 35 41 276 11 143 16 263 12 267 -5 5 -22 2 -38 -7z"/>
<path d="M11545 15104 c-42 -22 -54 -44 -55 -96 0 -41 3 -48 19 -48 11 0 33
12 50 26 27 22 31 32 31 74 0 27 -4 51 -8 54 -5 3 -21 -2 -37 -10z"/>
<path d="M10188 15067 l-23 -42 0 -1300 c0 -1409 -3 -1320 54 -1408 29 -46
120 -110 176 -126 22 -6 61 -11 87 -11 l46 0 -29 29 -29 29 0 1296 c0 1269 0
1297 20 1348 16 41 17 55 7 64 -15 14 -246 148 -269 157 -14 5 -23 -4 -40 -36z"/>
<path d="M4948 15073 c7 -3 16 -2 19 1 4 3 -2 6 -13 5 -11 0 -14 -3 -6 -6z"/>
<path d="M4948 15053 c7 -3 16 -2 19 1 4 3 -2 6 -13 5 -11 0 -14 -3 -6 -6z"/>
<path d="M11318 14975 l-38 -26 0 -152 0 -152 -56 -32 c-31 -18 -60 -33 -65
-33 -5 0 -9 61 -9 140 0 120 -2 140 -15 140 -25 0 -73 -28 -85 -49 -6 -13 -10
-154 -10 -385 0 -350 1 -366 19 -366 10 0 33 10 52 23 l34 23 3 161 2 162 54
30 c29 17 59 31 65 31 8 0 11 -45 11 -150 0 -95 4 -150 10 -150 23 0 90 51 95
73 3 12 4 182 3 377 -3 395 -1 382 -70 335z"/>
<path d="M5075 14959 c-4 -6 -4 -13 -1 -16 3 -4 6 -1 6 6 0 8 6 11 16 7 8 -3
12 -2 9 4 -8 13 -22 13 -30 -1z"/>
<path d="M11521 14894 l-31 -26 0 -280 0 -279 23 7 c22 6 55 30 69 49 4 6 8
133 8 283 0 262 -1 272 -19 272 -11 0 -33 -12 -50 -26z"/>
<path d="M13263 14860 c-17 -17 -40 -49 -51 -73 -19 -39 -21 -40 -22 -14 0 36
-20 35 -65 -4 l-35 -31 0 -269 c0 -251 1 -269 18 -269 20 0 60 25 80 48 9 12
12 72 12 222 0 170 3 209 16 228 8 12 22 22 30 22 12 0 14 -34 14 -210 0 -193
1 -210 18 -210 29 0 81 38 88 64 11 47 0 479 -14 504 -18 31 -52 28 -89 -8z"/>
<path d="M4600 14780 c-8 -5 -10 -10 -5 -10 6 0 17 5 25 10 8 5 11 10 5 10 -5
0 -17 -5 -25 -10z"/>
<path d="M12855 14632 c-43 -27 -102 -86 -110 -112 -9 -30 3 -90 19 -90 7 0
26 16 43 35 37 42 70 46 79 10 5 -21 -4 -34 -58 -87 -79 -76 -102 -134 -103
-249 0 -92 16 -129 55 -129 33 0 75 31 96 72 14 27 17 28 28 12 12 -15 16 -14
53 19 l40 36 -5 218 c-5 259 -11 283 -69 283 -21 0 -51 -8 -68 -18z m25 -443
c-7 -15 -19 -30 -28 -34 -56 -21 -41 142 15 174 16 9 18 3 21 -51 2 -34 -2
-74 -8 -89z"/>
<path d="M11733 14610 c-43 -26 -53 -48 -53 -119 0 -57 1 -61 24 -61 28 0 73
40 81 72 9 35 2 121 -10 125 -5 1 -24 -6 -42 -17z"/>
<path d="M4110 14580 c-8 -5 -10 -10 -5 -10 6 0 17 5 25 10 8 5 11 10 5 10 -5
0 -17 -5 -25 -10z"/>
<path d="M12565 14465 c-100 -53 -154 -188 -155 -382 0 -174 31 -242 106 -230
42 7 118 73 139 121 11 27 6 78 -9 94 -3 2 -20 -12 -39 -32 -66 -69 -87 -43
-87 107 0 151 25 207 91 207 35 0 52 33 47 89 -3 32 -6 36 -33 39 -16 1 -43
-5 -60 -13z"/>
<path d="M3705 14250 c-3 -6 1 -7 9 -4 18 7 21 14 7 14 -6 0 -13 -4 -16 -10z"/>
<path d="M12177 14230 c-30 -24 -34 -45 -43 -235 -4 -82 -10 -160 -13 -173 -4
-14 -15 52 -26 157 -15 151 -21 181 -35 181 -20 0 -57 -26 -69 -48 -5 -9 -16
-98 -26 -197 -18 -193 -31 -257 -33 -165 -3 104 -21 312 -27 319 -7 6 -67 -33
-79 -51 -7 -13 0 -78 28 -255 21 -131 41 -244 43 -250 7 -19 18 -16 50 15 28
26 30 36 51 192 12 91 22 180 22 199 0 44 8 36 15 -15 4 -21 15 -93 26 -159
10 -66 19 -123 19 -127 0 -16 30 -7 55 15 24 21 27 36 60 282 19 143 37 277
40 298 4 31 2 37 -14 37 -10 0 -30 -9 -44 -20z"/>
<path d="M3570 14179 c0 -5 5 -7 10 -4 6 3 10 8 10 11 0 2 -4 4 -10 4 -5 0
-10 -5 -10 -11z"/>
<path d="M3343 14087 c-1 -30 -1 -31 8 -8 5 14 6 28 2 32 -4 4 -9 -6 -10 -24z"/>
<path d="M17102 14063 c-41 -20 -90 -76 -122 -140 -33 -65 -35 -172 -4 -203
42 -43 123 -23 182 45 143 162 103 376 -56 298z"/>
<path d="M7217 13944 c-109 -20 -236 -70 -358 -141 -57 -34 -203 -118 -324
-188 -121 -70 -249 -148 -285 -173 -303 -213 -549 -490 -729 -819 -148 -272
-240 -570 -272 -884 l-12 -117 -54 -6 c-30 -3 -71 -13 -91 -21 -39 -16 -162
-96 -162 -105 0 -3 26 -6 57 -7 418 -18 903 -635 930 -1183 6 -133 -11 -238
-52 -321 -15 -28 -25 -53 -23 -55 2 -2 40 14 84 36 175 85 244 235 231 500
-15 303 -179 648 -424 894 -88 89 -236 196 -300 217 l-35 11 7 87 c52 662 413
1287 954 1650 106 71 647 386 716 416 283 125 630 58 853 -163 40 -41 89 -98
109 -129 67 -105 123 -275 123 -375 l0 -43 82 -44 81 -43 -6 123 c-11 245 -96
445 -261 611 -226 227 -534 327 -839 272z"/>
<path d="M11325 13938 c-16 -12 -33 -27 -37 -33 -4 -5 -8 -76 -8 -157 l0 -146
-55 -31 c-30 -17 -59 -31 -65 -31 -6 0 -10 52 -10 140 0 122 -2 140 -16 140
-16 0 -73 -36 -86 -55 -13 -17 -10 -743 3 -751 6 -3 30 7 52 23 l42 29 3 160
2 160 56 32 c31 18 60 32 65 32 5 0 9 -67 9 -150 0 -113 3 -150 13 -150 20 0
75 37 86 59 8 14 10 138 9 383 -3 399 -2 391 -63 346z"/>
<path d="M11649 13930 c-47 -14 -87 -51 -117 -109 -42 -81 -56 -150 -57 -281
0 -161 28 -230 94 -230 33 0 90 40 120 84 48 71 63 129 68 276 6 150 -4 208
-42 246 -26 26 -27 26 -66 14z m4 -180 c14 -55 3 -245 -17 -275 -40 -61 -59
-8 -54 150 4 125 16 169 46 163 8 -2 20 -19 25 -38z"/>
<path d="M16526 13725 c-128 -44 -227 -274 -151 -350 43 -44 110 -29 178 41
136 137 117 358 -27 309z"/>
<path d="M14856 13678 c-35 -54 -37 -103 -34 -748 l3 -635 28 -55 c49 -94 143
-162 245 -176 73 -9 88 -1 57 30 l-25 25 0 658 c0 634 1 660 20 702 11 24 20
45 20 47 0 3 -139 86 -242 143 l-57 32 -15 -23z"/>
<path d="M15920 13379 c-102 -41 -193 -204 -170 -305 40 -176 290 -2 290 201
0 66 -3 73 -40 98 -27 19 -44 20 -80 6z"/>
<path d="M11545 12745 c-33 -19 -93 -53 -133 -76 -66 -37 -83 -59 -47 -59 32
0 40 -43 45 -250 5 -198 6 -207 32 -256 47 -89 146 -154 247 -162 l56 -5 -20
23 c-19 21 -20 40 -25 402 l-5 380 -24 19 c-33 27 -57 24 -126 -16z"/>
<path d="M16410 12732 c0 -21 208 -187 297 -238 54 -31 114 -66 133 -77 34
-19 33 -18 -11 24 -25 24 -96 91 -159 149 -62 58 -118 110 -124 116 -23 22
-56 34 -95 34 -23 0 -41 -4 -41 -8z"/>
<path d="M8750 12543 c0 -63 -49 -200 -96 -271 -56 -85 -187 -215 -280 -277
-346 -233 -828 -349 -1369 -330 -179 7 -194 6 -254 -15 -141 -47 -250 -164
-280 -302 -35 -159 -82 -645 -71 -730 16 -112 87 -227 177 -287 79 -53 150
-68 365 -81 428 -25 888 32 1273 156 612 198 1024 542 1125 938 31 123 26 198
-23 345 -23 69 -47 126 -53 128 -19 6 -79 -42 -111 -90 -18 -27 -35 -68 -39
-95 -10 -64 -48 -102 -104 -102 -33 0 -48 6 -72 31 -29 28 -30 34 -25 87 12
126 89 251 200 323 33 22 62 41 65 43 10 11 -146 261 -227 361 -83 104 -182
215 -192 215 -5 0 -9 -21 -9 -47z m-955 -1248 c104 -20 249 -124 282 -204 32
-75 -12 -141 -94 -141 -40 0 -48 4 -91 51 -26 29 -69 62 -97 75 -144 68 -316
-17 -349 -173 -12 -52 -48 -83 -98 -83 -87 0 -121 59 -93 157 23 77 56 131
120 196 105 107 260 152 420 122z"/>
<path d="M4226 11997 c-11 -58 -89 -110 -163 -110 -41 0 -113 29 -113 46 0 4
5 5 12 1 7 -4 8 -3 4 4 -16 26 -35 11 -42 -33 -18 -126 110 -246 233 -218 l41
10 247 -247 247 -248 -25 -63 c-77 -194 -93 -370 -51 -561 80 -357 354 -626
714 -700 56 -11 77 -22 146 -78 307 -245 762 -409 1309 -472 140 -16 579 -16
710 1 592 73 1042 244 1352 513 159 139 284 324 319 473 6 29 4 28 -52 -26
-143 -136 -270 -223 -470 -323 -457 -229 -986 -336 -1589 -322 -388 8 -697 56
-1025 159 -70 22 -250 87 -259 93 -2 2 11 25 28 51 90 136 102 341 35 592
-120 444 -505 866 -822 899 -108 12 -139 2 -195 -58 l-49 -53 -232 232 -233
233 5 67 c5 69 -8 110 -46 154 -22 25 -29 21 -36 -16z m744 -1228 c32 -17 78
-52 103 -78 69 -73 163 -249 143 -268 -3 -4 -6 0 -6 7 0 8 -10 4 -26 -11 -55
-51 -202 -19 -295 64 -41 36 -67 77 -49 77 7 0 5 6 -4 15 -24 24 -31 116 -12
172 15 45 19 49 52 51 23 2 54 -7 94 -29z m-72 -344 c-3 -3 -9 2 -12 12 -6 14
-5 15 5 6 7 -7 10 -15 7 -18z m40 -33 c7 7 12 9 12 6 0 -3 -6 -11 -14 -17 -12
-10 -17 -8 -26 11 -10 20 -10 21 3 6 10 -13 16 -15 25 -6z m269 -184 c-3 -8
-6 -5 -6 6 -1 11 2 17 5 13 3 -3 4 -12 1 -19z m-72 -6 c-3 -3 -11 0 -18 7 -9
10 -8 11 6 5 10 -3 15 -9 12 -12z m48 -9 c-7 -2 -19 -2 -25 0 -7 3 -2 5 12 5
14 0 19 -2 13 -5z"/>
<path d="M4862 10580 c0 -14 2 -19 5 -12 2 6 2 18 0 25 -3 6 -5 1 -5 -13z"/>
<path d="M15966 11485 c-78 -27 -127 -86 -140 -165 l-6 -38 -37 19 c-48 25
-135 25 -188 0 -53 -24 -103 -81 -110 -128 -20 -123 -43 -171 -95 -198 -41
-21 -92 -19 -118 5 -12 11 -24 20 -28 20 -3 0 -4 -26 -2 -57 4 -48 10 -61 37
-85 17 -15 43 -28 56 -28 l25 0 -22 -42 c-16 -31 -22 -61 -23 -108 0 -76 25
-125 84 -166 l36 -24 13 47 c7 27 27 85 44 130 30 80 32 84 82 107 240 113
615 66 909 -113 70 -43 91 -61 90 -76 -2 -11 -8 -52 -14 -92 -23 -145 32 -306
136 -402 l55 -49 -6 -74 c-4 -59 -2 -80 13 -108 37 -71 97 -72 150 -4 65 86
134 151 172 162 53 16 132 15 174 -3 35 -15 97 -79 97 -102 0 -31 19 -18 43
30 63 130 90 283 68 386 -15 69 -55 150 -87 177 l-25 20 17 70 c20 85 14 197
-14 270 -42 113 -147 224 -257 275 -22 10 -87 35 -145 55 -114 41 -149 68
-236 184 -97 131 -279 159 -382 59 l-32 -31 -32 32 c-18 18 -47 39 -65 46 -42
18 -186 17 -237 -1z"/>
<path d="M9395 11408 c14 -95 10 -90 102 -138 137 -71 316 -194 368 -252 58
-65 102 -154 110 -223 8 -63 -13 -153 -55 -236 l-29 -57 25 -17 c22 -14 24
-19 12 -33 -12 -15 -11 -16 5 -3 16 13 20 13 27 1 6 -9 4 -20 -6 -31 -12 -14
-12 -16 1 -16 8 0 12 3 10 7 -2 3 5 14 15 23 30 25 89 150 106 225 29 122 2
257 -74 369 -54 80 -131 150 -249 227 -104 68 -340 196 -362 196 -9 0 -11 -12
-6 -42z"/>
<path d="M11617 10895 c-158 -55 -265 -152 -343 -309 -40 -80 -48 -106 -52
-168 -4 -68 -2 -75 21 -100 22 -23 34 -28 75 -28 62 0 97 31 107 93 4 23 12
53 18 67 5 14 11 30 13 35 22 92 122 186 239 225 34 11 72 31 85 45 42 45 22
133 -36 155 -36 14 -51 12 -127 -15z"/>
<path d="M11490 10485 c-11 -13 -10 -14 4 -9 9 3 16 10 16 15 0 13 -6 11 -20
-6z"/>
<path d="M15551 10466 c-40 -22 -69 -96 -38 -96 21 0 182 22 185 25 8 7 -30
65 -47 75 -27 14 -71 12 -100 -4z"/>
<path d="M9709 10443 c-13 -16 -12 -17 4 -4 9 7 17 15 17 17 0 8 -8 3 -21 -13z"/>
<path d="M11594 10430 c0 -10 4 -18 9 -17 37 8 48 -215 14 -278 -10 -16 -17
-34 -17 -38 0 -5 -6 -14 -12 -21 -7 -7 -26 -29 -42 -49 -16 -20 -36 -37 -43
-37 -7 0 -13 -4 -13 -9 0 -5 -30 -24 -67 -43 -65 -32 -73 -33 -183 -33 -98 0
-122 4 -162 23 -26 12 -51 22 -55 22 -31 0 -128 112 -151 175 -10 26 -11 21
-9 -40 l2 -70 -50 -35 c-138 -95 -192 -127 -326 -194 -243 -121 -485 -188
-731 -203 -59 -3 -105 -9 -103 -13 4 -7 -18 -280 -33 -402 l-8 -68 82 0 c235
0 508 52 769 147 195 71 522 253 676 374 36 28 38 28 95 18 145 -27 281 16
406 129 l38 35 98 -2 c61 -1 119 4 156 14 74 19 188 79 232 121 29 27 34 38
34 78 0 38 -5 52 -26 71 -37 34 -95 34 -141 -1 -54 -41 -140 -76 -203 -81
l-59 -6 0 84 c0 130 -37 228 -120 322 -36 41 -57 50 -57 27z"/>
<path d="M16258 10349 c-14 -6 -28 -16 -31 -23 -5 -12 125 -121 145 -121 14 0
29 51 21 73 -23 73 -66 96 -135 71z"/>
<path d="M15550 10247 c-38 -19 -54 -60 -40 -103 19 -57 83 -72 125 -29 65 64
-6 173 -85 132z"/>
<path d="M15885 10206 c-60 -39 -169 -155 -254 -268 -41 -55 -46 -78 -16 -78
7 0 15 -3 17 -8 2 -4 44 -33 93 -64 100 -64 108 -63 121 11 4 20 20 71 35 114
33 90 33 91 17 81 -8 -5 -7 0 2 11 17 21 82 226 74 234 -3 3 -9 -1 -14 -9 -7
-10 -10 -11 -10 -2 0 18 -9 15 -65 -22z m-55 -80 c0 -3 -4 -8 -10 -11 -5 -3
-10 -1 -10 4 0 6 5 11 10 11 6 0 10 -2 10 -4z"/>
<path d="M16185 10150 c-32 -12 -47 -36 -48 -76 -1 -28 5 -42 27 -60 34 -30
67 -30 101 -1 21 17 27 32 27 62 0 62 -51 98 -107 75z"/>
<path d="M9855 10140 c-3 -5 -1 -10 4 -10 6 0 11 5 11 10 0 6 -2 10 -4 10 -3
0 -8 -4 -11 -10z"/>
<path d="M16059 9547 c-2 -3 -58 -8 -124 -11 -66 -4 -123 -11 -128 -15 -21
-21 52 -131 88 -131 5 0 21 20 34 44 27 52 74 76 146 76 33 0 45 4 45 15 0 8
-6 15 -14 15 -8 0 -21 2 -28 5 -8 3 -16 4 -19 2z"/>
<path d="M16765 9433 c-34 -73 -133 -208 -192 -264 -67 -65 -137 -103 -235
-130 -80 -22 -102 -25 -260 -34 l-117 -7 1 -27 c1 -14 0 -32 -3 -40 -10 -34
381 3 481 46 80 34 107 50 152 92 26 24 54 55 61 70 8 14 26 49 40 76 30 56
100 245 94 252 -3 2 -12 -13 -22 -34z"/>
<path d="M16892 9318 l-3 -103 47 78 c25 43 45 79 43 81 -7 5 -80 46 -82 46
-1 0 -4 -46 -5 -102z"/>
<path d="M9581 9274 c0 -11 3 -14 6 -6 3 7 2 16 -1 19 -3 4 -6 -2 -5 -13z"/>
<path d="M9560 9171 c0 -6 4 -13 10 -16 6 -3 7 1 4 9 -7 18 -14 21 -14 7z"/>
<path d="M4714 9016 c-57 -18 -167 -93 -241 -165 -255 -249 -343 -617 -228
-956 l34 -100 -34 -109 c-172 -540 -107 -1165 180 -1736 24 -47 57 -110 75
-139 31 -53 31 -54 16 -99 -24 -68 -30 -160 -16 -227 15 -74 62 -174 99 -209
28 -27 28 -27 15 -84 -44 -186 37 -470 142 -496 39 -10 92 11 109 44 22 42 19
74 -14 135 -34 64 -54 146 -49 207 3 37 6 42 23 39 11 -2 70 -4 131 -5 108 -1
111 0 185 36 90 46 182 125 144 125 -8 0 -12 -4 -9 -8 2 -4 -5 -14 -17 -23
-17 -11 -27 -12 -42 -5 -14 8 -17 8 -13 0 10 -16 -39 -24 -110 -18 -106 10
-195 65 -258 161 -86 131 -91 293 -14 445 40 78 113 139 213 176 15 6 3 11
-45 19 l-65 11 -52 100 c-171 325 -254 671 -240 995 3 74 11 163 17 196 l12
62 61 -28 c233 -105 496 -114 724 -24 162 65 234 133 285 269 19 53 22 80 22
220 0 141 -3 171 -27 258 -138 512 -559 950 -908 946 -35 0 -83 -6 -105 -13z
m-193 -808 c99 -33 213 -152 267 -278 28 -65 36 -94 24 -86 -6 4 -14 0 -19 -8
-5 -8 -13 -12 -18 -8 -16 12 -44 99 -39 124 4 19 3 20 -4 4 -7 -17 -11 -15
-32 20 -14 21 -35 49 -47 62 -13 13 -20 28 -17 34 4 7 2 8 -4 4 -6 -4 -25 3
-41 15 -39 28 -110 36 -150 16 l-32 -16 7 37 c11 59 32 91 60 92 6 0 26 -5 45
-12z m264 -536 c-3 -3 -11 0 -18 7 -9 10 -8 11 6 5 10 -3 15 -9 12 -12z"/>
<path d="M4436 8163 c-6 -14 -5 -15 5 -6 7 7 10 15 7 18 -3 3 -9 -2 -12 -12z"/>
<path d="M4508 8133 c7 -3 16 -2 19 1 4 3 -2 6 -13 5 -11 0 -14 -3 -6 -6z"/>
<path d="M8930 8989 c0 -5 5 -7 10 -4 6 3 10 8 10 11 0 2 -4 4 -10 4 -5 0 -10
-5 -10 -11z"/>
<path d="M15845 8652 c-164 -113 -311 -367 -394 -683 -54 -205 -62 -266 -131
-974 -22 -225 -47 -472 -56 -548 l-16 -139 33 -34 c49 -50 120 -93 181 -110
92 -24 659 -88 856 -97 l72 -3 0 31 c2 282 22 1135 30 1270 24 407 57 671 101
805 23 72 90 204 120 236 34 37 20 35 -38 -4 -79 -54 -221 -124 -323 -160
-112 -39 -222 -61 -346 -69 -100 -6 -101 -6 -107 18 -27 101 24 342 92 438 23
32 28 71 9 71 -7 0 -44 -22 -83 -48z"/>
<path d="M7606 8568 c3 -5 10 -6 15 -3 13 9 11 12 -6 12 -8 0 -12 -4 -9 -9z"/>
<path d="M9266 8451 c-4 -5 -3 -17 1 -28 6 -16 5 -17 -13 -3 -18 14 -18 14 -5
-3 16 -21 26 -14 26 19 1 26 -1 29 -9 15z"/>
<path d="M9186 8333 c-6 -14 -5 -15 5 -6 7 7 10 15 7 18 -3 3 -9 -2 -12 -12z"/>
<path d="M14135 8300 c-33 -10 -114 -37 -180 -60 -66 -23 -194 -57 -285 -75
-500 -102 -856 -242 -1235 -487 -85 -55 -161 -93 -279 -139 -136 -52 -216
-135 -216 -221 0 -18 12 -64 26 -103 75 -205 83 -236 103 -395 44 -338 132
-617 259 -818 30 -48 59 -95 66 -105 9 -15 7 -22 -14 -38 -101 -81 -158 -160
-196 -269 -95 -271 -16 -645 216 -1030 207 -345 612 -844 1046 -1289 98 -101
180 -189 182 -195 1 -6 -11 -25 -28 -41 -28 -26 -30 -34 -30 -96 0 -248 149
-484 360 -573 33 -13 39 -13 100 13 98 42 110 45 110 27 0 -24 10 -20 55 23
25 24 69 50 119 70 44 17 128 52 188 78 72 30 112 43 119 36 22 -22 -4 -41
-89 -63 -119 -31 -208 -79 -299 -164 -81 -73 -82 -77 -67 -144 4 -21 8 -19 72
34 77 64 198 125 293 148 82 20 108 20 116 0 9 -24 -6 -33 -105 -59 -137 -37
-201 -73 -308 -175 l-54 -52 0 -70 0 -70 68 63 c78 74 179 128 289 154 76 18
93 15 93 -15 0 -14 -15 -22 -72 -35 -128 -32 -201 -72 -310 -173 -26 -24 -52
-41 -57 -37 -6 3 -11 -1 -11 -9 0 -8 -7 -95 -16 -193 -30 -337 0 -430 175
-545 l76 -50 76 4 c63 4 86 10 135 38 199 112 345 302 443 576 50 141 65 227
59 345 -4 80 -12 114 -53 229 -92 260 -103 295 -110 356 l-7 60 159 64 c208
83 329 146 482 247 l125 84 120 -26 c245 -51 545 -81 701 -70 567 40 1035 383
1189 870 32 101 53 216 62 335 l7 92 61 -6 c104 -11 226 -45 309 -86 44 -22
75 -34 68 -27 -6 8 -7 17 -3 21 4 4 0 6 -8 4 -8 -2 -14 3 -12 10 1 8 -1 11 -6
8 -5 -3 -24 14 -43 36 -68 83 -142 158 -156 158 -7 0 -13 4 -13 8 0 11 -85 49
-128 57 -18 4 -38 3 -45 -2 -56 -43 -397 -102 -777 -135 -140 -12 -713 -18
-723 -8 -3 3 -1 26 3 52 13 67 38 368 45 545 6 124 4 154 -7 157 -7 3 -39 12
-70 21 -34 9 -58 21 -58 29 0 7 -19 18 -42 24 -460 120 -819 208 -963 237 -99
20 -196 40 -215 46 -130 41 -389 161 -504 236 -87 56 -179 151 -213 218 -38
75 -73 118 -92 112 -55 -17 -213 -94 -252 -123 -57 -41 -83 -92 -74 -140 3
-19 2 -34 -2 -34 -4 0 -48 22 -98 48 -71 38 -93 55 -106 82 -9 18 -14 42 -11
52 4 15 -2 18 -30 18 -21 0 -47 9 -62 21 -26 21 -27 26 -25 95 3 67 2 74 -24
100 -36 36 -43 66 -28 136 l12 59 -34 42 c-59 72 -58 90 11 176 57 71 121 94
270 99 120 4 123 4 129 -18 5 -17 10 -20 27 -14 11 4 46 8 77 8 50 1 71 -6
180 -61 68 -34 205 -109 304 -166 99 -58 181 -103 183 -102 2 2 -62 169 -142
371 -180 460 -179 459 -356 504 -98 25 -104 28 -92 43 5 7 23 37 39 67 37 68
244 428 329 573 35 59 64 115 64 125 0 32 -49 165 -75 202 -55 79 -159 100
-290 60z m223 -4106 c147 -42 269 -77 271 -79 2 -2 -68 -78 -155 -169 -88 -91
-162 -162 -165 -158 -7 7 -229 472 -229 478 0 7 8 5 278 -72z m290 -2182 c3
-16 -3 -23 -25 -28 -163 -36 -226 -66 -317 -150 -61 -56 -79 -62 -84 -27 -4
30 106 126 193 168 63 30 195 67 220 61 6 -1 11 -12 13 -24z"/>
<path d="M9080 8150 c-8 -5 -12 -12 -9 -15 4 -3 12 1 19 10 14 17 11 19 -10 5z"/>
<path d="M18248 7413 c7 -3 16 -2 19 1 4 3 -2 6 -13 5 -11 0 -14 -3 -6 -6z"/>
<path d="M8791 7154 c0 -11 3 -14 6 -6 3 7 2 16 -1 19 -3 4 -6 -2 -5 -13z"/>
<path d="M18750 7135 c-14 -8 -20 -14 -14 -15 5 0 19 7 30 15 24 18 16 19 -16
0z"/>
<path d="M19130 6890 c8 -5 20 -10 25 -10 6 0 3 5 -5 10 -8 5 -19 10 -25 10
-5 0 -3 -5 5 -10z"/>
<path d="M19384 6758 l-19 -23 23 19 c21 18 27 26 19 26 -2 0 -12 -10 -23 -22z"/>
<path d="M19400 6740 c-6 -11 -8 -20 -6 -20 3 0 10 9 16 20 6 11 8 20 6 20 -3
0 -10 -9 -16 -20z"/>
<path d="M19426 6732 c-3 -5 1 -9 9 -9 8 0 12 4 9 9 -3 4 -7 8 -9 8 -2 0 -6
-4 -9 -8z"/>
<path d="M19173 6634 c-47 -23 -137 -102 -204 -181 -96 -111 -326 -523 -385
-688 -8 -22 -21 -50 -30 -62 -8 -13 -12 -23 -10 -23 3 0 -7 -26 -21 -57 -14
-32 -29 -69 -33 -83 -5 -14 -18 -50 -29 -80 -12 -30 -30 -93 -42 -140 -11 -47
-25 -94 -29 -105 -5 -11 -18 -78 -29 -150 -62 -391 -43 -696 47 -782 26 -25
39 -28 76 -13 31 11 63 73 102 195 26 85 78 190 110 226 8 8 14 18 14 22 0 6
96 156 106 167 3 2 2 -4 -1 -15 -5 -16 -5 -17 3 -5 6 8 9 17 6 21 -2 5 9 30
26 57 16 27 30 52 30 56 0 4 11 22 23 39 23 31 100 185 166 330 38 84 121 326
121 353 0 12 3 23 6 27 3 3 8 27 10 52 2 25 7 51 11 58 5 7 8 19 8 27 4 113
51 377 87 481 40 119 45 222 12 266 -29 39 -82 41 -151 7z"/>
<path d="M13855 6601 c-11 -11 -54 -33 -96 -50 -42 -18 -87 -43 -100 -58 -28
-30 -37 -31 105 11 48 14 113 26 144 26 l55 0 -36 37 c-20 20 -37 40 -37 45 0
13 -14 9 -35 -11z"/>
<path d="M14731 6399 c-17 -30 -31 -57 -31 -61 0 -9 92 -28 103 -21 14 8 2 65
-21 102 l-20 33 -31 -53z"/>
<path d="M14100 6407 c0 -2 45 -38 99 -80 55 -42 105 -83 113 -90 17 -17 98
-69 98 -63 0 3 -19 18 -42 34 -24 17 -54 40 -68 52 -66 57 -200 156 -200 147z"/>
<path d="M13885 6349 c-62 -32 -130 -75 -153 -96 -7 -7 -18 -13 -24 -13 -6 0
-9 -2 -6 -5 8 -8 75 23 147 68 36 23 88 49 116 59 49 17 49 17 15 17 -19 0
-62 -14 -95 -30z"/>
<path d="M8600 6336 c0 -8 4 -17 9 -20 5 -4 7 3 4 14 -6 23 -13 26 -13 6z"/>
<path d="M14067 6215 c-21 -6 -34 -15 -30 -19 4 -5 2 -6 -5 -2 -13 8 -135 -48
-154 -71 -6 -7 -17 -13 -25 -13 -8 0 -11 -4 -8 -10 3 -5 0 -10 -7 -10 -7 0
-24 -10 -38 -21 -14 -11 -20 -19 -15 -17 38 14 134 62 171 87 24 17 61 35 81
41 38 12 80 37 72 43 -2 2 -21 -1 -42 -8z"/>
<path d="M14156 6217 c3 -10 9 -15 12 -12 3 3 0 11 -7 18 -10 9 -11 8 -5 -6z"/>
<path d="M14225 6154 c64 -61 186 -158 179 -141 -3 6 -26 28 -52 47 -51 38
-86 66 -111 90 -9 8 -27 24 -41 34 -14 10 -2 -3 25 -30z"/>
<path d="M8458 5857 c-3 -19 -2 -25 4 -19 6 6 8 18 6 28 -3 14 -5 12 -10 -9z"/>
<path d="M5284 5852 c-9 -5 -8 -10 1 -19 11 -10 13 -9 12 7 -1 11 -1 20 -2 20
0 0 -5 -4 -11 -8z"/>
<path d="M5238 5653 c7 -3 16 -2 19 1 4 3 -2 6 -13 5 -11 0 -14 -3 -6 -6z"/>
<path d="M5179 5601 c-58 -58 -31 -158 48 -177 15 -4 57 -22 93 -39 109 -55
176 -145 201 -270 14 -68 28 -94 62 -112 38 -19 87 -10 118 23 62 66 -5 284
-133 430 -42 48 -162 127 -234 153 -78 30 -119 28 -155 -8z"/>
<path d="M5125 5510 c-3 -5 -2 -18 4 -27 7 -14 9 -12 8 10 -2 30 -3 31 -12 17z"/>
<path d="M5302 5365 c4 -4 3 -16 -3 -27 -6 -11 -9 -22 -6 -24 2 -2 9 7 15 21
9 18 8 26 -1 31 -7 4 -9 4 -5 -1z"/>
<path d="M19055 5269 c-4 -6 -5 -12 -2 -15 2 -3 7 2 10 11 7 17 1 20 -8 4z"/>
<path d="M8136 5233 c-6 -14 -5 -15 5 -6 7 7 10 15 7 18 -3 3 -9 -2 -12 -12z"/>
<path d="M8095 5200 c-3 -5 -1 -10 4 -10 6 0 11 5 11 10 0 6 -2 10 -4 10 -3 0
-8 -4 -11 -10z"/>
<path d="M18975 5109 c-4 -6 -5 -12 -2 -15 2 -3 7 2 10 11 7 17 1 20 -8 4z"/>
<path d="M18966 5043 c-6 -14 -5 -15 5 -6 7 7 10 15 7 18 -3 3 -9 -2 -12 -12z"/>
<path d="M18734 4736 c-3 -8 -4 -23 -2 -33 3 -11 6 -6 9 15 6 34 2 42 -7 18z"/>
<path d="M8575 4469 c-4 -6 -5 -12 -2 -15 2 -3 7 2 10 11 7 17 1 20 -8 4z"/>
<path d="M18570 4336 c0 -8 4 -17 9 -20 5 -4 7 3 4 14 -6 23 -13 26 -13 6z"/>
<path d="M8446 4317 c3 -10 9 -15 12 -12 3 3 0 11 -7 18 -10 9 -11 8 -5 -6z"/>
<path d="M8010 4050 c-8 -5 -12 -12 -9 -15 4 -3 12 1 19 10 14 17 11 19 -10 5z"/>
<path d="M7820 3950 c-9 -6 -10 -10 -3 -10 6 0 15 5 18 10 8 12 4 12 -15 0z"/>
<path d="M7429 3723 c-13 -17 -13 -17 6 -3 11 8 22 16 24 17 2 2 0 3 -6 3 -6
0 -17 -8 -24 -17z"/>
<path d="M7115 3551 c-3 -5 -2 -12 3 -15 5 -3 9 1 9 9 0 17 -3 19 -12 6z"/>
<path d="M6698 3308 c-9 -5 -6 -7 9 -5 12 2 25 6 28 8 8 9 -23 6 -37 -3z"/>
<path d="M6600 3230 c-9 -6 -10 -10 -3 -10 6 0 15 5 18 10 8 12 4 12 -15 0z"/>
<path d="M6400 3120 c-6 -11 -8 -20 -6 -20 3 0 10 9 16 20 6 11 8 20 6 20 -3
0 -10 -9 -16 -20z"/>
<path d="M13425 2961 c-53 -19 -109 -50 -237 -133 -93 -60 -289 -133 -558
-208 -447 -125 -541 -159 -670 -242 -89 -57 -188 -160 -229 -237 -77 -145 -45
-280 106 -459 89 -104 233 -182 336 -182 63 0 206 26 280 51 83 29 374 177
462 235 150 100 271 166 545 301 275 135 380 201 369 230 -3 7 -44 -5 -114
-33 -60 -24 -115 -44 -121 -44 -27 0 -23 20 12 56 42 46 50 78 34 141 -17 71
-82 203 -130 267 -37 48 -47 56 -76 56 -18 0 -44 -4 -58 -10 -67 -25 3 68 121
161 35 28 61 55 57 60 -9 14 -75 9 -129 -10z m-256 -303 c108 -136 201 -374
201 -516 0 -60 -1 -63 -22 -60 -21 3 -24 10 -29 73 -14 153 -79 314 -184 458
-55 75 -64 107 -31 107 9 0 38 -28 65 -62z m-224 -70 c111 -129 194 -334 211
-519 5 -64 4 -77 -9 -82 -24 -9 -36 13 -43 79 -17 157 -70 303 -158 428 -74
106 -76 109 -64 123 16 20 23 16 63 -29z m-157 -80 c104 -151 202 -433 202
-578 0 -48 -2 -51 -22 -48 -20 3 -24 11 -30 68 -18 163 -95 375 -194 532 -29
46 -31 68 -4 68 11 0 31 -17 48 -42z m-153 -127 c82 -124 141 -271 172 -429
12 -60 13 -86 5 -94 -23 -23 -39 1 -56 88 -30 147 -86 284 -167 407 -43 65
-50 97 -20 97 13 0 35 -24 66 -69z m-188 -118 c22 -32 49 -76 60 -98 52 -103
107 -335 85 -357 -24 -24 -39 2 -56 93 -22 117 -66 232 -122 316 -48 71 -55
103 -25 103 11 0 34 -23 58 -57z"/>
<path d="M5890 2820 c-9 -6 -10 -10 -3 -10 6 0 15 5 18 10 8 12 4 12 -15 0z"/>
<path d="M5650 2696 c0 -2 7 -7 16 -10 8 -3 12 -2 9 4 -6 10 -25 14 -25 6z"/>
<path d="M5600 2670 c-9 -6 -10 -10 -3 -10 6 0 15 5 18 10 8 12 4 12 -15 0z"/>
<path d="M5499 2603 c-13 -16 -12 -17 4 -4 9 7 17 15 17 17 0 8 -8 3 -21 -13z"/>
<path d="M5259 2453 c-13 -17 -13 -17 6 -3 11 8 22 16 24 17 2 2 0 3 -6 3 -6
0 -17 -8 -24 -17z"/>
<path d="M5043 2345 c0 -8 4 -12 9 -9 5 3 6 10 3 15 -9 13 -12 11 -12 -6z"/>
<path d="M4620 2110 c-9 -6 -10 -10 -3 -10 6 0 15 5 18 10 8 12 4 12 -15 0z"/>
<path d="M4487 2029 c7 -7 15 -10 18 -7 3 3 -2 9 -12 12 -14 6 -15 5 -6 -5z"/>
<path d="M4230 1881 c0 -6 4 -13 10 -16 6 -3 7 1 4 9 -7 18 -14 21 -14 7z"/>
<path d="M3930 1706 c0 -2 7 -7 16 -10 8 -3 12 -2 9 4 -6 10 -25 14 -25 6z"/>
<path d="M3562 1491 c-11 -7 -11 -9 0 -14 9 -3 15 1 15 9 0 8 -1 14 -1 14 -1
0 -7 -4 -14 -9z"/>
</g>
</svg>
