<?xml version="1.0" standalone="no"?>
<!DOCTYPE svg PUBLIC "-//W3C//DTD SVG 20010904//EN"
 "http://www.w3.org/TR/2001/REC-SVG-20010904/DTD/svg10.dtd">
<svg version="1.0" xmlns="http://www.w3.org/2000/svg"
 width="5501.000000pt" height="5001.000000pt" viewBox="0 0 5501.000000 5001.000000"
 preserveAspectRatio="xMidYMid meet">

<g transform="translate(0.000000,5001.000000) scale(0.100000,-0.100000)"
fill="#000000" stroke="none">
<path d="M36545 48279 c-27 -4 -76 -18 -109 -29 -53 -20 -4314 -2471 -4446
-2558 -85 -56 -248 -226 -319 -332 -108 -161 -185 -336 -229 -514 -16 -66 -17
-170 -15 -1419 2 -1189 4 -1355 18 -1410 21 -83 60 -158 104 -200 35 -34 335
-213 454 -272 72 -35 175 -44 257 -21 30 8 57 12 60 10 5 -6 23 -564 18 -568
-2 -2 -228 -133 -503 -291 -275 -158 -506 -294 -513 -300 -11 -10 -6 -36 32
-148 106 -313 149 -565 162 -947 14 -394 -28 -646 -241 -1423 -69 -252 -125
-464 -125 -471 0 -8 42 -38 92 -67 266 -154 463 -475 483 -787 3 -48 2 -404
-2 -792 l-9 -705 -23 -52 c-26 -58 -80 -112 -160 -159 l-52 -30 93 -94 c282
-283 636 -486 1003 -576 587 -143 1211 0 1740 399 94 71 325 298 325 319 0 8
-12 25 -26 39 -78 72 -178 255 -215 394 -33 119 -33 346 -1 464 71 262 249
484 480 600 34 17 62 37 62 43 0 7 -34 136 -75 288 -41 151 -147 545 -235 875
-89 330 -184 681 -210 780 -27 99 -139 515 -249 925 -367 1368 -509 1893 -562
2089 -49 181 -51 195 -37 220 9 14 136 244 283 511 147 267 275 493 284 502 9
9 594 351 1301 759 707 407 1308 757 1335 777 267 190 487 541 550 876 14 72
15 245 13 1417 -3 1267 -4 1337 -22 1389 -54 163 -84 191 -406 377 -197 114
-252 131 -365 112z m502 -215 c-3 -3 -12 -4 -19 -1 -8 3 -5 6 6 6 11 1 17 -2
13 -5z m-982 -2116 c47 -25 86 -68 114 -128 24 -51 26 -65 26 -195 0 -158 -15
-224 -85 -370 -61 -126 -116 -203 -216 -302 -74 -73 -109 -100 -177 -133 -177
-88 -332 -57 -401 79 -118 231 11 645 279 899 80 76 168 132 249 159 52 16
171 11 211 -9z m-1268 -703 c173 -51 231 -300 136 -584 -84 -251 -263 -471
-460 -564 -57 -27 -82 -32 -153 -35 -74 -3 -91 0 -130 21 -57 30 -105 93 -126
164 -25 87 -15 272 21 383 98 303 329 561 550 616 68 17 103 17 162 -1z
m-1201 -727 c59 -27 108 -93 130 -175 25 -92 15 -259 -21 -373 -86 -269 -262
-487 -475 -589 -67 -32 -84 -36 -156 -36 -72 0 -85 3 -130 30 -234 145 -147
659 165 975 76 77 153 131 237 165 79 33 185 34 250 3z m-1799 -2265 c-1 -159
-2 -29 -2 287 0 316 1 446 2 288 2 -159 2 -417 0 -575z m890 -735 c-2 -24 -4
-5 -4 42 0 47 2 66 4 43 2 -24 2 -62 0 -85z m10 -305 c-2 -21 -4 -4 -4 37 0
41 2 58 4 38 2 -21 2 -55 0 -75z"/>
<path d="M28804 43885 l-238 -1431 20 -39 c58 -112 211 -114 267 -5 11 23 96
509 247 1420 127 762 233 1397 236 1413 l6 27 -70 0 c-43 0 -100 9 -150 23
l-79 23 -239 -1431z"/>
<path d="M22593 42251 c-29 -33 -79 -77 -112 -98 l-58 -40 180 -204 c1214
-1376 1682 -1899 1712 -1913 44 -21 80 -20 131 5 46 22 84 82 84 130 -1 63 36
20 -1453 1697 -235 265 -429 482 -430 482 -1 0 -26 -27 -54 -59z"/>
<path d="M30567 40149 c-126 -19 -211 -82 -335 -248 -516 -693 -1580 -1190
-2857 -1335 -339 -39 -685 -50 -1010 -35 -309 15 -389 14 -515 -7 -383 -65
-689 -291 -867 -640 -101 -198 -138 -357 -130 -559 6 -158 31 -264 91 -391 59
-125 115 -205 205 -294 164 -163 412 -287 696 -349 249 -54 1086 -57 1605 -5
607 60 1242 198 1746 379 726 262 1366 657 1747 1080 201 223 309 402 391 647
108 324 126 696 49 1001 -125 497 -463 810 -816 756z m373 -836 c112 -54 223
-202 279 -372 l21 -63 -27 -47 c-56 -96 -165 -253 -236 -338 -118 -140 -416
-423 -446 -423 -9 0 -28 93 -53 260 -8 52 -13 179 -13 330 0 220 3 254 22 332
13 48 30 104 38 125 84 203 243 278 415 196z m-3338 -1458 c243 -51 467 -251
561 -505 32 -85 59 -209 55 -251 l-3 -34 -120 -22 c-403 -74 -905 -123 -1249
-123 l-149 0 6 93 c20 292 180 590 397 737 159 108 323 142 502 105z"/>
<path d="M10755 39168 c-363 -209 -661 -381 -661 -382 -1 -1 -4 -142 -8 -314
l-7 -313 39 22 39 23 23 125 c57 315 161 487 367 604 45 26 85 47 88 47 3 0 5
-377 5 -837 l-1 -838 -105 -60 c-105 -59 -134 -88 -134 -135 0 -11 2 -20 4
-20 4 0 716 409 725 416 2 2 1 15 -3 29 -10 38 -39 32 -145 -30 -51 -30 -97
-55 -102 -55 -5 0 -8 350 -7 836 l3 836 102 59 c119 69 176 87 229 73 62 -15
90 -62 126 -210 18 -71 33 -131 35 -134 2 -2 19 4 38 15 l35 18 0 146 c0 187
-11 461 -19 461 -3 -1 -303 -172 -666 -382z"/>
<path d="M8060 39421 c-38 -20 -326 -187 -1445 -838 -407 -237 -810 -471 -895
-520 -226 -131 -2795 -1623 -2930 -1703 -63 -37 -211 -123 -329 -191 -122 -71
-221 -135 -232 -151 -30 -42 -39 -116 -39 -332 0 -223 10 -286 61 -393 39 -82
113 -171 181 -215 52 -35 352 -209 740 -431 109 -61 197 -114 197 -117 0 -3
-241 -144 -536 -315 -295 -170 -548 -322 -563 -337 -42 -42 -50 -95 -50 -340
0 -255 9 -310 68 -422 70 -133 124 -176 507 -397 187 -108 829 -479 1427 -825
l1088 -629 0 -88 0 -89 -32 20 c-18 11 -530 307 -1138 657 -608 351 -1120 646
-1137 657 l-33 20 0 -54 1 -53 197 -113 c108 -62 635 -366 1170 -675 l972
-562 0 -292 c0 -161 -3 -293 -7 -293 -5 0 -447 253 -983 563 l-975 563 -3 117
c-1 64 -5 117 -8 117 -2 0 -64 -35 -137 -77 -73 -42 -153 -88 -179 -102 -47
-26 -48 -27 -48 -76 l0 -50 1169 -675 1168 -674 -5 -1536 -4 -1535 107 -60
c59 -33 112 -59 118 -57 5 1 45 24 89 49 84 48 84 47 34 78 -15 9 -17 229 -23
2555 l-6 2545 934 540 c514 296 1191 687 1504 869 694 401 940 544 1155 668
91 52 221 128 290 168 117 67 423 244 725 418 72 41 171 99 220 127 50 29 149
86 220 127 142 82 334 193 490 283 55 32 215 124 355 205 140 81 300 173 355
205 55 32 138 80 184 107 50 30 90 47 100 43 9 -3 47 -24 84 -47 37 -22 70
-38 73 -36 2 3 3 88 2 190 l-3 184 -1266 -735 c-1931 -1123 -1774 -1034 -1836
-1039 -33 -3 -71 2 -102 12 -60 19 -77 20 -163 1 -143 -30 -325 -137 -374
-220 -23 -39 -24 -75 -3 -75 5 0 16 -11 24 -24 28 -42 4 -70 -125 -146 -63
-37 -698 -406 -1410 -820 -712 -414 -1347 -783 -1411 -820 l-116 -68 -104 60
c-57 33 -105 61 -106 62 -2 1 62 40 142 86 l144 84 -27 16 c-15 9 -408 236
-874 505 l-848 489 0 343 c0 189 2 343 4 343 3 0 291 -165 636 -365 131 -75
304 -175 615 -355 218 -126 670 -387 894 -516 l194 -112 56 31 c31 17 85 48
120 68 l65 37 -40 24 c-21 13 -878 507 -1904 1099 -1478 853 -1875 1087 -1913
1124 -27 28 -63 80 -85 123 l-37 76 -3 229 c-3 213 -2 229 13 223 10 -3 85
-46 169 -95 83 -48 225 -131 316 -183 91 -52 226 -130 300 -173 273 -158 330
-191 580 -335 547 -316 644 -372 900 -520 146 -84 321 -185 390 -225 195 -112
520 -300 685 -395 254 -146 744 -429 755 -436 3 -1 696 399 1540 889 l1535
892 2 1625 3 1625 -676 390 c-372 215 -685 394 -697 400 -12 5 -24 13 -27 17
-23 31 -130 36 -180 9z m-5280 -5808 c124 -72 419 -242 655 -378 237 -137 644
-372 905 -523 261 -150 586 -338 722 -415 l247 -142 1 -302 0 -302 -202 117
c-112 64 -707 408 -1323 763 -617 356 -1141 665 -1166 687 -57 51 -114 156
-129 240 -7 43 -9 122 -4 243 l7 179 31 -19 c17 -10 132 -77 256 -148z"/>
<path d="M30761 36000 c-5 -17 -8 -37 -5 -45 11 -28 21 -15 22 30 2 53 -2 57
-17 15z"/>
<path d="M37875 34917 c-3 -6 -4 -318 -3 -692 3 -597 5 -680 18 -680 13 0 15
84 18 686 2 612 0 687 -13 693 -9 3 -18 0 -20 -7z"/>
<path d="M19475 33519 c-1304 -755 -2372 -1373 -2374 -1375 -3 -3 76 -305 249
-944 32 -118 92 -341 134 -495 41 -154 210 -784 376 -1400 348 -1294 447
-1663 1260 -4685 331 -1229 637 -2368 681 -2530 346 -1293 638 -2373 642
-2376 4 -4 2434 1399 4282 2471 222 129 1591 921 1750 1013 72 41 243 140 380
220 138 80 293 170 345 200 52 30 1735 1004 3740 2165 2005 1160 4158 2407
4785 2770 627 362 1141 660 1143 662 1 1 -45 177 -103 390 -58 214 -105 394
-105 399 -1 48 -14 41 -1521 -830 -827 -477 -1529 -878 -1559 -891 -60 -25
-118 -28 -166 -10 -16 7 -83 43 -148 81 -132 77 -168 115 -185 197 -18 81 -14
949 4 1024 34 143 111 281 215 385 64 63 106 93 275 189 110 63 256 147 325
187 151 87 724 418 1055 609 132 76 292 168 355 205 63 37 239 138 390 225
462 266 512 296 507 308 -2 7 -39 143 -82 302 -42 160 -80 296 -84 303 -5 8
-778 -433 -2595 -1482 l-2588 -1494 -47 -103 c-90 -199 -241 -440 -400 -639
-173 -218 -506 -525 -781 -720 -259 -184 -636 -386 -935 -503 -931 -363 -2079
-492 -3090 -347 -625 90 -1281 287 -1750 525 -525 266 -998 633 -1299 1008
-352 438 -572 898 -660 1382 -50 273 -57 389 -59 999 l-2 570 -150 87 c-95 55
-175 110 -219 150 -135 124 -246 305 -303 494 l-27 90 -3 395 c-2 217 0 575 5
795 7 373 9 403 28 446 39 84 71 108 383 289 l301 175 0 243 c0 133 -1 242 -3
242 -1 0 -1069 -617 -2372 -1371z m8965 -6888 c148 -86 161 -97 192 -164 23
-52 23 -54 26 -518 3 -504 0 -541 -51 -669 -43 -104 -89 -172 -182 -265 l-90
-89 -3585 -2069 c-1972 -1138 -3607 -2078 -3635 -2089 -36 -15 -66 -19 -110
-16 -53 4 -75 13 -185 77 -69 40 -133 80 -144 89 -21 19 -50 75 -59 112 -3 14
-7 243 -7 510 -2 469 -1 488 20 560 38 133 136 291 236 378 25 23 114 80 197
128 149 86 486 281 1062 614 353 204 457 264 907 524 194 112 731 421 1193
688 462 267 926 534 1030 595 185 107 1465 846 1655 955 1195 690 1213 701
1255 715 22 7 65 11 95 9 47 -2 73 -13 180 -75z"/>
<path d="M28186 25914 c-3 -9 -6 -127 -6 -264 0 -195 3 -250 13 -259 8 -6 17
-8 20 -4 4 3 7 127 7 275 0 222 -2 268 -14 268 -8 0 -17 -7 -20 -16z"/>
<path d="M28435 25888 c-3 -8 -5 -53 -3 -99 2 -67 6 -84 18 -84 22 0 27 166 5
185 -12 10 -16 10 -20 -2z"/>
<path d="M28316 25823 c-3 -3 -6 -48 -6 -100 0 -76 3 -93 15 -93 12 0 15 17
15 94 0 87 -7 116 -24 99z"/>
<path d="M27582 25798 c-14 -14 -17 -965 -3 -987 28 -43 31 9 31 494 0 272 -4
496 -8 499 -5 3 -14 0 -20 -6z"/>
<path d="M27705 25759 c-10 -26 -1 -774 10 -774 14 0 19 765 5 779 -6 6 -11 4
-15 -5z"/>
<path d="M28065 25748 c-3 -8 -4 -86 -3 -173 3 -134 5 -160 18 -160 13 0 15
25 15 169 0 127 -3 170 -12 173 -7 3 -15 -2 -18 -9z"/>
<path d="M27332 25163 c3 -497 5 -568 18 -568 13 0 15 69 15 565 0 531 -1 565
-18 568 -16 3 -17 -27 -15 -565z"/>
<path d="M27452 25233 c3 -435 5 -498 18 -498 13 0 15 63 18 498 2 493 2 497
-18 497 -20 0 -20 -4 -18 -497z"/>
<path d="M27827 25723 c-4 -3 -7 -130 -7 -280 0 -256 1 -274 18 -271 16 3 17
25 20 269 2 215 0 268 -11 278 -8 6 -17 8 -20 4z"/>
<path d="M27945 25678 c-3 -8 -4 -86 -3 -173 3 -134 5 -160 18 -160 13 0 15
25 15 169 0 127 -3 170 -12 173 -7 3 -15 -2 -18 -9z"/>
<path d="M27210 25096 c0 -556 3 -609 31 -565 5 8 8 263 6 569 -2 519 -3 555
-19 558 -17 3 -18 -29 -18 -562z"/>
<path d="M27096 25503 c-3 -3 -6 -222 -6 -485 0 -418 2 -478 15 -478 13 0 15
60 15 479 0 264 -4 482 -9 485 -4 3 -11 3 -15 -1z"/>
<path d="M26965 25277 c-3 -7 -4 -158 -3 -337 3 -281 5 -325 18 -325 13 0 15
45 18 338 2 298 0 337 -13 337 -9 0 -18 -6 -20 -13z"/>
<path d="M26842 24883 c3 -346 5 -398 18 -398 13 0 15 52 18 398 2 393 2 397
-18 397 -20 0 -20 -4 -18 -397z"/>
<path d="M26727 25123 c-4 -3 -7 -145 -7 -315 0 -289 1 -309 18 -306 16 3 17
27 20 304 2 244 0 303 -11 313 -8 6 -17 8 -20 4z"/>
<path d="M26606 25053 c-3 -3 -6 -145 -6 -315 0 -267 2 -308 15 -308 13 0 15
41 15 309 0 281 -4 334 -24 314z"/>
<path d="M26480 24670 c0 -189 2 -220 15 -220 13 0 15 31 15 220 0 189 -2 220
-15 220 -13 0 -15 -31 -15 -220z"/>
<path d="M26354 24807 c-2 -7 -3 -105 -2 -217 3 -186 5 -205 21 -208 16 -3 17
12 17 217 0 192 -2 221 -15 221 -9 0 -18 -6 -21 -13z"/>
<path d="M26235 24668 c-3 -8 -4 -75 -3 -149 3 -111 6 -134 18 -134 13 0 15
23 15 144 0 107 -3 145 -12 148 -7 3 -15 -2 -18 -9z"/>
<path d="M26115 24548 c-3 -8 -5 -53 -3 -99 2 -67 6 -84 18 -84 22 0 27 166 5
185 -12 10 -16 10 -20 -2z"/>
<path d="M25871 24526 c-8 -9 -11 -76 -9 -217 3 -185 5 -204 21 -207 16 -3 17
12 17 212 0 118 -4 217 -9 220 -5 3 -14 0 -20 -8z"/>
<path d="M25996 24533 c-3 -3 -6 -71 -6 -150 0 -120 2 -143 15 -143 13 0 15
23 15 144 0 132 -6 167 -24 149z"/>
<path d="M25625 24458 c-3 -7 -4 -139 -3 -293 3 -241 5 -280 18 -280 13 0 15
39 15 289 0 223 -3 290 -12 293 -7 3 -15 -1 -18 -9z"/>
<path d="M25745 24458 c-3 -7 -4 -106 -3 -218 3 -187 5 -205 21 -208 16 -3 17
10 15 214 -2 163 -6 218 -15 222 -7 2 -15 -2 -18 -10z"/>
<path d="M25507 24394 c-12 -13 -8 -572 4 -580 6 -3 15 0 20 7 5 8 8 140 6
293 -2 265 -6 304 -30 280z"/>
<path d="M25255 24377 c-3 -6 -4 -196 -3 -422 3 -381 4 -410 21 -413 16 -3 17
22 17 422 0 376 -2 426 -15 426 -9 0 -18 -6 -20 -13z"/>
<path d="M25385 24369 c-10 -26 -1 -674 10 -674 14 0 19 665 5 679 -6 6 -11 4
-15 -5z"/>
<path d="M24890 23756 c0 -329 4 -587 9 -590 29 -18 31 29 29 595 -3 537 -4
574 -20 577 -17 3 -18 -30 -18 -582z"/>
<path d="M25135 24308 c-3 -7 -4 -197 -3 -423 3 -382 4 -410 21 -413 16 -3 17
20 15 419 -2 327 -6 423 -15 427 -7 2 -15 -2 -18 -10z"/>
<path d="M25015 24298 c-3 -7 -4 -224 -3 -483 3 -410 5 -470 18 -470 13 0 15
60 15 479 0 375 -3 480 -12 483 -7 3 -15 -1 -18 -9z"/>
<path d="M24776 24163 c-3 -3 -6 -222 -6 -485 0 -418 2 -478 15 -478 13 0 15
60 15 479 0 264 -4 482 -9 485 -4 3 -11 3 -15 -1z"/>
<path d="M24647 23773 c-10 -10 -8 -306 2 -322 23 -36 31 5 31 165 0 130 -3
164 -13 164 -8 0 -17 -3 -20 -7z"/>
<path d="M23915 23758 c-3 -7 -4 -267 -3 -578 3 -494 5 -565 18 -565 13 0 15
70 15 574 0 450 -3 575 -12 578 -7 3 -15 -1 -18 -9z"/>
<path d="M24035 23758 c-3 -7 -4 -236 -3 -508 3 -462 4 -495 21 -498 16 -3 17
26 17 507 0 452 -2 511 -15 511 -9 0 -18 -6 -20 -12z"/>
<path d="M24525 23698 c-3 -8 -4 -83 -3 -168 3 -130 5 -155 18 -155 13 0 15
25 15 164 0 123 -3 165 -12 168 -7 3 -15 -2 -18 -9z"/>
<path d="M24287 23643 c-9 -8 -9 -478 0 -486 3 -4 12 -2 20 4 10 9 13 60 13
234 0 123 -3 230 -6 239 -7 17 -16 20 -27 9z"/>
<path d="M24402 23473 c3 -141 5 -168 18 -168 13 0 15 25 15 165 0 150 -2 165
-18 168 -16 3 -17 -8 -15 -165z"/>
<path d="M24162 23336 c2 -156 7 -246 13 -246 16 0 13 482 -3 488 -10 3 -12
-47 -10 -242z"/>
<path d="M23790 23120 c0 -320 1 -341 18 -338 16 3 17 27 17 338 0 311 -1 335
-17 338 -17 3 -18 -18 -18 -338z"/>
<path d="M23687 23274 c-12 -13 -8 -432 4 -440 24 -14 29 28 26 230 -2 197 -7
233 -30 210z"/>
<path d="M23567 23203 c-4 -3 -7 -105 -7 -225 0 -187 2 -218 15 -218 13 0 15
32 15 225 0 205 -3 238 -23 218z"/>
<path d="M23437 23053 c-4 -3 -7 -66 -7 -138 0 -99 3 -135 13 -144 8 -6 17 -8
20 -4 4 3 7 71 7 150 0 112 -3 143 -13 143 -8 0 -17 -3 -20 -7z"/>
<path d="M23315 22927 c-3 -7 -5 -49 -3 -93 3 -66 6 -79 21 -82 16 -3 18 5 15
89 -2 63 -7 94 -15 97 -7 2 -15 -3 -18 -11z"/>
<path d="M23182 22768 c2 -84 6 -103 18 -103 12 0 15 18 15 100 0 88 -2 100
-18 103 -16 3 -17 -5 -15 -100z"/>
<path d="M22944 22807 c-9 -25 1 -372 11 -370 14 4 19 383 5 383 -6 0 -13 -6
-16 -13z"/>
<path d="M22085 22788 c-3 -7 -4 -305 -3 -663 3 -570 5 -650 18 -650 13 0 15
80 15 659 0 518 -3 660 -12 663 -7 3 -15 -1 -18 -9z"/>
<path d="M22570 22415 c0 -363 1 -386 18 -383 16 3 17 29 17 383 0 354 -1 380
-17 383 -17 3 -18 -20 -18 -383z"/>
<path d="M23060 22701 c0 -62 4 -102 11 -107 21 -13 29 21 27 111 -3 76 -6 90
-20 93 -16 3 -18 -7 -18 -97z"/>
<path d="M22205 22758 c-3 -7 -4 -260 -3 -563 3 -514 4 -550 21 -553 16 -3 17
29 17 562 0 502 -2 566 -15 566 -9 0 -18 -6 -20 -12z"/>
<path d="M22697 22744 c-4 -4 -7 -119 -7 -254 0 -207 2 -250 15 -260 12 -10
16 -10 20 2 3 7 4 125 3 262 -3 236 -7 273 -31 250z"/>
<path d="M22816 22735 c-3 -9 -6 -92 -6 -185 0 -136 3 -170 15 -180 12 -10 16
-9 20 2 11 28 0 371 -11 375 -6 2 -14 -3 -18 -12z"/>
<path d="M22330 22275 c0 -407 2 -465 15 -465 13 0 15 58 15 465 0 407 -2 465
-15 465 -13 0 -15 -58 -15 -465z"/>
<path d="M21965 22717 c-3 -6 -4 -304 -3 -662 3 -570 5 -650 18 -650 13 0 15
81 18 656 2 585 0 657 -13 663 -9 3 -18 0 -20 -7z"/>
<path d="M22450 22345 c0 -363 1 -386 18 -383 16 3 17 29 17 383 0 354 -1 380
-17 383 -17 3 -18 -20 -18 -383z"/>
<path d="M21840 21996 c0 -546 3 -599 31 -555 5 8 8 259 6 559 -2 510 -3 545
-19 548 -17 3 -18 -28 -18 -552z"/>
<path d="M21722 21925 c2 -293 7 -456 13 -458 7 -1 11 157 13 456 2 403 0 457
-13 457 -13 0 -15 -53 -13 -455z"/>
<path d="M21595 22177 c-3 -7 -4 -158 -3 -337 3 -300 4 -325 21 -328 16 -3 17
18 17 337 0 300 -2 341 -15 341 -9 0 -18 -6 -20 -13z"/>
<path d="M21475 22107 c-3 -7 -4 -158 -3 -337 3 -281 5 -325 18 -325 13 0 15
45 18 338 2 298 0 337 -13 337 -9 0 -18 -6 -20 -13z"/>
<path d="M21355 21948 c-3 -7 -4 -119 -3 -248 3 -201 5 -235 18 -235 13 0 15
34 15 244 0 187 -3 245 -12 248 -7 3 -15 -1 -18 -9z"/>
<path d="M21234 21877 c-2 -7 -3 -118 -2 -246 2 -177 6 -235 16 -239 9 -3 12
51 12 247 0 166 -4 251 -10 251 -6 0 -13 -6 -16 -13z"/>
<path d="M21110 21570 c0 -118 2 -140 15 -140 13 0 15 22 15 140 0 118 -2 140
-15 140 -13 0 -15 -22 -15 -140z"/>
<path d="M20985 21587 c-3 -7 -5 -51 -3 -98 3 -71 6 -84 21 -87 16 -3 17 5 15
94 -2 67 -7 99 -15 102 -7 2 -15 -3 -18 -11z"/>
<path d="M38115 34868 c-3 -7 -4 -233 -3 -503 3 -428 5 -490 18 -490 13 0 15
62 15 499 0 390 -3 500 -12 503 -7 3 -15 -1 -18 -9z"/>
<path d="M37757 34853 c-4 -3 -7 -314 -7 -689 0 -673 2 -728 31 -683 5 8 9
316 9 685 0 550 -2 674 -13 683 -8 6 -17 8 -20 4z"/>
<path d="M37995 34798 c-3 -7 -4 -233 -3 -503 3 -428 5 -490 18 -490 13 0 15
62 15 499 0 390 -3 500 -12 503 -7 3 -15 -1 -18 -9z"/>
<path d="M35025 34548 c-57 -75 -265 -281 -365 -362 -218 -175 -534 -354 -785
-444 -130 -47 -360 -106 -500 -128 -142 -22 -425 -29 -570 -15 -401 40 -811
190 -1159 423 -143 95 -271 201 -407 337 l-127 126 -6 -65 c-3 -36 -6 -710 -6
-1499 0 -1264 2 -1432 15 -1427 8 3 191 107 407 232 578 334 967 559 1488 859
726 419 1143 660 1290 745 74 43 385 222 690 399 305 176 560 323 566 328 8 6
-9 84 -59 266 l-71 259 -65 -7 c-58 -6 -173 3 -266 21 -27 5 -34 0 -70 -48z"/>
<path d="M37631 34196 c-8 -9 -11 -49 -9 -112 3 -85 5 -99 21 -102 15 -3 17 7
17 107 0 109 -7 134 -29 107z"/>
<path d="M36527 34163 c-4 -3 -7 -320 -7 -703 0 -571 2 -700 13 -709 8 -6 17
-8 20 -4 4 3 7 325 7 715 0 583 -2 708 -13 708 -8 0 -17 -3 -20 -7z"/>
<path d="M37015 34148 c-3 -7 -4 -195 -3 -418 3 -352 5 -405 18 -405 13 0 15
53 15 414 0 323 -3 415 -12 418 -7 3 -15 -1 -18 -9z"/>
<path d="M37387 34154 c-4 -4 -7 -97 -7 -206 0 -192 1 -198 20 -198 20 0 20 5
18 202 -3 190 -8 225 -31 202z"/>
<path d="M36650 33530 c0 -577 1 -611 18 -608 16 3 17 40 17 608 0 568 -1 605
-17 608 -17 3 -18 -31 -18 -608z"/>
<path d="M37505 34128 c-3 -8 -4 -59 -3 -114 3 -85 5 -99 21 -102 16 -3 17 6
15 109 -2 79 -7 114 -15 117 -7 2 -15 -3 -18 -10z"/>
<path d="M36405 34088 c-3 -7 -4 -328 -3 -713 3 -614 5 -700 18 -700 13 0 15
87 18 713 2 635 0 712 -13 712 -9 0 -18 -6 -20 -12z"/>
<path d="M36770 33600 c0 -472 1 -501 18 -498 16 3 17 35 17 498 0 463 -1 495
-17 498 -17 3 -18 -26 -18 -498z"/>
<path d="M36895 34078 c-3 -7 -4 -195 -3 -418 3 -352 5 -405 18 -405 13 0 15
53 15 414 0 323 -3 415 -12 418 -7 3 -15 -1 -18 -9z"/>
<path d="M37135 34077 c-3 -7 -4 -131 -3 -277 3 -243 4 -265 21 -268 16 -3 17
15 17 277 0 246 -2 281 -15 281 -9 0 -18 -6 -20 -13z"/>
<path d="M37267 34084 c-10 -11 -8 -402 2 -408 26 -16 31 27 29 214 -3 182 -8
216 -31 194z"/>
<path d="M36285 33908 c-3 -7 -4 -278 -3 -603 3 -517 5 -590 18 -590 13 0 15
73 15 599 0 470 -3 600 -12 603 -7 3 -15 -1 -18 -9z"/>
<path d="M36162 33248 c3 -430 5 -493 18 -493 13 0 15 61 15 490 0 459 -1 490
-18 493 -16 3 -17 -24 -15 -490z"/>
<path d="M36042 33538 c-9 -9 -12 -108 -12 -365 0 -315 2 -354 16 -360 9 -3
20 0 25 8 5 8 9 170 9 360 0 276 -3 349 -13 358 -10 8 -17 7 -25 -1z"/>
<path d="M35915 33457 c-3 -6 -4 -170 -3 -362 3 -324 4 -350 21 -353 16 -3 17
19 17 362 0 322 -2 366 -15 366 -9 0 -18 -6 -20 -13z"/>
<path d="M40650 33170 c0 -253 1 -271 18 -268 16 3 17 24 17 268 0 244 -1 265
-17 268 -17 3 -18 -15 -18 -268z"/>
<path d="M40897 33404 c-4 -4 -7 -44 -7 -89 0 -61 4 -86 15 -95 22 -18 26 2
23 100 -3 76 -12 102 -31 84z"/>
<path d="M40775 33327 c-3 -7 -5 -52 -3 -98 2 -67 6 -84 18 -84 12 0 15 17 15
94 0 67 -4 96 -12 98 -7 3 -15 -2 -18 -10z"/>
<path d="M43085 32109 c-1171 -677 -2134 -1234 -2138 -1238 -5 -5 97 -69 225
-143 128 -74 1975 -1140 4103 -2368 2129 -1229 3895 -2243 3925 -2254 81 -28
230 -33 319 -11 85 21 -115 -93 2151 1224 965 561 1769 1033 1787 1050 66 63
65 149 -1 214 -18 18 -1277 750 -2797 1627 -1520 877 -3362 1940 -4094 2362
-731 423 -1334 768 -1340 768 -5 -1 -968 -554 -2140 -1231z m3904 -484 c171
-33 194 -45 1219 -632 542 -310 1007 -580 1033 -599 54 -40 116 -118 135 -172
40 -111 -1 -240 -104 -333 -71 -63 -2127 -1254 -2242 -1298 -143 -55 -216 -66
-430 -66 -211 0 -290 12 -420 62 -36 14 -514 282 -1064 597 -1079 617 -1080
617 -1132 730 -28 60 -33 166 -9 222 23 56 75 122 129 163 79 61 2111 1231
2201 1268 191 78 460 100 684 58z m3860 -2925 c24 -11 233 -129 464 -263 315
-182 425 -249 438 -272 15 -24 19 -51 19 -138 l0 -107 -32 -34 c-27 -28 -1121
-673 -1318 -777 -39 -21 -59 -24 -150 -24 -86 0 -112 4 -145 21 -147 74 -856
492 -882 520 l-33 34 0 107 c0 88 4 114 19 138 14 23 175 121 672 409 359 209
669 385 688 392 58 21 208 17 260 -6z"/>
<path d="M46098 31062 c-112 -156 -220 -304 -439 -602 -107 -146 -204 -279
-217 -297 l-22 -31 102 -60 c57 -33 180 -104 273 -157 1046 -603 1175 -679
1168 -685 -5 -4 -28 -12 -53 -19 -107 -31 -232 -116 -266 -182 -8 -16 -14 -48
-14 -73 0 -195 437 -239 680 -68 80 56 113 101 118 164 7 88 -7 100 -303 270
-804 463 -1275 736 -1282 742 -3 2 70 102 382 524 l199 271 31 -18 c16 -10 89
-52 160 -93 72 -41 234 -135 360 -208 337 -195 548 -316 655 -378 52 -29 122
-70 155 -90 l59 -36 -49 -12 c-75 -20 -188 -79 -235 -125 -109 -106 -88 -215
55 -281 45 -21 64 -23 195 -22 130 0 153 3 217 26 218 78 321 213 248 324 -21
32 24 5 -660 399 -170 98 -433 250 -705 407 -91 53 -291 168 -444 257 -154 88
-282 161 -285 161 -3 0 -41 -49 -83 -108z"/>
<path d="M40047 33314 c-4 -4 -7 -230 -7 -501 0 -466 1 -494 18 -491 16 3 17
35 17 497 0 475 -3 520 -28 495z"/>
<path d="M35797 33294 c-4 -4 -7 -124 -7 -266 0 -252 0 -258 20 -258 20 0 20
5 18 262 -3 248 -7 285 -31 262z"/>
<path d="M40165 33268 c-3 -7 -4 -182 -3 -388 3 -326 5 -375 18 -375 13 0 15
49 15 384 0 299 -3 385 -12 388 -7 3 -15 -1 -18 -9z"/>
<path d="M40530 33100 c0 -144 2 -170 15 -170 13 0 15 26 15 170 0 144 -2 170
-15 170 -13 0 -15 -26 -15 -170z"/>
<path d="M39795 33228 c-3 -13 -4 -268 -3 -568 3 -511 4 -545 21 -548 16 -3
17 27 15 564 -2 434 -6 568 -15 571 -7 3 -15 -6 -18 -19z"/>
<path d="M39920 32750 c0 -438 2 -500 15 -500 13 0 15 62 15 500 0 438 -2 500
-15 500 -13 0 -15 -62 -15 -500z"/>
<path d="M40285 33228 c-3 -7 -4 -132 -3 -278 3 -228 5 -265 18 -265 13 0 15
37 15 274 0 211 -3 275 -12 278 -7 3 -15 -1 -18 -9z"/>
<path d="M35670 32965 c0 -248 1 -266 18 -263 16 3 17 24 17 263 0 239 -1 260
-17 263 -17 3 -18 -15 -18 -263z"/>
<path d="M40410 33030 c0 -144 2 -170 15 -170 13 0 15 26 15 170 0 144 -2 170
-15 170 -13 0 -15 -26 -15 -170z"/>
<path d="M39675 33168 c-3 -7 -4 -263 -3 -568 3 -520 4 -555 21 -558 16 -3 17
27 15 564 -2 443 -6 568 -15 571 -7 3 -15 -1 -18 -9z"/>
<path d="M35557 33043 c-4 -3 -7 -73 -7 -155 0 -137 1 -149 18 -146 15 3 17
19 20 144 2 110 -1 144 -11 152 -8 7 -17 9 -20 5z"/>
<path d="M39555 33008 c-3 -7 -4 -224 -3 -483 3 -410 5 -470 18 -470 13 0 15
60 15 479 0 375 -3 480 -12 483 -7 3 -15 -1 -18 -9z"/>
<path d="M35305 32968 c-3 -7 -4 -108 -3 -223 3 -191 5 -210 21 -213 16 -3 17
11 15 219 -2 167 -6 223 -15 227 -7 2 -15 -2 -18 -10z"/>
<path d="M35427 32923 c-14 -13 -8 -190 6 -202 23 -18 27 -2 27 106 0 79 -3
103 -13 103 -8 0 -17 -3 -20 -7z"/>
<path d="M35067 32903 c-4 -3 -7 -136 -7 -295 0 -270 1 -289 18 -286 16 3 17
26 20 284 2 227 0 283 -11 293 -8 6 -17 8 -20 4z"/>
<path d="M35187 32904 c-4 -4 -7 -106 -7 -226 0 -212 1 -218 20 -218 20 0 20
5 18 222 -3 209 -8 245 -31 222z"/>
<path d="M34937 32833 c-9 -8 -9 -556 -1 -577 3 -9 12 -16 19 -16 7 0 16 7 19
16 3 9 6 136 6 284 0 148 -3 275 -6 284 -6 16 -26 21 -37 9z"/>
<path d="M39437 32803 c-9 -8 -9 -668 0 -676 3 -4 12 -2 20 4 10 9 13 76 13
329 0 175 -3 325 -6 334 -7 17 -16 20 -27 9z"/>
<path d="M34450 32259 c0 -509 1 -540 18 -537 16 3 17 37 20 518 1 283 0 525
-3 538 -3 12 -12 22 -20 22 -13 0 -15 -70 -15 -541z"/>
<path d="M39312 32398 c2 -260 7 -403 13 -403 6 0 11 143 13 403 2 354 0 402
-13 402 -13 0 -15 -48 -13 -402z"/>
<path d="M34815 32757 c-3 -7 -4 -140 -3 -297 3 -262 4 -285 21 -288 16 -3 17
16 17 297 0 264 -2 301 -15 301 -9 0 -18 -6 -20 -13z"/>
<path d="M34570 32330 c0 -396 1 -421 18 -418 16 3 17 31 17 418 0 387 -1 415
-17 418 -17 3 -18 -22 -18 -418z"/>
<path d="M34205 32718 c-3 -7 -4 -283 -3 -613 3 -526 5 -600 18 -600 13 0 15
76 18 613 2 545 0 612 -13 612 -9 0 -18 -6 -20 -12z"/>
<path d="M34325 32708 c-3 -13 -4 -255 -3 -538 3 -482 4 -515 21 -518 16 -3
17 26 15 534 -2 410 -6 538 -15 541 -7 3 -15 -6 -18 -19z"/>
<path d="M34695 32688 c-3 -7 -4 -141 -3 -298 3 -245 5 -285 18 -285 13 0 15
39 15 294 0 227 -3 295 -12 298 -7 3 -15 -1 -18 -9z"/>
<path d="M34082 32048 c3 -537 5 -613 18 -613 13 0 15 74 15 610 0 574 -1 610
-18 613 -16 3 -17 -29 -15 -610z"/>
<path d="M39186 32624 c-9 -25 -7 -587 3 -603 26 -41 31 8 31 310 0 257 -2
309 -14 309 -8 0 -17 -7 -20 -16z"/>
<path d="M39065 32558 c-3 -7 -4 -148 -3 -313 3 -259 5 -300 18 -300 13 0 15
41 15 309 0 239 -3 310 -12 313 -7 3 -15 -1 -18 -9z"/>
<path d="M33967 32494 c-10 -11 -8 -1032 2 -1038 29 -18 31 29 29 529 -3 488
-6 534 -31 509z"/>
<path d="M42869 32324 c-112 -64 -212 -123 -221 -132 -52 -44 7 -102 103 -102
50 0 66 6 180 71 308 176 309 177 309 209 0 42 -47 70 -116 70 -47 0 -68 -10
-255 -116z"/>
<path d="M38945 32398 c-3 -7 -4 -108 -3 -223 3 -179 5 -210 18 -210 13 0 15
31 15 219 0 167 -3 220 -12 223 -7 3 -15 -1 -18 -9z"/>
<path d="M38827 32333 c-12 -12 -8 -431 4 -439 23 -14 29 27 29 218 0 216 -5
250 -33 221z"/>
<path d="M33841 32266 c-8 -9 -11 -113 -9 -367 3 -346 3 -354 23 -354 20 0 20
8 23 356 2 293 0 358 -12 368 -10 9 -16 8 -25 -3z"/>
<path d="M33715 32258 c-3 -7 -4 -202 -3 -433 3 -366 5 -420 18 -420 13 0 15
54 15 429 0 335 -3 430 -12 433 -7 3 -15 -1 -18 -9z"/>
<path d="M38702 32045 c2 -88 7 -145 13 -145 6 0 11 57 13 145 2 126 0 145
-13 145 -13 0 -15 -19 -13 -145z"/>
<path d="M33590 31765 c0 -328 0 -335 20 -335 20 0 20 7 20 335 0 328 0 335
-20 335 -20 0 -20 -7 -20 -335z"/>
<path d="M38575 32057 c-3 -7 -5 -49 -3 -93 3 -66 6 -79 21 -82 16 -3 18 5 15
89 -2 63 -7 94 -15 97 -7 2 -15 -3 -18 -11z"/>
<path d="M38332 31833 c3 -186 5 -218 18 -218 13 0 15 31 15 215 0 197 -1 215
-18 218 -16 3 -17 -10 -15 -215z"/>
<path d="M38455 32038 c-3 -8 -4 -75 -3 -149 3 -111 6 -134 18 -134 13 0 15
23 15 144 0 107 -3 145 -12 148 -7 3 -15 -2 -18 -9z"/>
<path d="M33470 31696 c0 -184 4 -337 8 -340 29 -18 32 14 30 340 -3 304 -4
329 -20 332 -17 3 -18 -18 -18 -332z"/>
<path d="M38096 31983 c-3 -3 -6 -136 -6 -295 0 -249 2 -288 15 -288 13 0 15
39 15 289 0 263 -4 314 -24 294z"/>
<path d="M38212 31763 c2 -162 6 -217 16 -221 9 -3 12 45 12 217 0 191 -2 221
-15 221 -13 0 -15 -28 -13 -217z"/>
<path d="M37725 31897 c-3 -6 -4 -199 -3 -427 3 -361 5 -415 18 -415 13 0 15
53 18 405 1 223 0 415 -3 428 -6 24 -23 29 -30 9z"/>
<path d="M37965 31897 c-3 -7 -4 -136 -3 -287 3 -252 4 -275 21 -278 16 -3 17
16 17 287 0 255 -2 291 -15 291 -9 0 -18 -6 -20 -13z"/>
<path d="M37845 31878 c-3 -7 -4 -159 -3 -338 3 -281 5 -325 18 -325 13 0 15
44 15 334 0 259 -3 335 -12 338 -7 3 -15 -1 -18 -9z"/>
<path d="M33357 31863 c-12 -12 -8 -471 4 -479 24 -14 29 28 29 242 0 173 -3
224 -13 233 -8 6 -17 8 -20 4z"/>
<path d="M37355 31848 c-3 -7 -4 -272 -3 -588 3 -503 5 -575 18 -575 13 0 15
72 15 584 0 458 -3 585 -12 588 -7 3 -15 -1 -18 -9z"/>
<path d="M37605 31828 c-3 -7 -4 -199 -3 -427 2 -321 6 -415 16 -419 16 -5 18
843 2 853 -6 3 -12 0 -15 -7z"/>
<path d="M37482 31338 c2 -314 7 -483 13 -483 6 0 11 169 13 483 2 426 0 482
-13 482 -13 0 -15 -56 -13 -482z"/>
<path d="M33227 31783 c-10 -10 -8 -446 2 -462 5 -7 14 -10 20 -7 17 11 15
476 -2 476 -8 0 -17 -3 -20 -7z"/>
<path d="M37235 31668 c-3 -7 -4 -224 -3 -483 3 -410 5 -470 18 -470 13 0 15
60 15 479 0 375 -3 480 -12 483 -7 3 -15 -1 -18 -9z"/>
<path d="M33104 31627 c-2 -7 -3 -78 -2 -157 3 -121 5 -145 18 -145 13 0 15
25 18 158 2 137 0 157 -13 157 -9 0 -18 -6 -21 -13z"/>
<path d="M32987 31514 c-4 -4 -7 -52 -7 -106 0 -92 1 -98 20 -98 20 0 21 5 18
102 -3 94 -11 121 -31 102z"/>
<path d="M32742 31498 c-18 -18 -17 -441 1 -457 31 -25 37 8 37 225 0 242 -4
266 -38 232z"/>
<path d="M32860 31340 c0 -148 1 -161 18 -158 15 3 17 19 17 158 0 139 -2 155
-17 158 -17 3 -18 -10 -18 -158z"/>
<path d="M32495 31438 c-3 -7 -4 -150 -3 -318 3 -263 5 -305 18 -305 13 0 15
42 15 314 0 243 -3 315 -12 318 -7 3 -15 -1 -18 -9z"/>
<path d="M32615 31428 c-3 -7 -4 -115 -3 -238 3 -192 5 -225 18 -225 13 0 15
33 15 234 0 179 -3 235 -12 238 -7 3 -15 -1 -18 -9z"/>
<path d="M32125 31358 c-3 -13 -4 -219 -3 -458 3 -405 4 -435 21 -438 16 -3
17 24 17 457 0 401 -2 461 -15 461 -8 0 -17 -10 -20 -22z"/>
<path d="M32374 31367 c-2 -7 -3 -149 -2 -317 3 -263 5 -305 18 -305 13 0 15
42 18 311 2 274 0 312 -13 318 -9 3 -18 0 -21 -7z"/>
<path d="M32257 31353 c-4 -3 -7 -170 -7 -370 0 -342 1 -364 18 -361 16 3 17
29 20 348 1 190 0 355 -3 368 -5 22 -16 28 -28 15z"/>
<path d="M31762 30708 c3 -555 5 -633 18 -633 13 0 15 77 15 630 0 593 -1 630
-18 633 -16 3 -17 -30 -15 -630z"/>
<path d="M32005 31298 c-3 -7 -4 -213 -3 -458 3 -415 4 -445 21 -448 16 -3 17
22 15 454 -2 355 -6 458 -15 461 -7 3 -15 -1 -18 -9z"/>
<path d="M31887 31294 c-4 -4 -7 -238 -7 -521 0 -507 0 -513 20 -513 20 0 20
5 18 517 -3 496 -6 542 -31 517z"/>
<path d="M37117 31293 c-4 -3 -7 -80 -7 -170 0 -151 1 -164 18 -161 15 3 17
19 20 148 3 172 -3 211 -31 183z"/>
<path d="M36385 31279 c-10 -27 -1 -1154 10 -1152 14 4 19 1143 5 1157 -6 6
-11 4 -15 -5z"/>
<path d="M36507 31283 c-4 -3 -7 -233 -7 -509 0 -494 3 -547 31 -503 5 8 9
235 9 505 0 399 -3 494 -13 503 -8 6 -17 8 -20 4z"/>
<path d="M36996 31223 c-3 -3 -6 -80 -6 -170 0 -138 2 -163 15 -163 13 0 15
25 15 164 0 150 -5 187 -24 169z"/>
<path d="M31642 31148 c-18 -18 -17 -1011 1 -1027 35 -28 37 2 37 515 0 404
-3 504 -13 513 -10 8 -17 7 -25 -1z"/>
<path d="M36744 31147 c-2 -7 -3 -116 -2 -242 3 -210 5 -230 21 -233 16 -3 17
14 17 242 0 214 -2 246 -15 246 -9 0 -18 -6 -21 -13z"/>
<path d="M36872 31148 c-18 -18 -16 -312 1 -327 8 -6 17 -8 20 -4 10 9 8 331
-1 337 -5 3 -14 0 -20 -6z"/>
<path d="M36620 30845 c0 -229 1 -246 18 -243 16 3 17 23 17 243 0 220 -1 240
-17 243 -17 3 -18 -14 -18 -243z"/>
<path d="M36262 30968 c-14 -14 -17 -645 -3 -667 5 -7 14 -10 20 -7 13 9 16
672 3 680 -5 3 -14 0 -20 -6z"/>
<path d="M36144 30777 c-2 -7 -3 -105 -2 -217 3 -186 5 -205 21 -208 16 -3 17
12 17 217 0 192 -2 221 -15 221 -9 0 -18 -6 -21 -13z"/>
<path d="M30787 30764 c-4 -4 -7 -286 -7 -626 0 -612 0 -618 20 -618 20 0 20
5 18 622 -3 598 -5 647 -31 622z"/>
<path d="M30905 30748 c-3 -7 -4 -254 -3 -548 3 -468 5 -535 18 -535 13 0 15
69 18 548 2 487 0 547 -13 547 -9 0 -18 -6 -20 -12z"/>
<path d="M31514 30737 c-2 -7 -3 -89 -2 -182 3 -143 5 -170 18 -170 13 0 15
28 18 183 2 159 0 182 -13 182 -9 0 -18 -6 -21 -13z"/>
<path d="M36027 30714 c-4 -4 -7 -103 -7 -221 0 -207 1 -213 20 -213 20 0 20
5 18 217 -3 204 -8 240 -31 217z"/>
<path d="M31395 30668 c-3 -8 -4 -90 -3 -183 3 -143 5 -170 18 -170 13 0 15
27 15 179 0 135 -3 180 -12 183 -7 3 -15 -2 -18 -9z"/>
<path d="M31150 30355 c0 -248 1 -266 18 -263 16 3 17 24 17 263 0 239 -1 260
-17 263 -17 3 -18 -15 -18 -263z"/>
<path d="M31275 30598 c-3 -8 -4 -90 -3 -183 3 -143 5 -170 18 -170 13 0 15
27 15 179 0 135 -3 180 -12 183 -7 3 -15 -2 -18 -9z"/>
<path d="M35905 30568 c-3 -8 -4 -75 -3 -149 3 -111 6 -134 18 -134 13 0 15
23 15 144 0 107 -3 145 -12 148 -7 3 -15 -2 -18 -9z"/>
<path d="M31025 30537 c-3 -7 -4 -125 -3 -262 3 -229 4 -250 21 -253 16 -3 17
15 17 262 0 232 -2 266 -15 266 -9 0 -18 -6 -20 -13z"/>
<path d="M35784 30447 c-10 -28 1 -180 14 -185 9 -3 12 20 12 92 0 86 -12 129
-26 93z"/>
<path d="M30662 30073 c3 -319 5 -368 18 -368 13 0 15 47 15 365 0 340 -1 365
-18 368 -16 3 -17 -18 -15 -365z"/>
<path d="M35656 30383 c-3 -3 -6 -51 -6 -105 0 -80 3 -98 15 -98 12 0 15 18
15 99 0 91 -7 121 -24 104z"/>
<path d="M35405 30318 c-3 -8 -4 -92 -3 -188 3 -148 5 -175 18 -175 13 0 15
27 15 184 0 139 -3 185 -12 188 -7 3 -15 -1 -18 -9z"/>
<path d="M35040 29930 c0 -309 3 -391 13 -387 9 3 12 89 12 387 0 298 -3 384
-12 388 -10 3 -13 -79 -13 -388z"/>
<path d="M35525 30298 c-3 -13 -5 -59 -3 -103 3 -67 6 -80 21 -83 16 -3 17 5
15 99 -2 69 -7 104 -15 106 -7 3 -15 -6 -18 -19z"/>
<path d="M34552 29648 c2 -434 6 -663 13 -663 7 0 11 229 13 663 2 586 0 662
-13 662 -13 0 -15 -76 -13 -662z"/>
<path d="M34675 30278 c-3 -7 -4 -263 -3 -568 3 -486 5 -555 18 -555 13 0 15
68 18 545 1 300 0 555 -3 568 -6 24 -23 30 -30 10z"/>
<path d="M35160 30000 c0 -224 2 -260 15 -260 13 0 15 36 15 260 0 224 -2 260
-15 260 -13 0 -15 -36 -15 -260z"/>
<path d="M35282 30073 c3 -159 5 -188 18 -188 13 0 15 27 15 185 0 169 -2 185
-18 188 -16 3 -17 -9 -15 -185z"/>
<path d="M30557 30244 c-4 -4 -7 -113 -7 -241 0 -218 1 -234 18 -231 16 3 17
22 17 237 0 222 -4 258 -28 235z"/>
<path d="M34792 29788 c3 -404 5 -463 18 -463 13 0 15 59 18 463 2 458 2 462
-18 462 -20 0 -20 -4 -18 -462z"/>
<path d="M34915 30238 c-3 -7 -4 -182 -3 -388 3 -326 5 -375 18 -375 13 0 15
49 15 384 0 299 -3 385 -12 388 -7 3 -15 -1 -18 -9z"/>
<path d="M34426 30224 c-3 -9 -6 -303 -6 -654 0 -521 2 -640 13 -649 8 -6 17
-8 20 -4 4 3 7 303 7 665 0 556 -2 658 -14 658 -8 0 -17 -7 -20 -16z"/>
<path d="M30425 30158 c-3 -13 -4 -120 -3 -238 3 -207 4 -215 23 -215 19 0 20
8 23 224 2 217 -2 251 -29 251 -5 0 -11 -10 -14 -22z"/>
<path d="M34305 30058 c-3 -7 -4 -258 -3 -558 3 -511 4 -545 21 -548 16 -3 17
27 15 554 -2 435 -6 558 -15 561 -7 3 -15 -1 -18 -9z"/>
<path d="M30307 30024 c-4 -4 -7 -74 -7 -154 0 -118 3 -150 15 -160 23 -19 26
1 23 165 -3 139 -9 170 -31 149z"/>
<path d="M30185 29888 c-3 -8 -5 -55 -3 -104 2 -71 6 -89 18 -89 12 0 15 18
15 99 0 71 -4 101 -12 103 -7 3 -15 -2 -18 -9z"/>
<path d="M34185 29887 c-3 -6 -4 -212 -3 -457 3 -388 5 -445 18 -445 13 0 15
58 18 451 2 400 0 452 -13 458 -9 3 -18 0 -20 -7z"/>
<path d="M34067 29703 c-9 -8 -9 -668 0 -676 3 -4 12 -2 20 4 10 9 13 76 13
329 0 175 -3 325 -6 334 -7 17 -16 20 -27 9z"/>
<path d="M33945 29629 c-10 -26 -1 -674 10 -674 14 0 19 665 5 679 -6 6 -11 4
-15 -5z"/>
<path d="M33814 29457 c-2 -7 -3 -116 -2 -242 3 -210 5 -230 21 -233 16 -3 17
14 17 242 0 214 -2 246 -15 246 -9 0 -18 -6 -21 -13z"/>
<path d="M33694 29387 c-2 -7 -3 -116 -2 -242 3 -210 5 -230 21 -233 16 -3 17
14 17 242 0 214 -2 246 -15 246 -9 0 -18 -6 -21 -13z"/>
<path d="M33575 29218 c-3 -8 -4 -72 -3 -144 3 -107 6 -129 18 -129 13 0 15
22 15 139 0 103 -3 140 -12 143 -7 3 -15 -2 -18 -9z"/>
<path d="M33457 29113 c-12 -11 -8 -191 4 -199 20 -12 29 19 29 102 0 56 -4
85 -13 93 -8 6 -17 8 -20 4z"/>
<path d="M11203 28888 l-23 -11 0 -1629 0 -1630 33 20 c113 67 227 134 407
237 113 65 288 166 390 225 102 59 277 160 390 225 113 65 211 122 218 128 9
7 12 -42 12 -242 l0 -252 -161 -280 -161 -279 159 -248 158 -247 5 -922 5
-923 33 20 32 20 0 927 1 928 158 428 158 428 -56 32 c-31 18 -102 59 -158 91
l-103 58 0 293 0 294 -227 -131 c-378 -218 -776 -447 -999 -576 -116 -67 -215
-122 -220 -122 -5 0 -9 647 -9 1572 0 1039 -3 1572 -10 1574 -5 1 -20 -2 -32
-8z"/>
<path d="M10380 28611 l-25 -7 -3 -2559 -2 -2559 -29 -50 c-16 -28 -86 -150
-156 -271 -69 -121 -127 -223 -128 -226 -1 -3 69 -117 156 -253 l158 -246 0
-350 c0 -193 2 -350 5 -350 17 0 63 36 68 53 2 10 5 173 5 361 l0 342 156 423
c137 372 154 424 140 435 -8 6 -78 47 -155 91 -83 47 -140 86 -140 95 0 8 -1
1153 -3 2544 -1 1676 -5 2530 -12 2532 -5 1 -21 -1 -35 -5z"/>
<path d="M9515 28490 c-13 -25 -15 -120 -15 -720 0 -621 -2 -694 -16 -723 -9
-18 -82 -143 -161 -279 -79 -136 -146 -254 -149 -262 -3 -8 67 -127 160 -272
l166 -259 0 -622 0 -621 -137 -80 c-76 -43 -255 -146 -398 -229 -143 -83 -406
-234 -585 -337 -179 -104 -326 -189 -328 -191 -1 -1 -2 -535 -2 -1186 0 -651
-4 -1190 -8 -1196 -6 -9 -48 10 -153 70 -79 46 -285 164 -456 261 -172 98
-313 181 -313 184 0 4 0 342 -1 751 l0 745 78 81 c158 164 240 407 188 556
-29 81 -83 119 -167 119 -235 -1 -503 -399 -448 -664 15 -75 78 -145 131 -148
19 0 41 -2 49 -3 8 -1 34 4 58 11 l42 12 0 -753 0 -754 495 -282 494 -282 6
-41 c4 -23 5 -252 3 -509 -2 -257 -2 -467 0 -467 2 0 16 7 32 15 l30 16 0
1708 0 1709 178 103 c256 148 509 294 817 471 149 86 313 181 365 211 l95 55
5 708 5 709 148 394 c81 217 146 398 145 403 -2 5 -69 47 -148 93 l-145 84 -3
720 c-2 710 -2 721 -22 721 -11 0 -26 -12 -35 -30z"/>
<path d="M44255 28242 c-27 -16 -156 -89 -285 -164 -129 -74 -311 -179 -405
-233 -93 -54 -226 -130 -295 -170 -69 -40 -201 -116 -295 -170 -93 -54 -318
-184 -500 -288 -467 -269 -501 -288 -548 -299 -23 -5 -138 -29 -256 -54 -221
-46 -267 -62 -288 -105 -17 -32 -16 -98 1 -131 11 -20 11 -29 3 -36 -13 -10
-382 -224 -476 -275 -51 -28 -53 -31 -35 -44 45 -34 48 -33 150 26 54 31 178
103 275 159 l176 102 129 0 c192 1 198 5 312 190 66 108 24 78 437 315 269
154 519 299 695 400 204 118 518 299 795 458 143 82 301 173 350 202 50 28
112 64 138 79 l49 28 -31 19 c-39 24 -36 24 -96 -9z"/>
<path d="M44785 27731 c-206 -119 -385 -221 -1220 -696 -181 -103 -474 -270
-650 -370 -737 -419 -1263 -719 -1314 -748 -57 -32 -57 -36 -1 -67 11 -6 137
61 440 234 469 267 1112 633 2145 1221 374 213 731 416 793 452 l113 66 -31
18 c-17 11 -36 19 -43 18 -6 -1 -111 -58 -232 -128z"/>
<path d="M45585 27381 c-71 -43 -314 -187 -539 -320 l-409 -243 -186 -39
c-102 -22 -218 -46 -257 -54 -47 -10 -82 -25 -104 -43 -31 -26 -33 -33 -34
-89 0 -45 4 -67 17 -81 17 -19 14 -22 -140 -112 -87 -52 -212 -126 -278 -165
-66 -39 -244 -145 -395 -235 -151 -90 -329 -195 -395 -234 -66 -40 -215 -128
-332 -196 -117 -69 -212 -128 -213 -133 0 -4 15 -15 33 -23 l34 -16 109 65
c110 65 1042 618 1449 860 l219 130 111 -2 c115 -2 190 13 224 43 10 9 51 70
92 136 l74 120 558 331 c306 182 557 334 557 338 0 6 -54 41 -62 41 -1 -1 -61
-36 -133 -79z"/>
<path d="M36725 26727 c-27 -14 -194 -108 -370 -210 -216 -125 -325 -194 -336
-212 -19 -31 -15 -141 6 -163 6 -7 81 -53 165 -102 160 -93 204 -108 279 -95
44 7 717 389 761 431 22 21 25 33 25 90 0 60 -3 68 -30 93 -17 14 -93 62 -170
106 -133 76 -142 80 -210 83 -58 2 -79 -1 -120 -21z"/>
<path d="M37605 26221 c-69 -33 -679 -389 -702 -409 -20 -18 -23 -31 -23 -89
0 -40 5 -76 13 -86 10 -13 586 -354 702 -416 20 -11 56 -16 110 -16 l80 0 360
208 c198 115 366 216 373 225 19 25 16 146 -5 170 -10 11 -175 111 -368 223
l-350 203 -75 3 c-58 3 -84 -1 -115 -16z"/>
<path d="M35443 25986 c-70 -32 -699 -399 -715 -418 -14 -15 -18 -38 -18 -93
0 -56 4 -75 18 -87 32 -27 300 -179 334 -188 44 -13 96 -12 138 4 64 22 704
396 734 428 26 28 28 36 24 91 -6 76 -16 85 -203 192 -134 77 -142 80 -210 83
-45 1 -81 -3 -102 -12z"/>
<path d="M38708 25620 c-35 -9 -2348 -1337 -2378 -1366 -9 -9 -16 -40 -18 -82
-3 -55 -1 -72 15 -90 10 -12 177 -114 372 -227 365 -210 397 -225 477 -212 19
3 47 12 62 20 83 41 2311 1333 2330 1350 19 17 22 31 22 88 0 57 -4 72 -22 92
-19 20 -584 354 -694 410 -40 21 -119 28 -166 17z"/>
<path d="M36565 25611 c-40 -10 -41 -11 -405 -221 -173 -100 -326 -192 -340
-206 -22 -22 -25 -33 -25 -95 0 -64 3 -73 25 -91 39 -31 680 -400 720 -414 44
-17 107 -17 150 -2 18 6 193 103 387 216 277 160 357 210 365 231 17 44 5 129
-23 156 -35 34 -676 405 -728 421 -48 15 -79 16 -126 5z"/>
<path d="M34145 25237 c-69 -32 -701 -401 -717 -419 -25 -28 -26 -159 -2 -179
9 -7 84 -52 167 -101 163 -95 207 -108 286 -90 69 16 751 413 769 448 9 18 13
46 10 82 -6 70 -19 82 -203 187 -134 77 -142 80 -210 83 -43 1 -81 -3 -100
-11z"/>
<path d="M35484 24996 c-63 -28 -700 -399 -716 -418 -14 -15 -18 -38 -18 -89
0 -59 3 -73 23 -91 21 -20 619 -370 701 -411 31 -15 54 -18 110 -15 l71 4 344
199 c189 109 356 209 372 223 27 22 29 29 29 91 0 52 -4 72 -19 88 -20 21
-633 381 -705 414 -49 22 -146 25 -192 5z"/>
<path d="M39750 24996 c-54 -19 -1793 -1025 -1812 -1048 -14 -15 -18 -38 -18
-93 0 -56 4 -75 18 -87 9 -8 175 -106 367 -219 l350 -203 75 -4 c65 -3 81 0
120 21 139 76 1750 1009 1773 1027 25 20 27 27 27 94 0 42 -5 79 -12 88 -16
20 -679 407 -728 424 -45 17 -115 17 -160 0z"/>
<path d="M32851 24489 c-55 -22 -707 -403 -723 -421 -14 -15 -18 -38 -18 -88
0 -50 4 -73 18 -88 22 -25 291 -180 334 -192 44 -13 98 -13 137 1 66 23 736
417 749 441 8 14 11 46 9 82 -4 74 -15 84 -202 191 -134 77 -142 80 -210 82
-38 2 -81 -2 -94 -8z"/>
<path d="M34435 24381 c-16 -4 -43 -15 -60 -23 -33 -18 -638 -367 -672 -388
-31 -20 -43 -53 -43 -116 0 -47 4 -59 28 -81 38 -37 705 -419 743 -427 47 -9
92 -7 128 5 17 6 190 103 383 214 262 151 355 210 366 230 22 43 12 130 -19
160 -35 34 -689 411 -735 424 -43 12 -74 13 -119 2z"/>
<path d="M40780 24367 c-175 -93 -2260 -1304 -2279 -1323 -19 -18 -25 -36 -28
-81 -2 -35 1 -67 9 -82 8 -15 142 -98 372 -232 375 -217 401 -229 488 -215 28
5 385 205 1187 668 630 363 1155 669 1166 680 16 15 20 32 20 88 0 56 -4 73
-20 89 -11 11 -177 111 -370 223 l-350 203 -75 3 c-64 3 -82 0 -120 -21z"/>
<path d="M35995 24061 c-77 -35 -690 -393 -707 -413 -14 -15 -18 -38 -18 -89
0 -59 3 -73 23 -91 12 -11 177 -111 367 -222 l345 -201 85 0 85 0 340 196
c187 109 355 209 373 224 30 25 32 31 32 91 0 56 -3 67 -27 93 -26 27 -609
372 -698 412 -53 24 -147 24 -200 0z"/>
<path d="M37620 23767 c-57 -21 -703 -396 -727 -423 -30 -33 -33 -140 -5 -172
28 -32 704 -420 755 -432 83 -21 119 -6 484 204 186 107 350 204 366 216 25
20 27 27 27 95 0 68 -2 75 -29 97 -42 36 -685 408 -723 419 -45 12 -106 11
-148 -4z"/>
<path d="M41895 23771 c-40 -10 -41 -11 -405 -221 -173 -100 -326 -192 -340
-205 -19 -20 -25 -37 -28 -89 -4 -61 -3 -67 24 -92 42 -39 712 -423 752 -430
87 -17 113 -5 489 211 197 114 365 213 373 221 10 10 15 36 15 84 0 61 -3 73
-25 94 -35 35 -688 412 -736 425 -43 12 -74 13 -119 2z"/>
<path d="M33327 23749 c-46 -18 -700 -398 -724 -421 -20 -19 -23 -32 -23 -94
0 -67 2 -74 28 -94 15 -12 181 -111 370 -220 243 -140 356 -200 386 -204 42
-7 130 7 151 23 5 5 161 95 345 201 184 106 343 201 353 212 27 32 24 139 -5
172 -13 14 -180 116 -371 227 -347 201 -348 202 -415 205 -37 2 -80 -1 -95 -7z"/>
<path d="M31545 23736 c-68 -31 -711 -408 -722 -423 -20 -26 -17 -146 5 -171
9 -11 86 -60 171 -109 l155 -88 75 0 76 0 360 209 c198 114 367 214 375 222
11 10 15 36 15 85 0 66 -2 72 -30 97 -16 15 -93 63 -170 107 -134 77 -142 80
-210 83 -44 1 -81 -3 -100 -12z"/>
<path d="M34949 23450 c-56 -14 -742 -413 -756 -441 -7 -13 -13 -50 -13 -82 0
-51 4 -62 28 -84 30 -29 676 -406 724 -422 40 -14 114 -13 154 2 16 7 188 103
381 215 390 226 377 214 366 316 -4 38 -12 61 -27 74 -35 33 -693 410 -733
421 -44 12 -73 12 -124 1z"/>
<path d="M36514 23131 c-66 -30 -687 -391 -709 -412 -29 -28 -29 -150 0 -177
11 -11 178 -111 370 -223 l350 -204 85 0 85 0 350 203 c193 112 360 215 373
228 18 20 22 37 22 84 0 51 -4 64 -27 89 -27 27 -639 388 -709 417 -47 20
-141 17 -190 -5z"/>
<path d="M40787 23139 c-45 -18 -700 -398 -724 -422 -20 -18 -23 -31 -23 -93
0 -67 2 -74 28 -94 15 -12 181 -111 370 -220 363 -209 388 -220 473 -201 49
11 733 400 762 433 12 15 17 38 17 85 0 57 -3 68 -27 91 -16 15 -182 117 -371
226 -342 198 -343 199 -410 202 -37 2 -80 -1 -95 -7z"/>
<path d="M32240 23123 c-44 -17 -699 -399 -720 -419 -19 -19 -25 -36 -28 -87
-4 -56 -1 -67 19 -90 13 -14 182 -117 374 -228 337 -196 352 -203 412 -207 34
-2 76 1 93 7 42 14 709 399 735 423 16 15 20 31 20 89 0 63 -3 73 -25 93 -14
11 -181 111 -370 221 l-345 200 -75 2 c-41 1 -82 0 -90 -4z"/>
<path d="M30245 22986 c-66 -30 -708 -407 -721 -423 -21 -28 -18 -146 4 -171
9 -11 86 -60 171 -109 l155 -88 75 0 76 0 350 201 c193 111 362 213 378 227
22 21 27 34 27 75 0 89 -10 102 -128 172 -195 116 -226 130 -295 130 -34 -1
-75 -7 -92 -14z"/>
<path d="M38115 22826 c-100 -47 -681 -388 -702 -412 -30 -33 -33 -140 -5
-172 29 -34 711 -424 759 -434 80 -17 120 0 477 206 187 108 343 196 347 196
4 0 17 12 28 26 31 40 30 152 -1 182 -29 26 -671 401 -718 418 -56 21 -129 17
-185 -10z"/>
<path d="M33850 22821 c-40 -13 -724 -410 -737 -429 -8 -9 -13 -45 -13 -87 0
-57 4 -75 19 -89 16 -15 285 -173 610 -359 119 -69 126 -71 190 -71 36 0 77 6
91 13 121 64 709 408 723 423 22 26 24 134 2 165 -8 12 -175 115 -371 229
-355 206 -356 207 -423 210 -36 2 -77 0 -91 -5z"/>
<path d="M39765 22541 c-40 -10 -42 -11 -400 -218 -377 -218 -351 -202 -364
-230 -18 -38 -14 -128 7 -152 24 -30 719 -430 760 -437 87 -17 113 -5 489 211
197 114 365 213 373 221 11 10 15 35 15 84 0 61 -3 73 -25 94 -40 39 -697 415
-743 426 -48 11 -69 11 -112 1z"/>
<path d="M35462 22519 c-47 -14 -723 -405 -744 -431 -28 -32 -25 -139 5 -171
22 -25 665 -402 721 -424 43 -16 120 -16 161 1 52 22 697 396 723 419 19 17
22 31 22 88 0 56 -4 72 -22 92 -19 20 -579 352 -695 410 -40 21 -128 29 -171
16z"/>
<path d="M31173 22501 c-43 -11 -713 -398 -740 -428 -19 -20 -23 -36 -23 -92
0 -57 3 -71 23 -88 12 -11 180 -112 372 -224 l350 -204 75 0 75 0 355 204
c195 112 365 215 378 228 29 32 32 139 5 172 -15 17 -581 353 -695 412 -42 22
-129 32 -175 20z"/>
<path d="M28965 22243 c-31 -8 -697 -393 -727 -421 -25 -23 -28 -32 -28 -93 0
-49 5 -72 18 -87 9 -11 86 -60 171 -109 l155 -88 75 0 76 0 350 201 c193 111
362 213 378 227 22 21 27 34 27 75 0 89 -10 102 -128 172 -193 115 -227 130
-290 129 -31 -1 -66 -4 -77 -6z"/>
<path d="M37019 22196 c-126 -67 -677 -390 -693 -406 -27 -26 -35 -130 -13
-163 9 -14 173 -115 374 -233 345 -201 360 -208 420 -212 34 -2 77 1 94 7 63
22 730 413 746 438 21 32 12 138 -14 164 -20 20 -632 379 -698 410 -60 28
-160 26 -216 -5z"/>
<path d="M32753 22190 c-67 -28 -692 -396 -715 -421 -24 -25 -28 -38 -28 -90
0 -56 3 -63 33 -91 17 -17 185 -119 372 -227 l340 -196 80 0 80 0 355 204
c195 112 363 211 373 219 13 12 17 31 17 87 0 55 -4 78 -17 93 -10 12 -175
112 -368 224 l-350 203 -75 2 c-41 2 -85 -2 -97 -7z"/>
<path d="M38657 21909 c-46 -18 -700 -398 -724 -421 -20 -19 -23 -32 -23 -94
0 -67 2 -74 28 -94 15 -12 181 -111 370 -220 362 -209 388 -220 473 -201 49
11 733 400 762 433 27 32 24 139 -5 172 -13 14 -180 116 -371 227 -347 201
-349 202 -415 205 -37 2 -80 -1 -95 -7z"/>
<path d="M34375 21893 c-11 -3 -182 -98 -379 -211 -323 -186 -360 -211 -373
-242 -22 -50 -12 -126 18 -154 19 -18 624 -373 704 -414 35 -17 99 -23 142
-14 54 12 737 406 764 441 28 35 24 141 -6 170 -27 25 -682 404 -724 419 -34
12 -107 14 -146 5z"/>
<path d="M30063 21865 c-54 -23 -697 -396 -718 -416 -14 -14 -20 -36 -23 -82
-4 -60 -2 -66 24 -95 42 -44 698 -421 755 -433 30 -7 61 -6 92 1 47 10 694
374 751 422 22 19 30 35 33 74 10 101 15 96 -363 316 -186 108 -356 204 -376
212 -46 20 -132 20 -175 1z"/>
<path d="M35981 21589 c-49 -15 -712 -397 -738 -426 -19 -20 -23 -35 -23 -92
0 -57 3 -71 23 -88 29 -27 686 -407 727 -422 40 -13 94 -14 138 -2 38 11 706
394 740 424 19 17 22 31 22 88 0 57 -4 72 -22 92 -19 20 -583 353 -695 410
-40 21 -128 29 -172 16z"/>
<path d="M31695 21571 c-38 -10 -23 -1 -400 -219 -176 -101 -330 -194 -342
-205 -20 -18 -23 -31 -23 -92 0 -61 3 -74 23 -92 12 -12 180 -113 372 -225
l350 -203 75 0 75 0 350 201 c193 111 362 213 378 227 23 22 27 33 27 84 0 32
-6 69 -13 82 -11 22 -134 97 -572 349 -136 78 -168 92 -215 96 -30 3 -68 2
-85 -3z"/>
<path d="M12725 21346 c-388 -225 -3054 -1775 -3470 -2016 -444 -258 -809
-471 -813 -475 -1 -1 91 -56 205 -122 114 -66 1136 -656 2271 -1311 l2062
-1192 1913 1111 c1051 611 2013 1171 2137 1243 124 73 291 170 372 216 81 47
147 87 147 90 0 3 -156 95 -347 204 -191 110 -489 282 -662 382 -1994 1152
-3524 2034 -3529 2034 -3 0 -132 -74 -286 -164z m849 -1478 c182 -105 417
-240 521 -301 105 -60 264 -153 355 -205 158 -91 260 -150 635 -367 94 -54
200 -116 238 -137 37 -21 67 -42 67 -47 0 -4 -19 -18 -42 -31 -24 -12 -79 -44
-123 -70 -172 -100 -272 -158 -312 -180 l-41 -23 -124 71 c-67 38 -220 126
-338 194 -225 130 -279 162 -1155 667 -297 172 -544 316 -549 321 -10 10 -12
8 294 185 118 69 221 122 229 119 8 -3 164 -91 345 -196z m-1580 -752 c154
-41 452 -120 661 -176 989 -263 1238 -329 1605 -426 217 -58 401 -107 409
-110 11 -3 6 -10 -15 -23 -51 -31 -437 -254 -490 -283 l-51 -28 -267 81 -266
80 -83 -49 c-45 -27 -188 -110 -317 -185 -129 -74 -252 -145 -273 -157 l-37
-22 89 -97 c48 -53 111 -121 140 -152 l51 -57 -117 -68 c-65 -37 -170 -97
-233 -134 -171 -100 -218 -125 -223 -120 -2 3 -151 190 -332 415 -180 226
-488 609 -683 853 -299 373 -353 445 -341 456 8 7 93 58 189 113 96 55 198
114 225 131 28 17 56 31 64 31 7 1 140 -33 295 -73z"/>
<path d="M12090 18675 c0 -4 404 -448 479 -527 17 -18 -9 -32 409 210 57 33
61 37 40 44 -77 24 -918 278 -922 278 -4 0 -6 -2 -6 -5z"/>
<path d="M27665 21493 c-32 -8 -697 -393 -727 -422 -25 -22 -28 -31 -28 -92 0
-49 5 -72 18 -87 9 -11 86 -60 171 -109 l155 -88 75 0 76 0 355 204 c195 112
365 215 378 228 17 19 22 36 22 78 0 30 -5 65 -11 78 -11 24 -147 111 -287
184 -52 27 -74 33 -120 32 -31 -1 -66 -4 -77 -6z"/>
<path d="M37570 21283 c-37 -15 -1788 -1028 -1807 -1046 -20 -18 -23 -31 -23
-92 0 -61 3 -74 23 -92 12 -11 179 -112 370 -223 301 -174 355 -202 400 -207
29 -3 68 -1 88 5 40 11 1802 1023 1834 1054 16 15 20 32 20 89 0 63 -3 73 -25
92 -14 12 -181 112 -370 222 l-345 200 -75 2 c-41 1 -82 0 -90 -4z"/>
<path d="M33240 21243 c-140 -75 -674 -388 -691 -406 -15 -16 -19 -36 -19 -87
0 -56 4 -70 23 -88 25 -23 662 -396 717 -419 22 -10 57 -14 100 -11 64 4 70 7
425 211 198 115 366 216 373 225 19 25 16 145 -5 170 -10 11 -175 112 -368
223 l-350 204 -75 3 c-67 3 -81 1 -130 -25z"/>
<path d="M28955 21229 c-166 -90 -683 -394 -697 -411 -22 -25 -25 -145 -5
-170 13 -18 644 -388 716 -421 35 -15 59 -18 110 -15 64 5 75 10 396 195 182
105 348 204 370 220 38 27 40 32 43 87 2 33 -2 71 -8 86 -9 21 -89 73 -368
236 l-357 208 -80 3 c-67 3 -87 0 -120 -18z"/>
<path d="M34888 20960 c-34 -10 -706 -397 -732 -420 -12 -12 -20 -37 -23 -82
-5 -61 -4 -67 23 -95 42 -45 698 -422 755 -434 31 -7 61 -6 93 1 59 13 718
388 760 433 27 28 28 34 23 95 -3 45 -11 70 -23 82 -22 20 -646 383 -708 411
-43 19 -120 24 -168 9z"/>
<path d="M30575 20931 c-86 -39 -691 -393 -712 -417 -30 -33 -33 -140 -5 -172
9 -10 174 -110 365 -221 372 -215 406 -230 490 -212 41 10 633 341 740 415
l37 26 0 73 c0 43 -5 80 -12 90 -13 17 -641 386 -713 418 -52 24 -138 24 -190
0z"/>
<path d="M26357 20739 c-57 -22 -703 -400 -724 -425 -30 -33 -33 -140 -5 -172
9 -11 86 -60 171 -109 l155 -88 75 0 76 0 355 204 c195 112 365 214 378 228
17 19 22 36 22 79 0 87 -11 99 -186 199 -150 85 -160 90 -223 92 -36 1 -79 -2
-94 -8z"/>
<path d="M32215 20641 c-38 -10 -23 -1 -400 -218 -176 -102 -331 -195 -344
-208 -17 -16 -25 -38 -29 -74 -9 -96 -18 -88 383 -321 321 -187 370 -212 418
-217 32 -3 70 0 92 7 51 17 726 406 748 432 21 25 23 117 3 156 -11 20 -109
82 -366 231 -194 112 -369 207 -389 212 -42 10 -74 10 -116 0z"/>
<path d="M27913 20619 c-35 -10 -718 -401 -743 -425 -9 -9 -16 -40 -18 -84 -4
-65 -3 -70 24 -96 33 -30 671 -401 724 -420 45 -17 105 -17 150 -1 52 19 714
404 736 428 14 16 19 36 19 85 0 55 -4 67 -25 88 -36 35 -676 406 -729 422
-50 16 -91 17 -138 3z"/>
<path d="M33784 20326 c-70 -31 -700 -399 -716 -418 -22 -25 -25 -145 -5 -171
19 -25 717 -426 754 -433 19 -4 57 -4 86 -2 46 4 94 29 402 207 192 111 360
212 372 223 20 18 23 32 23 89 0 49 -5 72 -17 87 -10 11 -175 111 -368 223
l-350 203 -75 3 c-49 2 -86 -2 -106 -11z"/>
<path d="M29480 20302 c-77 -40 -657 -377 -687 -399 -32 -24 -33 -25 -33 -103
0 -70 2 -81 23 -95 12 -9 177 -107 367 -218 l345 -201 80 -1 c54 0 90 5 110
16 135 71 685 396 703 415 18 20 22 37 22 84 0 51 -4 64 -27 89 -24 25 -560
343 -690 410 -55 27 -163 29 -213 3z"/>
<path d="M35385 20021 c-78 -36 -3960 -2282 -3972 -2298 -8 -10 -13 -47 -13
-89 0 -71 1 -74 33 -97 17 -13 181 -110 362 -215 347 -201 388 -218 469 -203
32 6 249 126 748 414 387 223 1272 734 1968 1135 696 401 1278 740 1294 754
22 19 30 35 33 74 10 101 15 96 -364 316 -187 109 -356 204 -376 213 -49 20
-133 19 -182 -4z"/>
<path d="M31085 19996 c-100 -47 -681 -387 -702 -412 -30 -33 -33 -140 -5
-172 29 -34 707 -421 756 -432 85 -19 118 -5 491 210 193 111 358 211 368 222
12 15 17 38 17 87 0 61 -3 70 -27 93 -29 26 -651 390 -709 414 -51 22 -131 17
-189 -10z"/>
<path d="M25035 19977 c-108 -52 -681 -389 -702 -413 -30 -33 -33 -140 -5
-172 9 -11 86 -60 171 -108 140 -80 160 -89 215 -92 40 -3 74 1 97 11 68 28
704 399 727 424 17 19 22 36 22 79 0 87 -11 99 -186 199 -148 85 -161 90 -223
93 -54 2 -75 -2 -116 -21z"/>
<path d="M26810 19987 c-54 -22 -713 -406 -727 -424 -8 -10 -13 -47 -13 -88 0
-56 4 -75 18 -87 9 -9 173 -106 363 -217 238 -138 361 -204 392 -210 90 -16
114 -6 488 210 195 112 362 212 371 222 14 13 18 33 18 83 0 58 -3 69 -27 93
-16 14 -183 116 -373 226 -343 199 -345 200 -410 202 -38 2 -80 -3 -100 -10z"/>
<path d="M32729 19711 c-36 -11 -37 -12 -411 -228 -370 -213 -358 -203 -358
-303 0 -31 6 -55 18 -68 9 -11 176 -113 371 -226 378 -219 401 -229 490 -208
62 14 750 412 767 444 16 28 18 94 4 134 -12 34 -19 38 -430 277 -325 188
-365 204 -451 178z"/>
<path d="M28425 19686 c-54 -17 -715 -401 -737 -427 -13 -15 -18 -39 -18 -84
0 -45 5 -69 18 -84 15 -18 209 -134 608 -363 136 -77 195 -92 269 -66 48 17
701 392 733 421 19 18 22 31 22 92 0 61 -3 74 -22 92 -37 33 -693 411 -735
422 -49 14 -88 13 -138 -3z"/>
<path d="M30015 19380 c-45 -18 -701 -402 -720 -421 -29 -28 -29 -150 0 -177
11 -11 177 -110 370 -222 332 -193 353 -203 411 -208 34 -2 77 0 94 7 62 21
731 414 747 438 24 36 12 139 -19 168 -25 24 -648 388 -704 411 -36 15 -147
18 -179 4z"/>
<path d="M25722 19360 c-62 -25 -705 -405 -722 -427 -30 -38 -28 -133 3 -167
12 -13 180 -116 372 -228 l350 -203 80 0 80 0 350 201 c193 111 360 211 373
222 19 18 22 31 22 96 0 73 -1 76 -32 99 -42 31 -653 386 -695 403 -36 16
-146 18 -181 4z"/>
<path d="M23744 19232 c-90 -43 -691 -395 -711 -418 -30 -33 -33 -140 -5 -172
9 -11 86 -60 171 -108 139 -80 159 -89 215 -92 40 -3 74 1 97 11 69 29 704
399 727 423 17 20 22 37 22 82 0 31 -6 68 -13 80 -7 14 -76 61 -171 115 -151
87 -162 92 -225 95 -49 2 -77 -2 -107 -16z"/>
<path d="M31626 19078 c-44 -16 -696 -394 -722 -419 -21 -19 -24 -32 -24 -90
0 -49 5 -72 18 -87 29 -34 704 -420 754 -431 46 -11 108 -6 143 12 83 41 704
404 718 419 27 32 24 139 -5 172 -22 24 -615 376 -703 417 -44 21 -132 24
-179 7z"/>
<path d="M27331 19060 c-13 -6 -181 -101 -374 -213 -391 -225 -384 -220 -374
-321 3 -39 11 -55 33 -74 16 -13 183 -113 371 -222 363 -209 385 -219 473
-199 48 11 706 384 753 428 27 24 29 30 25 92 -2 37 -10 74 -17 83 -7 9 -173
109 -368 223 l-356 206 -71 4 c-39 1 -82 -2 -95 -7z"/>
<path d="M28950 18758 c-48 -14 -710 -395 -737 -425 -19 -20 -23 -36 -23 -89
0 -58 3 -68 28 -91 15 -14 178 -114 362 -220 359 -208 399 -226 482 -207 43
10 711 388 756 427 19 17 22 31 22 88 0 56 -4 72 -22 93 -29 31 -686 412 -736
425 -45 13 -85 13 -132 -1z"/>
<path d="M24649 18736 c-47 -16 -697 -391 -726 -419 -20 -18 -23 -31 -23 -92
0 -61 3 -74 23 -92 46 -42 702 -414 750 -425 34 -8 60 -8 95 0 54 12 734 399
765 434 27 32 24 139 -5 171 -26 28 -671 403 -727 423 -46 17 -106 17 -152 0z"/>
<path d="M51580 18650 c-78 -16 -131 -40 -295 -134 -253 -144 -346 -251 -410
-471 -98 -338 -21 -809 206 -1264 251 -505 638 -901 1034 -1060 213 -85 418
-92 579 -18 126 58 345 197 406 259 70 71 146 214 174 328 82 334 7 787 -199
1208 -89 183 -162 304 -273 452 -100 134 -322 360 -436 445 -151 112 -317 196
-465 236 -86 23 -253 33 -321 19z"/>
<path d="M30540 18453 c-37 -14 -698 -398 -719 -419 -32 -30 -42 -130 -18
-167 9 -14 173 -116 374 -233 l358 -209 80 0 80 0 355 204 c195 112 364 213
375 223 16 15 20 31 20 88 0 61 -3 72 -25 93 -26 25 -649 389 -706 413 -32 14
-144 18 -174 7z"/>
<path d="M26225 18422 c-86 -42 -1239 -713 -1251 -730 -21 -27 -18 -145 4
-170 31 -35 708 -422 755 -430 96 -18 89 -22 759 365 348 200 639 372 646 381
19 25 16 145 -5 170 -10 12 -175 112 -368 224 l-350 203 -75 3 c-57 2 -84 -2
-115 -16z"/>
<path d="M16790 16205 c-1856 -1080 -3379 -1965 -3385 -1968 -7 -2 -14 -1309
-22 -3858 -7 -2120 -12 -3886 -10 -3925 l2 -71 3391 1971 3391 1970 6 2051 c4
1127 10 2893 14 3923 3 1118 2 1872 -3 1871 -5 0 -1528 -884 -3384 -1964z
m2890 1483 l0 -93 -71 -40 c-39 -22 -75 -41 -80 -43 -5 -2 -9 37 -9 87 l0 91
77 45 c43 25 79 45 80 45 2 0 3 -42 3 -92z m-750 -436 l0 -88 -80 -47 -80 -46
0 93 0 94 68 40 c37 22 73 40 80 41 9 1 12 -23 12 -87z m750 -32 l0 -89 -72
-42 c-40 -23 -76 -44 -80 -46 -5 -2 -8 38 -8 89 l0 93 73 42 c39 23 75 42 80
42 4 1 7 -39 7 -89z m-380 -219 l0 -89 -72 -42 c-40 -24 -76 -45 -80 -47 -5
-2 -8 38 -8 89 l0 93 73 42 c39 24 75 43 80 43 4 0 7 -40 7 -89z m-1130 -184
l0 -93 -74 -42 c-40 -23 -76 -42 -80 -42 -3 0 -6 40 -6 89 l0 89 78 46 c42 25
78 45 80 46 1 0 2 -42 2 -93z m758 -34 l-3 -87 -70 -42 c-38 -24 -74 -43 -78
-43 -4 -1 -6 40 -5 91 l3 92 65 38 c36 21 71 38 78 38 10 0 12 -21 10 -87z
m752 -26 l0 -93 -80 -47 -80 -46 0 93 0 94 78 46 c42 25 78 45 80 46 1 0 2
-42 2 -93z m-1890 -162 l0 -84 -69 -41 c-38 -22 -72 -40 -76 -40 -3 0 -4 39
-3 87 l3 87 65 38 c36 21 68 38 73 38 4 0 7 -38 7 -85z m1510 -58 l0 -93 -74
-42 c-40 -23 -76 -42 -80 -42 -3 0 -6 40 -6 89 l0 89 78 46 c42 25 78 45 80
46 1 0 2 -42 2 -93z m758 -34 l-3 -86 -70 -43 c-38 -24 -73 -44 -77 -44 -5 0
-8 40 -8 89 l0 90 68 40 c37 23 73 41 80 41 10 0 12 -21 10 -87z m-2648 -123
l0 -89 -69 -41 c-38 -22 -72 -40 -76 -40 -3 0 -4 39 -3 87 l3 87 70 42 c39 23
71 43 73 43 1 1 2 -39 2 -89z m-370 -218 c0 -82 -2 -90 -22 -100 -13 -6 -47
-25 -75 -42 l-53 -30 0 89 0 89 68 40 c37 22 70 41 75 41 4 1 7 -39 7 -87z
m743 -122 c-4 -4 -38 -24 -75 -45 l-68 -37 0 89 0 88 73 42 72 42 3 -86 c2
-47 -1 -89 -5 -93z m-1115 -92 l-3 -92 -75 -43 c-41 -24 -78 -43 -82 -43 -5 0
-8 40 -8 89 l0 89 78 45 c42 25 81 45 85 46 4 1 6 -40 5 -91z m726 -133 c-10
-7 -44 -27 -76 -44 l-58 -32 0 88 0 89 73 41 72 42 3 -86 c2 -71 0 -87 -14
-98z m776 71 l0 -94 -71 -41 c-39 -23 -75 -41 -80 -41 -5 0 -9 39 -9 88 l0 87
78 47 c42 25 78 47 80 47 1 1 2 -41 2 -93z m1510 -65 l0 -89 -72 -42 c-40 -24
-76 -45 -80 -47 -5 -2 -8 38 -8 89 l0 93 73 42 c39 24 75 43 80 43 4 0 7 -40
7 -89z m-2640 -121 l0 -89 -69 -41 c-38 -22 -72 -40 -76 -40 -3 0 -4 39 -3 87
l3 87 70 42 c39 23 71 43 73 43 1 1 2 -39 2 -89z m750 -38 l0 -88 -32 -17
c-18 -8 -52 -28 -75 -42 l-43 -26 0 90 0 89 68 40 c37 22 70 41 75 41 4 1 7
-39 7 -87z m1510 -61 l0 -89 -71 -41 c-39 -23 -75 -41 -80 -41 -5 0 -9 40 -9
88 l0 88 73 42 c39 23 75 42 80 42 4 0 7 -40 7 -89z m-3390 -91 l0 -89 -72
-42 c-40 -23 -76 -44 -80 -46 -5 -2 -8 38 -8 89 l0 93 73 42 c39 23 75 42 80
42 4 1 7 -39 7 -89z m760 -29 l0 -88 -80 -47 c-44 -25 -82 -46 -85 -46 -3 0
-5 40 -5 90 l0 90 77 45 c43 25 81 45 85 45 5 0 8 -40 8 -89z m740 -38 l0 -88
-75 -42 -75 -41 0 88 0 88 68 40 c37 23 70 41 75 42 4 0 7 -39 7 -87z m760
-25 l0 -93 -75 -42 c-41 -24 -77 -43 -80 -43 -3 0 -5 40 -5 90 l0 89 78 45
c42 25 78 46 80 46 1 0 2 -42 2 -92z m1510 -61 l0 -93 -74 -42 c-40 -23 -76
-42 -80 -42 -3 0 -6 40 -6 89 l0 89 78 46 c42 25 78 45 80 46 1 0 2 -42 2 -93z
m-4142 -64 l-3 -88 -70 -42 c-38 -23 -76 -43 -83 -43 -10 0 -12 21 -10 87 l3
88 70 42 c39 23 76 43 83 43 10 0 12 -21 10 -87z m752 -32 l0 -89 -80 -45 -80
-46 0 94 0 93 73 41 c39 22 75 41 80 41 4 0 7 -40 7 -89z m734 -126 c-10 -7
-44 -27 -76 -44 l-58 -32 0 88 0 89 73 41 72 42 3 -86 c2 -71 0 -87 -14 -98z
m766 65 l0 -89 -69 -41 c-38 -22 -72 -40 -76 -40 -3 0 -4 39 -3 87 l3 87 70
42 c39 24 71 43 73 43 1 1 2 -39 2 -89z m-2630 -122 l0 -93 -73 -40 c-39 -22
-75 -42 -80 -43 -4 -2 -6 38 -5 89 l3 93 75 43 c41 24 76 43 78 43 1 0 2 -42
2 -92z m750 -31 l0 -93 -73 -42 c-40 -23 -76 -42 -80 -42 -4 0 -7 40 -7 89 l0
88 78 46 c42 25 78 46 80 46 1 1 2 -41 2 -92z m758 -34 l-3 -88 -70 -42 c-38
-23 -76 -43 -83 -43 -10 0 -12 21 -10 87 l3 88 70 42 c39 23 76 43 83 43 10 0
12 -21 10 -87z m742 -32 l0 -89 -69 -41 c-38 -22 -72 -41 -75 -41 -3 0 -6 39
-6 88 l0 87 73 41 c39 23 73 42 75 43 1 1 2 -39 2 -88z m1520 -60 l0 -89 -47
-27 c-27 -15 -63 -36 -80 -47 l-33 -20 0 94 0 94 73 42 c39 23 75 42 80 42 4
0 7 -40 7 -89z m750 -35 l0 -84 -47 -27 c-27 -15 -63 -36 -80 -47 l-33 -20 0
90 0 90 68 40 c37 22 73 41 80 41 9 1 12 -22 12 -83z m-4902 -28 l-3 -92 -70
-42 c-38 -24 -74 -43 -78 -43 -4 -1 -6 40 -5 91 l3 92 70 42 c39 23 74 43 78
43 4 1 6 -40 5 -91z m762 -28 l0 -89 -69 -41 c-108 -63 -101 -66 -101 38 l0
90 78 46 c42 25 80 45 85 46 4 0 7 -40 7 -90z m750 -32 l0 -93 -71 -40 c-39
-22 -75 -41 -80 -43 -5 -2 -9 37 -9 87 l0 91 77 45 c43 25 79 45 80 45 2 0 3
-42 3 -92z m750 -35 l0 -88 -75 -42 -75 -41 0 88 0 88 68 40 c37 23 70 41 75
42 4 0 7 -39 7 -87z m734 -128 c-10 -7 -44 -27 -76 -44 l-58 -32 0 88 0 89 73
41 72 42 3 -86 c2 -71 0 -87 -14 -98z m776 66 l0 -89 -47 -27 c-27 -15 -63
-36 -80 -47 l-33 -20 0 94 0 94 73 42 c39 23 75 42 80 42 4 0 7 -40 7 -89z
m750 -30 l0 -89 -67 -39 c-38 -21 -71 -39 -75 -41 -5 -2 -8 36 -8 85 l0 88 73
42 c39 23 73 42 75 42 1 1 2 -39 2 -88z m-4902 -33 l-3 -91 -73 -43 c-52 -31
-74 -40 -78 -30 -3 7 -4 48 -2 91 l3 79 70 42 c39 24 74 43 78 43 4 1 6 -40 5
-91z m762 -28 l0 -89 -72 -42 c-40 -23 -76 -44 -80 -46 -5 -2 -8 38 -8 89 l0
93 73 42 c39 23 75 42 80 42 4 1 7 -39 7 -89z m750 -32 l0 -93 -73 -40 c-39
-22 -75 -42 -80 -43 -4 -2 -6 38 -5 89 l3 93 75 43 c41 24 76 43 78 43 1 0 2
-42 2 -92z m760 -28 l0 -89 -69 -41 c-108 -63 -101 -66 -101 38 l0 90 78 46
c42 25 80 45 85 46 4 0 7 -40 7 -90z m1500 -64 l0 -95 -74 -40 c-40 -23 -76
-41 -80 -41 -3 0 -6 40 -6 89 l0 89 78 45 c42 25 78 45 80 46 1 1 2 -41 2 -93z
m760 -33 l0 -88 -74 -42 c-40 -24 -76 -43 -79 -43 -4 0 -7 40 -7 89 l0 89 68
40 c37 23 73 41 80 42 9 0 12 -24 12 -87z m750 -30 l0 -88 -75 -42 c-41 -24
-77 -43 -80 -43 -3 0 -4 39 -3 87 l3 87 70 42 c39 23 73 43 78 43 4 1 7 -38 7
-86z m-4140 -61 l0 -88 -80 -47 c-59 -34 -82 -43 -86 -33 -3 7 -4 48 -2 91 l3
79 70 42 c39 23 76 43 83 43 9 1 12 -23 12 -87z m3010 -124 l0 -93 -75 -42
c-41 -24 -77 -43 -80 -43 -3 0 -5 40 -5 90 l0 89 78 45 c42 25 78 46 80 46 1
0 2 -42 2 -92z m-4150 -62 l0 -94 -71 -41 c-39 -23 -75 -41 -80 -41 -5 0 -9
39 -9 88 l0 87 78 47 c42 25 78 47 80 47 1 1 2 -41 2 -93z m5660 -4 l0 -88
-74 -42 c-40 -23 -76 -42 -80 -42 -3 0 -6 40 -6 89 l0 89 68 40 c37 22 73 41
80 41 9 1 12 -23 12 -87z m-4150 -61 l0 -89 -72 -42 c-40 -24 -76 -45 -80 -47
-5 -2 -8 38 -8 89 l0 93 73 42 c39 24 75 43 80 43 4 0 7 -40 7 -89z m760 -30
l0 -90 -77 -43 c-43 -24 -81 -45 -86 -46 -4 -2 -6 38 -5 89 l3 93 75 43 c41
24 78 43 83 43 4 0 7 -40 7 -89z m2260 -90 c0 -99 5 -92 -92 -145 l-68 -38 0
94 0 93 73 41 c39 23 75 42 80 43 4 1 7 -39 7 -88z m750 -33 l0 -93 -74 -42
c-40 -24 -76 -43 -79 -43 -4 0 -7 40 -7 89 l0 89 78 46 c42 25 78 46 80 46 1
0 2 -42 2 -92z m-4900 -31 l0 -93 -74 -42 c-40 -23 -76 -42 -80 -42 -3 0 -6
40 -6 89 l0 89 78 46 c42 25 78 45 80 46 1 0 2 -42 2 -93z m758 -34 l-3 -87
-70 -42 c-38 -24 -76 -43 -82 -43 -10 -1 -13 23 -13 87 l0 88 73 42 c39 23 78
42 85 42 10 0 12 -21 10 -87z m3762 -155 l0 -93 -75 -42 c-41 -24 -77 -43 -80
-43 -3 0 -5 40 -5 90 l0 89 78 45 c42 25 78 46 80 46 1 0 2 -42 2 -92z m-4900
-30 l0 -93 -75 -42 c-41 -24 -77 -43 -80 -43 -3 0 -5 40 -5 90 l0 89 78 45
c42 25 78 46 80 46 1 0 2 -42 2 -92z m5658 0 l-3 -91 -73 -44 c-41 -24 -76
-43 -78 -43 -3 0 -3 41 -2 92 l3 92 70 42 c39 24 74 43 78 43 4 1 6 -40 5 -91z
m-4148 -61 l0 -93 -74 -42 c-40 -23 -76 -42 -80 -42 -3 0 -6 40 -6 89 l0 89
78 46 c42 25 78 45 80 46 1 0 2 -42 2 -93z m758 -34 l-3 -86 -70 -43 c-38 -24
-76 -44 -82 -44 -10 0 -13 24 -13 88 l0 87 73 42 c39 24 78 43 85 43 10 0 12
-21 10 -87z m752 -32 l0 -89 -80 -45 -80 -46 0 94 0 93 73 41 c39 22 75 41 80
41 4 0 7 -40 7 -89z m750 -31 l0 -89 -72 -42 c-40 -23 -76 -44 -80 -46 -5 -2
-8 38 -8 89 l0 93 73 42 c39 23 75 42 80 42 4 1 7 -39 7 -89z m1510 -59 c0
-99 5 -92 -92 -145 l-68 -38 0 94 0 93 73 41 c39 23 75 42 80 43 4 1 7 -39 7
-88z m-4900 -30 c0 -99 5 -92 -93 -146 l-68 -37 3 93 3 93 70 42 c39 24 73 43
78 43 4 1 7 -39 7 -88z m760 -30 l0 -89 -78 -46 c-43 -25 -82 -46 -85 -46 -4
0 -7 40 -7 89 l0 89 78 46 c42 25 80 46 85 46 4 0 7 -40 7 -89z m746 -116 c-4
-11 -140 -95 -152 -95 -3 0 -3 41 -2 92 l3 92 75 43 75 43 3 -82 c2 -45 1 -87
-2 -93z m754 52 l0 -93 -74 -42 c-40 -23 -76 -42 -80 -42 -3 0 -6 40 -6 89 l0
89 78 46 c42 25 78 45 80 46 1 0 2 -42 2 -93z m758 -34 l-3 -88 -70 -42 c-38
-23 -73 -43 -77 -43 -5 0 -8 40 -8 90 l0 89 68 40 c37 22 73 40 80 41 10 0 12
-21 10 -87z m1502 -62 l0 -90 -57 -34 c-32 -19 -68 -40 -80 -46 l-23 -12 0 93
1 93 72 42 c40 23 75 42 80 42 4 1 7 -39 7 -88z m760 -30 l0 -89 -47 -27 c-27
-15 -63 -36 -80 -47 l-33 -20 0 94 0 94 73 42 c39 23 75 42 80 42 4 0 7 -40 7
-89z m-4152 -63 l-3 -92 -70 -42 c-38 -24 -74 -43 -78 -43 -4 -1 -6 40 -5 91
l3 92 70 42 c39 23 74 43 78 43 4 1 6 -40 5 -91z m762 -28 l0 -89 -69 -41
c-108 -63 -101 -66 -101 38 l0 90 78 46 c42 25 80 45 85 46 4 0 7 -40 7 -90z
m750 -32 l0 -93 -71 -40 c-39 -22 -75 -41 -80 -43 -5 -2 -9 37 -9 87 l0 91 77
45 c43 25 79 45 80 45 2 0 3 -42 3 -92z m750 -31 l0 -93 -73 -42 c-40 -23 -76
-42 -80 -42 -4 0 -7 40 -7 89 l0 88 78 46 c42 25 78 46 80 46 1 1 2 -41 2 -92z
m1510 -61 l0 -94 -57 -32 c-32 -18 -68 -40 -80 -48 l-23 -14 0 94 0 94 78 46
c42 26 78 47 80 47 1 1 2 -41 2 -93z m-4900 -35 l0 -89 -47 -27 c-27 -15 -63
-36 -80 -47 l-33 -20 0 94 0 94 73 42 c39 23 75 42 80 42 4 0 7 -40 7 -89z
m760 -29 l0 -88 -74 -42 c-40 -23 -79 -42 -85 -42 -8 0 -11 26 -9 87 l3 87 70
42 c39 24 76 43 83 43 9 1 12 -23 12 -87z m1500 -64 l0 -93 -73 -40 c-39 -22
-75 -42 -80 -43 -4 -2 -6 38 -5 89 l3 93 75 43 c41 24 76 43 78 43 1 0 2 -42
2 -92z m760 -28 l0 -89 -72 -42 c-40 -23 -76 -44 -80 -46 -5 -2 -8 38 -8 89
l0 93 73 42 c39 23 75 42 80 42 4 1 7 -39 7 -89z m1500 -64 l0 -95 -74 -40
c-40 -23 -76 -41 -80 -41 -3 0 -6 40 -6 89 l0 89 78 45 c42 25 78 45 80 46 1
1 2 -41 2 -93z m758 -33 l-3 -88 -70 -42 c-38 -24 -73 -43 -77 -43 -4 0 -8 40
-8 89 l0 89 68 40 c37 23 73 41 80 42 10 0 12 -21 10 -87z m-4898 -25 l0 -93
-74 -42 c-40 -24 -76 -43 -79 -43 -4 0 -7 40 -7 89 l0 89 78 46 c42 25 78 45
80 46 1 0 2 -42 2 -92z m750 -37 l0 -89 -47 -27 c-27 -15 -63 -36 -80 -47
l-33 -20 0 94 0 94 73 42 c39 23 75 42 80 42 4 0 7 -40 7 -89z m760 -29 l0
-87 -80 -47 c-58 -34 -82 -43 -86 -34 -3 7 -4 48 -2 91 l3 79 70 42 c39 24 76
43 83 43 9 1 12 -23 12 -87z m1500 -61 l0 -89 -71 -41 c-39 -23 -73 -41 -75
-41 -2 0 -4 39 -4 88 l0 87 73 41 c39 23 73 42 75 43 1 1 2 -39 2 -88z m760
-30 l0 -90 -57 -34 c-32 -19 -68 -40 -80 -46 l-23 -12 0 93 1 93 72 42 c40 23
75 42 80 42 4 1 7 -39 7 -88z m-4150 -63 l0 -93 -75 -42 c-41 -24 -77 -43 -80
-43 -3 0 -5 40 -5 90 l0 89 78 45 c42 25 78 46 80 46 1 0 2 -42 2 -92z m758
-39 l-3 -83 -70 -42 c-38 -24 -76 -43 -82 -43 -10 -1 -13 23 -13 87 l0 87 78
46 c42 25 81 43 85 39 4 -4 7 -45 5 -91z m735 -119 c-4 -4 -38 -24 -75 -45
l-68 -37 0 89 0 88 73 41 72 42 3 -86 c2 -47 -1 -88 -5 -92z m1517 31 l0 -89
-71 -41 c-39 -23 -73 -41 -75 -41 -2 0 -4 39 -4 88 l1 87 72 42 c40 23 73 42
75 42 1 1 2 -39 2 -88z m748 -38 l-3 -86 -72 -43 -73 -43 0 89 0 89 68 40 c37
22 71 40 75 41 4 0 6 -39 5 -87z m-4888 -23 l0 -89 -72 -42 c-40 -23 -76 -44
-80 -46 -5 -2 -8 38 -8 89 l0 93 73 42 c39 23 75 42 80 42 4 1 7 -39 7 -89z
m6410 -29 c0 -99 5 -92 -92 -145 l-68 -38 0 94 0 93 73 41 c39 23 75 42 80 43
4 1 7 -39 7 -88z m-4150 -63 l0 -93 -74 -42 c-40 -24 -76 -43 -79 -43 -4 0 -7
40 -7 89 l0 89 78 46 c42 25 78 46 80 46 1 0 2 -42 2 -92z m758 -35 l-3 -87
-70 -42 c-38 -24 -76 -43 -82 -43 -10 -1 -13 23 -13 87 l0 88 73 42 c39 23 78
42 85 42 10 0 12 -21 10 -87z m752 -26 l0 -93 -74 -42 c-40 -23 -76 -42 -80
-42 -3 0 -6 40 -6 89 l0 89 78 46 c42 25 78 45 80 46 1 0 2 -42 2 -93z m738
-129 c-7 -4 -41 -24 -75 -43 l-63 -36 0 89 0 88 73 42 72 42 3 -87 c2 -63 -1
-89 -10 -95z m772 63 l0 -89 -80 -45 -80 -46 0 94 0 93 73 41 c39 22 75 41 80
41 4 0 7 -40 7 -89z m-4910 -30 l0 -89 -71 -41 c-39 -23 -73 -41 -75 -41 -2 0
-4 39 -4 88 l0 87 73 41 c39 23 73 42 75 43 1 1 2 -39 2 -88z m5660 0 l0 -90
-57 -34 c-32 -19 -68 -40 -80 -46 l-23 -12 0 93 1 93 72 42 c40 23 75 42 80
42 4 1 7 -39 7 -88z m-4140 -60 l0 -89 -80 -46 c-43 -25 -82 -46 -85 -46 -3 0
-5 40 -5 90 l0 89 78 45 c42 25 80 46 85 46 4 0 7 -40 7 -89z m740 -39 c0 -82
-2 -90 -22 -100 -13 -6 -47 -25 -75 -42 l-53 -30 0 89 0 89 68 40 c37 22 70
41 75 41 4 1 7 -39 7 -87z m760 -25 l0 -93 -74 -42 c-40 -23 -76 -42 -80 -42
-3 0 -6 40 -6 89 l0 89 78 46 c42 25 78 45 80 46 1 0 2 -42 2 -93z m750 -35
c0 -82 -2 -90 -22 -100 -13 -6 -47 -25 -75 -42 l-53 -30 0 89 0 89 73 41 c39
22 73 41 75 41 1 0 2 -40 2 -88z m2268 -14 l-3 -92 -70 -42 c-38 -24 -74 -43
-78 -43 -4 -1 -6 40 -5 91 l3 92 70 42 c39 24 74 43 78 43 4 1 6 -40 5 -91z
m-1518 -17 l0 -89 -71 -41 c-39 -23 -73 -41 -75 -41 -2 0 -4 39 -4 88 l0 87
73 42 c39 23 73 42 75 42 1 1 2 -39 2 -88z m-4140 -61 l0 -89 -69 -41 c-38
-22 -75 -40 -81 -40 -7 0 -10 28 -8 87 l3 88 70 42 c39 23 73 43 78 43 4 0 7
-40 7 -90z m1510 -59 c0 -99 5 -92 -93 -146 l-68 -37 3 93 3 93 70 42 c39 24
73 43 78 43 4 1 7 -39 7 -88z m760 -30 l0 -89 -78 -46 c-43 -25 -82 -46 -85
-46 -4 0 -7 40 -7 89 l0 89 78 46 c42 25 80 46 85 46 4 0 7 -40 7 -89z m748
-33 l-3 -92 -70 -42 c-38 -24 -74 -43 -78 -43 -4 -1 -6 40 -5 91 l3 92 70 42
c39 23 74 43 78 43 4 1 6 -40 5 -91z m750 -35 l-3 -86 -72 -43 -73 -43 0 89 0
89 68 40 c37 22 71 40 75 41 4 0 6 -39 5 -87z m760 -30 l-3 -88 -70 -42 c-38
-23 -73 -43 -77 -43 -5 0 -8 40 -8 89 l0 90 68 40 c37 23 73 41 80 41 10 0 12
-21 10 -87z m-4920 -125 c-7 -4 -41 -24 -75 -43 l-63 -36 0 88 0 89 73 41 72
42 3 -86 c2 -63 -1 -89 -10 -95z m2272 -3 l0 -84 -69 -41 c-38 -22 -72 -40
-76 -40 -3 0 -4 39 -3 87 l3 87 65 38 c36 21 68 38 73 38 4 0 7 -38 7 -85z
m758 -27 l-3 -91 -73 -44 c-41 -24 -76 -43 -78 -43 -3 0 -3 41 -2 92 l3 92 70
42 c39 24 74 43 78 43 4 1 6 -40 5 -91z m2262 -17 l0 -90 -57 -34 c-32 -19
-68 -40 -80 -46 l-23 -12 0 93 1 93 72 42 c40 23 75 42 80 42 4 1 7 -39 7 -88z
m-1512 -18 l-3 -87 -65 -38 c-36 -21 -68 -38 -72 -38 -5 0 -8 38 -8 84 l0 85
68 40 c37 23 71 41 75 41 4 0 6 -39 5 -87z m2272 -12 l0 -89 -47 -27 c-27 -15
-63 -36 -80 -47 l-33 -20 0 94 0 94 73 42 c39 23 75 42 80 42 4 0 7 -40 7 -89z
m-1520 -18 c0 -85 -1 -88 -28 -104 -15 -8 -48 -28 -74 -43 l-48 -28 0 90 0 90
73 41 c39 22 73 41 75 41 1 0 2 -39 2 -87z m-4890 -25 l0 -93 -71 -40 c-39
-22 -75 -41 -80 -43 -5 -2 -9 37 -9 87 l0 91 77 45 c43 25 79 45 80 45 2 0 3
-42 3 -92z m750 -32 l0 -95 -74 -40 c-40 -23 -76 -41 -80 -41 -3 0 -6 40 -6
89 l0 89 78 45 c42 25 78 45 80 46 1 1 2 -41 2 -93z m1510 -60 l0 -93 -71 -42
c-40 -22 -76 -41 -80 -41 -5 0 -9 40 -9 88 l0 88 78 46 c42 26 78 47 80 47 1
1 2 -41 2 -93z m3018 -53 l-3 -88 -70 -42 c-38 -23 -73 -43 -77 -43 -5 0 -8
40 -8 90 l0 89 68 40 c37 22 73 40 80 41 10 0 12 -21 10 -87z m-1508 -12 l0
-89 -47 -27 c-27 -15 -63 -36 -80 -47 l-33 -20 0 94 0 94 73 42 c39 23 75 42
80 42 4 0 7 -40 7 -89z m750 -30 l0 -89 -71 -41 c-39 -23 -73 -41 -75 -41 -2
0 -4 39 -4 88 l0 87 73 42 c39 23 73 42 75 42 1 1 2 -39 2 -88z m-4152 -68
l-3 -87 -72 -43 -73 -43 0 90 0 89 68 40 c37 22 71 40 75 41 4 0 6 -39 5 -87z
m762 -25 l0 -93 -75 -42 c-41 -24 -77 -43 -80 -43 -3 0 -5 40 -5 90 l0 89 78
45 c42 25 78 46 80 46 1 0 2 -42 2 -92z m758 -30 l-3 -92 -75 -43 c-41 -24
-78 -43 -82 -43 -5 0 -8 40 -8 89 l0 89 78 45 c42 25 81 45 85 46 4 1 6 -40 5
-91z m752 -30 l0 -93 -74 -42 c-40 -24 -76 -43 -79 -43 -4 0 -7 40 -7 89 l0
89 78 46 c42 25 78 46 80 46 1 0 2 -42 2 -92z m2260 -20 l0 -93 -75 -42 c-41
-24 -77 -43 -80 -43 -3 0 -5 40 -5 90 l0 89 78 45 c42 25 78 46 80 46 1 0 2
-42 2 -92z m750 -32 l0 -95 -74 -40 c-40 -23 -76 -41 -80 -41 -3 0 -6 40 -6
89 l0 89 78 45 c42 25 78 45 80 46 1 1 2 -41 2 -93z m-1517 -106 c-4 -4 -38
-24 -75 -45 l-68 -37 0 89 0 88 73 41 72 42 3 -86 c2 -47 -1 -88 -5 -92z
m2275 73 l-3 -88 -70 -42 c-38 -24 -73 -43 -77 -43 -4 0 -8 40 -8 89 l0 89 68
40 c37 23 73 41 80 42 10 0 12 -21 10 -87z m-5658 -75 l0 -93 -71 -40 c-39
-22 -75 -42 -80 -43 -6 -3 -9 34 -7 89 l3 93 75 43 c41 24 76 43 78 43 1 0 2
-42 2 -92z m760 -27 l0 -90 -57 -34 c-32 -19 -68 -40 -80 -46 l-23 -12 0 93 1
93 72 42 c40 23 75 42 80 42 4 1 7 -39 7 -88z m750 -33 l0 -93 -75 -42 c-41
-24 -77 -43 -80 -43 -3 0 -5 40 -5 90 l0 89 78 45 c42 25 78 46 80 46 1 0 2
-42 2 -92z m2260 -20 l0 -93 -71 -40 c-39 -22 -75 -42 -80 -43 -6 -3 -9 34 -7
89 l3 93 75 43 c41 24 76 43 78 43 1 0 2 -42 2 -92z m-1502 -18 l-3 -83 -73
-44 c-41 -24 -78 -43 -83 -43 -5 0 -9 40 -9 88 l0 88 78 46 c42 25 81 42 85
38 4 -4 7 -44 5 -90z m2262 -9 l0 -90 -57 -34 c-32 -19 -68 -40 -80 -46 l-23
-12 0 93 1 93 72 42 c40 23 75 42 80 42 4 1 7 -39 7 -88z m-1510 -14 l0 -93
-74 -42 c-40 -23 -76 -42 -80 -42 -3 0 -6 40 -6 89 l0 89 78 46 c42 25 78 45
80 46 1 0 2 -42 2 -93z m-3400 -96 l0 -89 -71 -41 c-39 -23 -73 -41 -75 -41
-2 0 -4 39 -4 88 l1 87 72 42 c40 23 73 42 75 42 1 1 2 -39 2 -88z m760 -31
l0 -89 -72 -42 c-40 -23 -76 -44 -80 -46 -5 -2 -8 38 -8 89 l0 93 73 42 c39
23 75 42 80 42 4 1 7 -39 7 -89z m760 -29 l0 -89 -80 -46 c-43 -25 -82 -46
-85 -46 -3 0 -5 40 -5 90 l0 90 77 45 c43 25 81 45 85 45 5 0 8 -40 8 -89z
m2260 -20 l0 -89 -80 -45 -80 -46 0 94 0 93 73 41 c39 22 75 41 80 41 4 0 7
-40 7 -89z m1500 -63 l0 -93 -75 -42 c-41 -24 -77 -43 -80 -43 -3 0 -5 40 -5
90 l0 89 78 45 c42 25 78 46 80 46 1 0 2 -42 2 -92z m760 -27 c0 -99 5 -92
-92 -145 l-68 -38 0 94 0 93 73 41 c39 23 75 42 80 43 4 1 7 -39 7 -88z
m-6410 -44 l0 -93 -74 -42 c-40 -23 -76 -42 -80 -42 -3 0 -6 40 -6 89 l0 89
78 46 c42 25 78 45 80 46 1 0 2 -42 2 -93z m750 -37 l0 -89 -69 -41 c-38 -22
-75 -40 -81 -40 -7 0 -10 28 -8 87 l3 88 70 42 c39 23 73 43 78 43 4 0 7 -40
7 -90z m3020 -43 l0 -92 -80 -47 -80 -47 0 94 0 93 78 46 c42 25 78 45 80 46
1 0 2 -42 2 -93z m-1510 -16 l0 -90 -57 -34 c-32 -19 -68 -40 -80 -46 l-23
-12 0 93 1 93 72 42 c40 23 75 42 80 42 4 1 7 -39 7 -88z m2260 -21 l0 -89
-72 -42 c-40 -23 -76 -44 -80 -46 -5 -2 -8 38 -8 89 l0 93 73 42 c39 23 75 42
80 42 4 1 7 -39 7 -89z m-1500 -9 l0 -89 -80 -46 c-43 -25 -82 -46 -85 -46 -3
0 -5 40 -5 90 l0 89 78 45 c42 25 80 46 85 46 4 0 7 -40 7 -89z m2260 -20 l0
-89 -80 -45 -80 -46 0 94 0 93 73 41 c39 22 75 41 80 41 4 0 7 -40 7 -89z
m750 -30 l0 -90 -57 -34 c-32 -19 -68 -40 -80 -46 l-23 -12 0 93 1 93 72 42
c40 23 75 42 80 42 4 1 7 -39 7 -88z m-4900 -104 l0 -93 -73 -42 c-40 -23 -76
-42 -80 -42 -4 0 -7 40 -7 89 l0 88 78 46 c42 25 78 46 80 46 1 1 2 -41 2 -92z
m1890 -236 l0 -89 -78 -46 c-43 -25 -82 -46 -85 -46 -4 0 -7 40 -7 89 l0 89
78 46 c42 25 80 46 85 46 4 0 7 -40 7 -89z m746 -116 c-4 -11 -140 -95 -152
-95 -3 0 -3 41 -2 92 l3 92 75 43 75 43 3 -82 c2 -45 1 -87 -2 -93z m-1506 71
l0 -95 -74 -40 c-40 -23 -76 -41 -80 -41 -3 0 -6 40 -6 89 l0 89 78 45 c42 25
78 45 80 46 1 1 2 -41 2 -93z m3018 -53 l-3 -88 -70 -42 c-38 -23 -73 -43 -77
-43 -5 0 -8 40 -8 90 l0 89 68 40 c37 22 73 40 80 41 10 0 12 -21 10 -87z
m-2638 -122 l0 -89 -47 -27 c-27 -15 -63 -36 -80 -47 l-33 -20 0 94 0 94 73
42 c39 23 75 42 80 42 4 0 7 -40 7 -89z m-1510 -13 l0 -93 -73 -40 c-39 -22
-75 -42 -80 -43 -4 -2 -6 38 -5 89 l3 93 75 43 c41 24 76 43 78 43 1 0 2 -42
2 -92z m1890 -236 l0 -88 -74 -42 c-40 -23 -79 -42 -85 -42 -8 0 -11 26 -9 87
l3 87 70 42 c39 24 76 43 83 43 9 1 12 -23 12 -87z m-1510 -12 l0 -89 -72 -42
c-40 -23 -76 -44 -80 -46 -5 -2 -8 38 -8 89 l0 93 73 42 c39 23 75 42 80 42 4
1 7 -39 7 -89z m2260 -19 l0 -89 -72 -42 c-40 -24 -76 -45 -80 -47 -5 -2 -8
38 -8 89 l0 93 73 42 c39 24 75 43 80 43 4 0 7 -40 7 -89z m750 -33 l0 -93
-73 -40 c-39 -22 -75 -42 -80 -43 -4 -2 -6 38 -5 89 l3 93 75 43 c41 24 76 43
78 43 1 0 2 -42 2 -92z m-2632 -128 l-3 -83 -73 -44 c-41 -24 -78 -43 -83 -43
-5 0 -9 40 -9 89 l0 89 78 44 c42 25 81 42 85 38 4 -4 7 -44 5 -90z m752 -22
l0 -93 -74 -42 c-40 -24 -76 -43 -79 -43 -4 0 -7 40 -7 89 l0 89 78 46 c42 25
78 46 80 46 1 0 2 -42 2 -92z m-1510 -18 l0 -89 -72 -42 c-40 -23 -76 -44 -80
-46 -5 -2 -8 38 -8 89 l0 93 73 42 c39 23 75 42 80 42 4 1 7 -39 7 -89z m3020
-48 l0 -87 -80 -47 -80 -47 0 94 0 93 68 40 c37 22 73 41 80 41 9 1 12 -23 12
-87z m-2640 -121 c0 -99 5 -92 -92 -145 l-68 -38 0 94 0 93 73 41 c39 23 75
42 80 43 4 1 7 -39 7 -88z m1508 -72 l-3 -83 -70 -42 c-38 -24 -76 -43 -82
-43 -10 -1 -13 23 -13 87 l0 88 78 46 c42 25 81 42 85 38 4 -4 7 -45 5 -91z
m752 -22 l0 -93 -74 -42 c-40 -23 -76 -42 -80 -42 -3 0 -6 40 -6 89 l0 89 78
46 c42 25 78 45 80 46 1 0 2 -42 2 -93z m-2640 -127 l0 -89 -72 -42 c-40 -23
-76 -44 -80 -46 -5 -2 -8 38 -8 89 l0 93 73 42 c39 23 75 42 80 42 4 1 7 -39
7 -89z m760 -29 l0 -89 -80 -46 c-43 -25 -82 -46 -85 -46 -3 0 -5 40 -5 90 l0
89 78 45 c42 25 80 46 85 46 4 0 7 -40 7 -89z m750 -30 c0 -99 5 -92 -92 -145
l-68 -38 0 94 0 93 73 41 c39 23 75 42 80 43 4 1 7 -39 7 -88z m-1890 -161 l0
-89 -69 -41 c-38 -22 -75 -40 -81 -40 -7 0 -10 28 -8 87 l3 88 70 42 c39 23
73 43 78 43 4 0 7 -40 7 -90z m760 -29 l0 -89 -57 -32 c-32 -18 -68 -40 -80
-48 l-23 -14 0 95 0 95 73 41 c39 22 75 41 80 41 4 0 7 -40 7 -89z m1510 -60
l0 -89 -80 -46 c-43 -25 -82 -46 -85 -46 -3 0 -5 40 -5 90 l0 89 78 45 c42 25
80 46 85 46 4 0 7 -40 7 -89z m-1890 -155 l0 -95 -74 -40 c-40 -23 -76 -41
-80 -41 -3 0 -6 40 -6 89 l0 89 78 45 c42 25 78 45 80 46 1 1 2 -41 2 -93z
m758 -33 l-3 -88 -70 -42 c-38 -23 -76 -43 -83 -43 -10 0 -12 21 -10 87 l3 88
70 42 c39 23 76 43 83 43 10 0 12 -21 10 -87z m752 -32 l0 -89 -47 -27 c-27
-15 -63 -36 -80 -47 l-33 -20 0 94 0 94 73 42 c39 23 75 42 80 42 4 0 7 -40 7
-89z m-2640 -123 l0 -93 -73 -40 c-39 -22 -75 -42 -80 -43 -4 -2 -6 38 -5 89
l3 93 75 43 c41 24 76 43 78 43 1 0 2 -42 2 -92z m1130 -280 l0 -93 -71 -40
c-39 -22 -75 -41 -80 -43 -5 -2 -9 37 -9 87 l0 91 77 45 c43 25 79 45 80 45 2
0 3 -42 3 -92z m760 -28 l0 -90 -77 -45 c-43 -25 -81 -45 -85 -45 -5 0 -8 40
-8 89 l0 88 78 46 c42 25 80 46 85 46 4 1 7 -39 7 -89z m-1890 -159 l0 -89
-72 -42 c-40 -24 -76 -45 -80 -47 -5 -2 -8 38 -8 89 l0 93 73 42 c39 24 75 43
80 43 4 0 7 -40 7 -89z m1130 -281 l0 -89 -72 -42 c-40 -23 -76 -44 -80 -46
-5 -2 -8 38 -8 89 l0 93 73 42 c39 23 75 42 80 42 4 1 7 -39 7 -89z m-1130
-183 l0 -93 -74 -42 c-40 -23 -76 -42 -80 -42 -3 0 -6 40 -6 89 l0 89 78 46
c42 25 78 45 80 46 1 0 2 -42 2 -93z m-2 -469 l-3 -92 -70 -42 c-38 -24 -74
-43 -78 -43 -4 -1 -6 40 -5 91 l3 92 70 42 c39 23 74 43 78 43 4 1 6 -40 5
-91z"/>
<path d="M27845 18127 c-73 -34 -1792 -1031 -1807 -1049 -13 -15 -18 -38 -18
-88 0 -62 2 -70 28 -92 15 -12 183 -113 372 -223 l345 -200 80 0 80 1 885 510
c487 281 900 525 919 543 33 31 34 33 28 98 -3 45 -11 71 -23 83 -11 10 -176
109 -369 221 l-349 202 -71 4 c-45 2 -81 -1 -100 -10z"/>
<path d="M29473 17830 c-44 -10 -730 -408 -748 -433 -10 -14 -15 -45 -15 -87
0 -56 3 -70 23 -87 45 -41 702 -415 748 -425 87 -20 112 -10 479 201 190 109
357 210 373 224 24 23 27 33 27 91 0 53 -4 69 -22 89 -26 28 -669 403 -726
423 -41 14 -90 16 -139 4z"/>
<path d="M31052 17520 c-62 -25 -705 -405 -722 -427 -30 -38 -28 -133 3 -167
12 -13 180 -116 372 -228 l350 -203 80 0 80 0 355 204 c195 113 363 211 373
219 13 12 17 31 17 93 0 76 -1 78 -32 102 -43 32 -668 394 -702 407 -33 12
-143 12 -174 0z"/>
<path d="M28362 17195 c-72 -32 -1238 -709 -1259 -732 -19 -20 -23 -36 -23
-89 0 -58 3 -68 28 -91 15 -14 182 -115 371 -224 363 -209 391 -221 475 -202
42 9 1265 708 1300 743 25 25 33 105 13 151 -13 32 -48 55 -358 235 -188 109
-357 204 -373 211 -43 16 -135 15 -174 -2z"/>
<path d="M29979 16896 c-59 -21 -1792 -1025 -1816 -1052 -19 -20 -23 -37 -23
-87 0 -35 6 -69 14 -79 13 -18 700 -422 737 -433 48 -15 142 -6 188 18 162 86
1751 1009 1774 1030 24 23 27 33 27 92 0 55 -4 70 -22 88 -28 27 -678 406
-727 423 -46 17 -106 17 -152 0z"/>
<path d="M40808 16468 c-21 -12 -38 -25 -38 -29 0 -4 19 -18 43 -31 38 -22
444 -255 677 -390 97 -56 498 -287 830 -478 102 -59 275 -159 385 -222 110
-63 319 -184 464 -267 146 -84 378 -218 517 -298 l252 -146 102 -164 c103
-164 134 -199 200 -223 42 -16 258 -22 324 -9 43 8 52 6 98 -20 l50 -29 -99
-57 c-248 -145 -392 -230 -433 -255 -123 -75 -240 -140 -251 -140 -7 0 -98 49
-203 109 -352 200 -1399 797 -1556 886 -85 48 -348 198 -585 333 -236 134
-644 366 -905 515 -261 149 -533 303 -603 343 l-128 74 -39 -20 c-21 -11 -41
-24 -44 -29 -3 -4 135 -88 307 -186 462 -263 1133 -645 1457 -830 989 -563
1605 -914 1882 -1071 175 -98 317 -181 318 -184 0 -3 -145 -90 -323 -194 -177
-105 -386 -228 -464 -274 l-142 -84 -208 125 c-271 162 -758 451 -1208 717
-198 117 -361 214 -363 215 -1 1 5 19 14 41 11 26 15 57 12 98 -4 52 -8 63
-40 92 -45 40 -80 51 -403 118 l-260 53 -260 155 c-143 85 -406 242 -585 348
-179 106 -388 231 -466 277 l-140 84 -48 -27 -48 -27 114 -67 c384 -227 1008
-598 1152 -684 l169 -101 113 -180 c122 -196 141 -214 244 -233 38 -7 271 -7
321 0 13 2 341 -190 1503 -881 154 -91 279 -170 279 -175 0 -6 -65 -48 -144
-94 -79 -47 -209 -123 -289 -170 -80 -47 -181 -106 -225 -132 -44 -26 -195
-114 -335 -197 -140 -82 -442 -259 -670 -392 -228 -134 -435 -256 -460 -271
-25 -15 -101 -60 -170 -100 -158 -93 -332 -195 -685 -402 -154 -91 -401 -236
-550 -323 -388 -227 -546 -320 -665 -390 -58 -34 -134 -79 -170 -100 -36 -21
-177 -104 -315 -185 -137 -81 -437 -256 -665 -389 -228 -134 -435 -256 -460
-271 -25 -15 -101 -60 -170 -100 -158 -93 -332 -195 -685 -402 -154 -91 -401
-236 -550 -323 -388 -227 -546 -320 -665 -390 -58 -34 -134 -79 -170 -100 -36
-21 -177 -104 -315 -185 -137 -81 -437 -256 -665 -389 -228 -134 -435 -256
-460 -271 -25 -15 -101 -60 -170 -100 -69 -40 -172 -101 -230 -135 -58 -34
-265 -156 -460 -270 -388 -227 -607 -356 -657 -387 l-33 -20 0 859 0 858 183
104 c100 58 380 219 622 359 655 378 1142 660 1700 982 165 95 399 230 520
300 277 160 800 462 1133 653 134 78 522 302 832 482 l185 107 40 -12 c173
-50 189 -53 345 -53 128 0 169 4 235 22 274 74 415 236 345 398 -25 60 -104
139 -171 173 -132 68 -276 95 -457 87 -149 -7 -227 -25 -338 -78 -219 -104
-276 -278 -141 -426 27 -29 48 -55 46 -57 -5 -5 -84 -51 -274 -161 -88 -51
-322 -186 -520 -300 -198 -115 -443 -256 -545 -315 -171 -98 -870 -502 -1160
-670 -69 -40 -289 -167 -490 -283 -413 -238 -658 -379 -905 -522 -93 -54 -271
-157 -395 -228 -472 -272 -530 -306 -702 -406 l-178 -103 -2 -911 -3 -911
-110 -66 c-61 -36 -142 -84 -180 -106 -39 -22 -137 -80 -220 -129 -82 -49
-229 -135 -326 -191 l-176 -104 -144 -30 c-79 -17 -164 -35 -189 -40 -478 -95
-500 -106 -500 -263 0 -60 4 -79 21 -101 12 -15 20 -29 18 -31 -4 -3 -90 -53
-314 -185 -44 -26 -147 -86 -230 -135 -82 -48 -215 -126 -295 -173 -80 -46
-230 -135 -335 -197 -435 -256 -673 -395 -679 -395 -3 0 -6 515 -6 1145 l0
1145 48 0 c63 0 192 33 262 67 193 94 244 277 114 408 -153 152 -487 195 -730
94 -215 -90 -280 -280 -142 -421 59 -61 167 -114 277 -135 l81 -16 0 -1173 0
-1173 -122 -72 c-135 -79 -243 -143 -508 -299 -96 -57 -179 -103 -186 -103 -9
0 -366 204 -689 393 -44 26 -273 159 -510 295 -236 137 -482 278 -545 315 -63
37 -189 110 -280 163 -91 52 -257 149 -370 214 -113 66 -332 192 -487 282
l-282 163 -118 190 c-129 209 -146 226 -248 253 -64 17 -312 20 -365 5 -24 -7
-41 -1 -102 34 -68 39 -291 168 -728 421 -319 185 -583 337 -640 370 -30 17
-183 106 -340 197 -157 91 -586 339 -955 552 -622 361 -832 482 -1690 979
l-320 185 -38 -23 c-21 -12 -39 -26 -39 -31 -1 -5 34 -30 78 -55 333 -192 836
-483 1019 -589 316 -183 627 -363 880 -510 121 -70 337 -195 480 -277 325
-188 408 -236 670 -388 116 -67 269 -156 340 -197 178 -103 1072 -619 1168
-675 42 -25 77 -46 77 -47 0 -1 -9 -19 -20 -41 -24 -47 -27 -143 -6 -183 20
-38 55 -68 99 -87 21 -8 191 -47 380 -85 188 -38 356 -76 374 -84 29 -14 220
-123 1088 -626 453 -263 1379 -798 1648 -953 50 -30 167 -97 259 -151 92 -53
178 -101 192 -107 26 -12 16 -18 636 346 129 76 336 197 460 270 124 72 293
171 375 220 704 413 914 536 1005 590 412 244 413 244 455 235 21 -5 93 -9
161 -9 168 0 258 24 310 81 12 12 69 100 127 193 58 94 114 178 124 186 10 9
99 63 198 121 263 154 964 565 1155 678 91 53 363 213 605 355 242 142 487
286 545 320 119 70 391 230 775 455 864 507 1558 914 1755 1030 91 53 363 213
605 355 242 142 487 286 545 320 119 70 391 230 775 455 483 283 778 457 1205
707 234 137 452 265 485 285 33 19 137 80 230 135 94 55 292 171 440 258 149
87 565 331 925 543 360 211 772 453 915 537 143 84 430 252 638 374 l378 222
282 -167 c155 -92 350 -207 432 -256 83 -49 189 -113 237 -141 48 -29 86 -56
85 -61 -2 -4 -99 -65 -218 -135 -118 -69 -284 -167 -369 -217 -294 -173 -555
-327 -700 -412 -80 -47 -293 -172 -475 -280 -181 -107 -382 -225 -445 -262
-248 -146 -527 -310 -795 -468 -154 -91 -316 -186 -360 -212 -44 -26 -147 -87
-230 -135 -82 -49 -169 -99 -192 -112 -29 -17 -135 -43 -348 -88 -328 -69
-380 -87 -410 -145 -17 -34 -21 -161 -5 -190 12 -22 12 -22 -185 -137 -174
-101 -1127 -662 -1280 -753 -71 -42 -184 -109 -250 -147 -66 -39 -248 -146
-405 -238 -734 -433 -1558 -917 -1890 -1113 -582 -343 -690 -406 -867 -510
-93 -55 -373 -220 -623 -367 -250 -148 -492 -290 -537 -317 -46 -26 -121 -70
-168 -98 -47 -27 -122 -72 -167 -98 -46 -27 -288 -170 -538 -317 -250 -147
-558 -329 -685 -403 -126 -74 -405 -239 -620 -365 -392 -231 -721 -424 -980
-577 -44 -26 -170 -100 -280 -165 -110 -65 -227 -134 -260 -153 -33 -19 -222
-131 -420 -247 -526 -310 -1279 -753 -1520 -895 -115 -68 -219 -129 -230 -136
-18 -12 -34 -5 -150 63 -72 42 -166 97 -210 123 -44 26 -258 152 -475 280
-217 128 -431 254 -475 280 -44 25 -208 122 -365 215 -157 93 -332 196 -390
230 -58 34 -244 144 -415 245 -170 100 -375 221 -455 268 -80 47 -242 142
-360 212 -118 70 -332 196 -475 280 -143 84 -379 224 -525 310 -146 86 -368
218 -495 292 -126 74 -320 188 -430 253 -294 174 -798 471 -890 525 -75 44
-518 305 -760 448 -60 36 -146 86 -190 112 -44 26 -141 83 -215 127 -74 44
-191 113 -260 153 -69 40 -145 85 -170 100 -25 15 -124 74 -220 130 -96 57
-233 137 -305 180 -71 42 -195 115 -275 162 -80 47 -334 197 -565 333 -231
136 -484 285 -562 331 -78 46 -148 84 -155 84 -7 0 -30 -11 -51 -24 l-38 -23
38 -23 c79 -47 605 -358 788 -465 105 -61 280 -165 390 -230 110 -65 236 -139
280 -165 80 -47 482 -284 845 -498 262 -155 399 -236 495 -292 44 -26 170
-100 280 -165 110 -65 236 -139 280 -165 44 -26 220 -129 390 -230 171 -101
346 -204 390 -230 44 -25 343 -202 665 -392 589 -347 1145 -675 2020 -1191
261 -154 563 -332 670 -395 107 -63 231 -136 275 -162 44 -25 197 -116 340
-200 143 -84 348 -205 455 -268 107 -63 265 -156 350 -207 245 -145 533 -316
678 -400 l133 -78 -128 -75 c-238 -140 -467 -275 -593 -350 -69 -41 -130 -75
-135 -75 -6 0 -53 25 -105 55 -52 31 -189 111 -305 178 -115 67 -216 127 -223
132 -6 6 -64 94 -128 197 -64 102 -128 198 -141 213 -14 15 -48 37 -77 50 -46
21 -66 23 -211 23 -88 0 -180 -3 -205 -8 -43 -7 -50 -5 -145 51 -55 32 -230
134 -390 227 -159 92 -310 180 -335 195 -25 15 -148 87 -275 160 -126 74 -347
202 -490 285 -143 84 -390 228 -550 320 -159 93 -407 237 -550 320 -143 83
-363 212 -490 285 -126 74 -347 202 -490 285 -143 83 -363 212 -490 285 -126
73 -266 154 -310 180 -70 42 -997 580 -1320 767 -66 38 -316 183 -555 322
-239 139 -509 296 -600 349 -91 52 -228 132 -305 177 -77 45 -216 126 -310
180 -93 54 -206 119 -250 145 -44 26 -156 91 -250 145 -93 54 -207 120 -253
147 l-82 50 -45 -27 c-25 -14 -45 -28 -45 -30 0 -2 26 -18 58 -36 31 -18 235
-136 452 -262 217 -126 469 -272 560 -325 91 -52 244 -141 340 -197 169 -99
999 -581 1325 -770 197 -114 746 -433 835 -485 145 -84 370 -215 645 -375 160
-93 353 -205 430 -250 77 -45 217 -126 310 -180 94 -54 262 -152 375 -218 113
-65 221 -128 240 -139 58 -34 504 -294 665 -387 654 -381 1757 -1022 1975
-1149 91 -52 169 -98 173 -102 4 -4 1 -20 -8 -36 -22 -43 -20 -161 4 -200 34
-56 100 -78 446 -149 176 -36 336 -73 355 -81 19 -9 141 -78 270 -153 417
-244 470 -273 484 -268 7 3 217 125 465 272 249 146 458 268 465 271 7 3 284
-156 616 -352 333 -196 610 -358 616 -361 7 -2 106 51 221 118 114 67 474 277
798 467 325 190 707 413 850 497 143 84 406 238 585 342 179 105 444 260 590
345 146 86 294 173 330 193 36 21 152 89 258 152 l192 113 1130 0 1130 0 1 23
c0 12 6 1 13 -25 78 -290 710 -359 944 -104 98 108 91 230 -21 333 -92 85
-207 123 -392 130 -147 6 -241 -11 -352 -63 -79 -38 -157 -117 -177 -180 -8
-27 -15 -41 -15 -32 -1 16 -66 17 -1038 18 -570 0 -1038 1 -1039 3 -2 1 133
82 299 179 166 97 525 306 797 465 272 159 644 377 825 483 182 106 411 240
510 298 99 58 311 182 470 276 l290 171 170 -3 c127 -2 184 1 226 12 105 28
118 41 246 246 l117 187 205 120 c113 66 328 191 476 278 149 87 536 313 860
503 325 190 682 399 795 465 113 66 351 205 530 310 424 248 920 538 1405 822
215 125 545 319 735 430 599 350 1116 653 1390 813 146 86 290 170 320 187 30
17 177 103 325 190 749 438 1062 622 1470 860 143 84 463 270 710 415 248 145
489 286 537 314 48 28 88 53 88 56 0 3 -80 51 -177 107 -98 55 -374 212 -613
348 -239 136 -574 327 -745 424 -170 97 -448 255 -617 351 -169 96 -308 177
-308 180 0 3 12 13 28 21 177 102 810 475 820 483 9 9 -8 24 -77 64 l-90 52
15 28 c18 36 18 135 -1 172 -24 47 -93 74 -285 114 -96 19 -231 47 -300 61
l-125 26 -245 141 c-135 78 -377 217 -537 310 -161 92 -425 244 -585 336 -161
93 -417 240 -568 327 -151 87 -488 281 -748 432 -261 150 -477 273 -480 273
-4 0 -24 -10 -44 -22z m3680 -3190 c301 -171 804 -457 1117 -636 314 -178 601
-342 638 -364 l69 -40 -194 -112 c-187 -109 -943 -551 -1238 -724 -150 -88
-467 -273 -1260 -737 -256 -149 -649 -380 -875 -512 -225 -132 -556 -325 -735
-430 -179 -104 -500 -293 -715 -418 -214 -125 -466 -273 -560 -327 -93 -55
-210 -124 -260 -153 -49 -29 -184 -108 -300 -175 -225 -132 -431 -252 -945
-553 -601 -352 -813 -475 -1465 -857 -181 -106 -517 -302 -746 -436 l-416
-243 -219 -45 c-546 -112 -548 -113 -600 -167 -28 -29 -29 -35 -29 -119 0 -79
2 -91 23 -113 l24 -25 -94 -55 c-51 -30 -160 -94 -243 -142 -82 -49 -294 -172
-470 -275 -176 -103 -414 -242 -530 -310 -115 -68 -327 -191 -470 -275 -143
-84 -354 -207 -470 -275 -115 -68 -410 -240 -655 -383 -738 -431 -1169 -684
-1910 -1117 -228 -134 -440 -258 -470 -275 -30 -17 -149 -87 -265 -155 -115
-68 -327 -191 -470 -275 -143 -84 -381 -223 -530 -310 -507 -297 -525 -307
-541 -301 -17 6 -1010 590 -1083 636 l-44 28 24 15 c35 22 482 285 844 497 44
26 247 145 450 265 204 120 483 284 620 365 138 81 455 268 705 415 399 236
788 464 1045 615 44 26 285 167 535 315 429 253 692 408 875 515 44 26 400
235 790 465 391 230 872 513 1070 630 198 116 527 310 730 430 204 119 474
278 600 353 127 74 289 170 360 212 72 42 274 162 450 265 176 103 408 240
515 303 107 63 281 165 385 227 105 61 334 196 510 300 176 103 523 307 770
453 715 422 648 386 692 370 26 -9 91 -13 198 -13 174 0 237 13 294 60 15 13
88 121 162 239 73 118 143 220 154 227 17 11 547 323 780 459 44 26 208 122
365 215 157 93 321 189 365 215 164 96 386 226 575 338 337 199 1088 641 1265
745 94 55 208 122 255 150 47 27 109 64 138 81 64 37 83 19 -173 170 -472 279
-891 529 -898 536 -9 8 23 28 428 265 149 87 317 186 375 221 58 34 111 63
118 63 7 1 259 -139 560 -311z m-16336 -6114 c122 -31 216 -92 244 -160 41
-98 -76 -208 -263 -250 -88 -19 -256 -15 -333 9 -160 51 -249 141 -226 231 35
139 343 229 578 170z m7283 -2849 c94 -20 186 -67 229 -117 54 -63 54 -114 -2
-179 -76 -89 -233 -136 -422 -126 -311 16 -474 205 -295 341 109 84 315 118
490 81z"/>
<path d="M47590 16360 c-30 -5 -66 -13 -80 -18 -23 -8 -20 -10 29 -21 344 -74
726 -353 1024 -751 237 -316 424 -717 495 -1065 69 -333 54 -648 -42 -867 -24
-55 -4 -48 68 25 255 255 286 767 80 1326 -84 229 -260 538 -418 736 -85 105
-260 279 -361 357 -272 211 -566 314 -795 278z"/>
<path d="M2672 7190 c-245 -141 -408 -242 -432 -266 -80 -80 -74 -184 13 -260
60 -52 4211 -2461 4272 -2480 126 -38 300 -35 413 9 33 12 422 231 865 487
650 375 800 466 777 468 -16 2 -44 -4 -62 -14 -18 -9 -368 -210 -778 -447
-410 -237 -767 -441 -795 -453 -105 -48 -276 -55 -401 -16 -39 12 -774 434
-2139 1227 -1144 664 -2095 1219 -2113 1233 -95 69 -95 174 0 245 18 13 195
118 393 232 198 114 366 213 373 220 8 7 12 19 10 28 -2 11 -111 -47 -396
-213z"/>
<path d="M10442 7379 c2 -17 79 -66 368 -234 201 -117 379 -226 397 -243 66
-64 62 -146 -10 -207 -23 -20 -538 -323 -1145 -673 -930 -537 -1106 -642
-1125 -672 l-22 -35 35 22 c19 11 532 308 1140 658 608 351 1119 649 1137 662
40 30 73 97 73 147 0 42 -27 101 -62 133 -18 17 -666 399 -766 452 -22 12 -23
11 -20 -10z"/>
</g>
</svg>
