<?xml version="1.0" standalone="no"?>
<!DOCTYPE svg PUBLIC "-//W3C//DTD SVG 20010904//EN"
 "http://www.w3.org/TR/2001/REC-SVG-20010904/DTD/svg10.dtd">
<svg version="1.0" xmlns="http://www.w3.org/2000/svg"
 width="568.000000pt" height="168.000000pt" viewBox="0 0 568.000000 168.000000"
 preserveAspectRatio="xMidYMid meet">

<g transform="translate(0.000000,168.000000) scale(0.100000,-0.100000)"
fill="#ffffff" stroke="none">
<path d="M900 1365 c-9 -25 -143 -411 -311 -897 l-88 -258 119 0 118 0 44 133
45 132 225 3 226 2 44 -132 45 -133 123 -3 c96 -2 121 0 118 10 -3 7 -94 273
-204 591 l-199 577 -148 0 -147 0 -10 -25z m238 -451 c41 -124 72 -228 69
-230 -2 -3 -74 -3 -159 -2 l-154 3 74 228 c42 131 78 227 85 227 7 -1 44 -99
85 -226z"/>
<path d="M1780 800 l0 -590 385 0 385 0 0 95 0 95 -265 0 -265 0 -2 493 -3
492 -117 3 -118 3 0 -591z"/>
<path d="M2740 800 l0 -590 115 0 115 0 0 240 0 240 235 0 235 0 0 95 0 95
-235 0 -235 0 0 155 0 155 258 2 257 3 0 95 0 95 -372 3 -373 2 0 -590z"/>
<path d="M3690 800 l0 -590 115 0 115 0 0 590 0 590 -115 0 -115 0 0 -590z"/>
<path d="M4230 800 l0 -590 400 0 400 0 0 95 0 95 -282 2 -283 3 0 160 0 160
238 3 237 2 0 95 0 95 -240 0 -240 0 0 135 0 135 275 0 275 0 0 100 0 100
-390 0 -390 0 0 -590z"/>
</g>
</svg>
