<?xml version="1.0" standalone="no"?>
<!DOCTYPE svg PUBLIC "-//W3C//DTD SVG 20010904//EN"
 "http://www.w3.org/TR/2001/REC-SVG-20010904/DTD/svg10.dtd">
<svg version="1.0" xmlns="http://www.w3.org/2000/svg"
 width="3000.000000pt" height="2000.000000pt" viewBox="0 0 3000.000000 2000.000000"
 preserveAspectRatio="xMidYMid meet">

<g transform="translate(0.000000,2000.000000) scale(0.100000,-0.100000)"
fill="#000000" stroke="none">
<path d="M0 10000 l0 -10000 15000 0 15000 0 0 10000 0 10000 -15000 0 -15000
0 0 -10000z m5214 8098 c17 -50 -42 -89 -78 -52 -19 19 -21 55 -4 72 7 7 26
12 43 10 22 -2 32 -10 39 -30z m-2061 -559 c14 -23 1 -67 -23 -74 -43 -14 -82
35 -60 75 14 25 67 25 83 -1z m1015 -555 c30 -21 29 -59 -3 -80 -23 -15 -27
-15 -50 0 -32 21 -33 59 -3 80 12 9 25 16 28 16 3 0 16 -7 28 -16z m16237
-1014 c-666 -666 -751 -748 -765 -735 -13 14 69 99 735 765 666 666 751 748
765 735 13 -14 -69 -99 -735 -765z m-15187 411 c5 -30 -15 -51 -48 -51 -54 0
-68 63 -20 87 30 15 63 -2 68 -36z m11936 -983 c80 -86 -51 -202 -135 -119
-35 36 -38 77 -8 115 43 54 95 56 143 4z m-12464 -128 c11 -11 20 -23 20 -28
0 -20 -34 -52 -55 -52 -21 0 -55 32 -55 52 0 14 39 48 55 48 8 0 24 -9 35 -20z
m1028 -562 c7 -7 12 -24 12 -38 0 -48 -45 -67 -82 -33 -22 20 -23 41 -1 65 18
21 53 24 71 6z m-2056 -575 c22 -20 23 -41 1 -65 -32 -36 -83 -17 -83 32 0 48
45 67 82 33z m18982 -324 c37 -25 86 -106 86 -143 0 -73 -48 -147 -115 -177
-51 -24 -99 -23 -151 0 -78 36 -118 120 -100 216 8 42 58 102 101 122 46 21
136 12 179 -18z m-20383 -1695 c36 -18 63 -74 54 -113 -28 -124 -215 -107
-215 19 0 84 85 134 161 94z m22703 -6110 c31 -30 9 -84 -34 -84 -24 0 -50 26
-50 50 0 24 26 50 50 50 10 0 26 -7 34 -16z m-2055 -568 c38 -46 -25 -111 -69
-71 -24 22 -25 42 -3 67 19 22 56 24 72 4z m1034 -577 c29 -47 -32 -101 -73
-64 -23 20 -25 37 -9 66 13 24 66 23 82 -2z m-15470 -1161 c-667 -667 -753
-750 -768 -738 -15 12 67 97 737 767 669 669 754 751 768 738 13 -14 -69 -99
-737 -767z m16495 600 c20 -20 14 -56 -12 -73 -36 -24 -76 -3 -76 41 0 27 19
44 50 44 14 0 31 -5 38 -12z m-509 -1150 c15 -40 -2 -63 -44 -63 -42 0 -59 23
-44 63 7 17 16 22 44 22 28 0 37 -5 44 -22z m1012 -548 c22 -12 26 -59 7 -78
-7 -7 -25 -12 -40 -12 -21 0 -31 6 -38 26 -19 50 24 89 71 64z m-20951 -135
l0 -115 115 0 115 0 0 -105 0 -105 -115 0 -115 0 0 -115 0 -115 -100 0 -100 0
0 115 0 115 -120 0 -121 0 3 103 3 102 118 3 117 3 0 114 0 115 100 0 100 0 0
-115z m6461 62 c46 -31 61 -63 55 -117 -8 -88 -104 -137 -186 -95 -63 33 -80
129 -33 185 46 55 108 65 164 27z m10397 -104 l3 -63 64 0 65 0 0 -60 0 -60
-65 0 -65 0 0 -65 0 -65 -55 0 -55 0 0 65 0 65 -65 0 -65 0 0 61 0 60 53 -1
c28 -1 58 -1 65 -1 8 1 12 21 12 67 l0 65 53 -3 52 -3 3 -62z m2042 -403 c23
-23 24 -33 10 -61 -12 -22 -59 -26 -78 -7 -18 18 -15 65 6 77 25 15 40 13 62
-9z m-4432 -665 c69 -80 -38 -200 -121 -135 -39 31 -50 65 -36 107 21 65 110
81 157 28z"/>
</g>
</svg>
