<?xml version="1.0" standalone="no"?>
<!DOCTYPE svg PUBLIC "-//W3C//DTD SVG 20010904//EN"
 "http://www.w3.org/TR/2001/REC-SVG-20010904/DTD/svg10.dtd">
<svg version="1.0" xmlns="http://www.w3.org/2000/svg"
 width="848.000000pt" height="592.000000pt" viewBox="0 0 848.000000 592.000000"
 preserveAspectRatio="xMidYMid meet">

<g transform="translate(0.000000,592.000000) scale(0.100000,-0.100000)"
fill="#000000" stroke="none">
<path d="M4638 1705 c-6 -7 2 -55 10 -55 3 0 21 5 39 12 38 14 44 38 9 38 -13
0 -31 2 -38 5 -8 3 -17 3 -20 0z"/>
<path d="M4490 1609 c0 -17 3 -29 8 -27 4 3 22 10 40 17 46 19 42 41 -8 41
-38 0 -40 -2 -40 -31z"/>
<path d="M3260 1479 c-348 -182 -382 -200 -378 -205 2 -2 132 63 289 144 l284
148 6 -271 c4 -148 8 -468 10 -710 2 -242 6 -474 9 -515 l6 -75 2 77 c2 71 3
76 22 71 26 -7 32 12 21 67 -5 25 -9 37 -10 27 -1 -10 -5 -16 -10 -12 -5 3
-12 -3 -14 -12 -3 -10 -6 18 -7 62 -2 44 -4 98 -6 120 -2 22 -1 54 2 71 4 26
8 31 24 27 19 -5 23 -20 22 -78 -1 -17 0 -17 4 -3 3 10 10 18 15 18 5 0 9 -90
9 -215 0 -137 4 -215 10 -215 6 0 10 30 10 71 l0 71 20 -23 c17 -22 19 -22 20
-5 0 17 6 18 68 13 37 -4 79 -7 94 -7 16 0 27 -5 25 -11 -1 -6 4 -14 12 -17
10 -3 12 0 8 11 -4 11 -2 14 8 10 8 -3 13 -8 11 -12 -3 -4 -1 -13 4 -21 9 -15
17 20 23 100 2 25 4 -3 5 -62 1 -64 6 -108 12 -108 6 0 10 82 10 227 0 291 17
287 26 -7 7 -203 11 -229 37 -230 4 0 8 26 8 58 l2 57 6 -47 c6 -42 21 -78 21
-51 0 6 7 13 14 16 10 4 13 1 9 -9 -3 -7 -1 -14 5 -14 13 0 22 24 23 63 1 24
4 19 11 -21 l10 -53 81 3 82 3 1 90 c1 50 -1 104 -3 122 -5 31 -6 31 -46 27
-23 -3 -44 -10 -48 -15 -3 -6 -9 4 -13 21 -11 55 -9 60 24 55 17 -3 44 -7 61
-10 25 -4 30 -2 27 13 -2 13 -16 18 -58 22 l-55 5 -3 49 -3 48 68 -7 c102 -11
103 -12 103 -104 0 -43 3 -132 7 -199 l6 -121 81 0 c45 0 107 2 139 5 l57 6 0
113 0 113 -30 7 c-17 4 -60 3 -96 0 -51 -6 -68 -4 -75 6 -7 11 -9 10 -9 -3 0
-10 -4 -18 -10 -18 -5 0 -10 13 -10 29 0 33 -13 32 137 11 93 -13 103 -13 103
4 0 9 -19 15 -60 20 -33 3 -87 9 -120 12 l-60 7 0 48 c0 46 2 49 23 45 12 -3
70 -10 130 -17 l107 -12 0 -157 c0 -189 5 -220 33 -220 20 0 20 1 14 669 -5
518 -3 671 6 674 21 8 4 13 -113 35 -241 45 -1007 191 -1045 200 -38 8 -48 4
-245 -99z m258 32 c9 -5 13 -23 11 -49 -2 -23 0 -44 4 -48 4 -4 8 6 9 22 1 16
5 -169 8 -411 3 -242 4 -443 3 -447 -4 -9 -43 3 -43 14 0 5 5 6 11 3 7 -5 9
108 7 374 -2 256 -6 381 -13 381 -7 0 -11 -49 -10 -142 0 -101 -3 -142 -12
-145 -9 -3 -13 48 -15 204 -2 114 -1 218 1 231 3 23 17 28 39 13z m193 -31
c63 -12 120 -25 126 -28 6 -4 12 -90 16 -220 l5 -213 -27 5 c-14 3 -78 13
-142 22 l-117 18 -6 65 c-3 36 -6 137 -6 224 1 145 2 158 18 153 9 -3 69 -15
133 -26z m199 0 c0 -5 -4 -10 -10 -10 -5 0 -10 5 -10 10 0 6 5 10 10 10 6 0
10 -4 10 -10z m7 -82 c-3 -7 -5 -2 -5 12 0 14 2 19 5 13 2 -7 2 -19 0 -25z
m132 16 c3 -3 7 -100 9 -215 l4 -209 -49 6 c-26 4 -49 7 -50 8 0 1 -4 97 -8
215 l-7 214 48 -7 c26 -3 50 -9 53 -12z m158 -25 c69 -11 71 -13 76 -43 2 -17
5 -215 6 -439 l2 -408 -28 3 -28 3 -3 190 c-3 195 2 260 19 250 5 -4 9 -2 9 3
0 9 -103 32 -142 32 -12 0 -16 22 -21 123 -3 67 -6 164 -7 216 -1 93 -1 93 22
88 13 -3 55 -11 95 -18z m130 -1 c-3 -8 -6 -5 -6 6 -1 11 2 17 5 13 3 -3 4
-12 1 -19z m123 -43 c47 -9 97 -20 112 -24 16 -6 30 -5 37 2 19 19 22 1 5 -39
-14 -32 -16 -68 -13 -209 4 -165 3 -170 -16 -167 -11 1 -68 10 -127 19 l-108
17 0 101 c0 56 -3 150 -7 208 -7 124 -18 116 117 92z m-543 -42 c-3 -10 -5 -4
-5 12 0 17 2 24 5 18 2 -7 2 -21 0 -30z m16 -568 c4 -40 4 -50 -2 -30 l-9 30
-1 -38 c0 -21 3 -36 8 -33 5 4 11 -22 13 -56 2 -52 0 -62 -14 -66 -21 -5 -23
-13 -6 -30 9 -9 9 -12 1 -12 -22 0 -25 42 -16 258 7 191 9 206 14 127 3 -49 9
-117 12 -150z m677 -60 c0 -184 -2 -215 -15 -215 -13 0 -15 30 -15 208 0 115
3 212 7 215 19 20 23 -12 23 -208z m-1102 39 c4 2 7 -15 7 -38 0 -31 -4 -42
-12 -39 -9 4 -12 28 -11 82 1 47 3 60 5 33 2 -23 7 -40 11 -38z m69 14 c-3 -7
-5 -2 -5 12 0 14 2 19 5 13 2 -7 2 -19 0 -25z m303 -86 c0 -65 -4 -90 -17
-104 -16 -18 -39 -25 -29 -9 3 5 -20 12 -50 16 -36 4 -59 3 -63 -4 -9 -14 -82
-4 -100 14 -12 12 -11 13 10 8 13 -3 29 -10 36 -15 7 -6 19 -6 30 1 10 6 12
11 6 11 -26 0 -53 40 -53 75 0 32 3 35 29 35 21 0 30 -6 35 -22 9 -37 7 -66
-6 -71 -7 -2 10 -7 37 -11 28 -4 65 -10 83 -13 20 -3 32 -1 32 6 0 6 -9 11
-20 11 -21 0 -24 16 -10 60 7 22 8 20 9 -14 2 -68 12 -32 13 47 1 57 5 74 15
70 9 -4 13 -29 13 -91z m-288 9 c-6 -59 -22 -51 -22 10 0 41 3 49 13 41 8 -7
11 -26 9 -51z m43 2 c0 -41 -19 -38 -23 4 -2 19 2 30 10 30 8 0 13 -13 13 -34z
m192 16 c-9 -6 -17 -18 -17 -29 0 -13 -5 -17 -20 -13 -14 4 -20 0 -20 -11 0
-9 -5 -16 -10 -16 -17 0 -23 30 -11 53 l12 22 -5 -22 c-5 -26 -2 -27 25 -12
11 6 19 16 16 22 -3 7 6 13 21 14 22 1 23 -1 9 -8z m145 -21 c-7 -7 -12 -8
-12 -2 0 14 12 26 19 19 2 -3 -1 -11 -7 -17z m-322 -64 c0 -8 -5 -12 -10 -9
-6 4 -8 11 -5 16 9 14 15 11 15 -7z m-132 -36 c-6 -18 -28 -21 -28 -4 0 9 7
16 16 16 9 0 14 -5 12 -12z m247 -19 c11 -17 0 -20 -21 -4 -17 13 -17 14 -2
15 9 0 20 -5 23 -11z m40 -19 c3 -5 1 -10 -4 -10 -6 0 -11 5 -11 10 0 6 2 10
4 10 3 0 8 -4 11 -10z m-77 -34 c62 -7 115 -16 118 -18 2 -3 7 -28 11 -57 7
-59 15 -56 -117 -41 -47 5 -103 11 -125 13 l-40 3 -3 57 c-4 67 -16 63 156 43z
m562 -21 c0 -9 -6 -12 -15 -9 -8 4 -12 10 -9 15 8 14 24 10 24 -6z m-242 -20
c9 -3 12 -35 12 -115 0 -101 -1 -110 -16 -96 -8 9 -26 16 -40 16 -19 0 -24 -5
-25 -27 -1 -16 -6 -2 -11 29 -14 79 -9 87 41 78 32 -6 41 -4 41 6 0 13 -10 16
-65 18 -17 1 -20 9 -23 54 l-3 53 38 -6 c21 -4 44 -8 51 -10z m-323 -90 c72
-8 131 -15 133 -15 1 0 2 -23 2 -51 0 -49 -1 -51 -25 -47 -14 3 -28 2 -30 -2
-3 -4 -19 -4 -37 -1 -18 4 -49 4 -68 0 -21 -5 -39 -4 -47 3 -9 7 -13 7 -13 -1
0 -6 -5 -11 -11 -11 -5 0 -7 5 -4 10 3 6 -3 10 -14 10 -13 0 -21 -7 -22 -17
-2 -25 -17 65 -18 105 -1 19 4 32 12 32 6 0 71 -7 142 -15z"/>
<path d="M3808 1293 c7 -3 16 -2 19 1 4 3 -2 6 -13 5 -11 0 -14 -3 -6 -6z"/>
<path d="M4727 743 c2 -329 6 -631 9 -670 6 -73 6 -73 35 -73 l29 0 0 124 0
124 37 -10 c21 -6 62 -8 90 -5 l53 6 0 -118 0 -118 36 -1 36 -1 -2 142 c-2
183 -1 194 15 122 7 -33 12 -96 11 -140 -3 -104 5 -125 44 -125 22 0 29 4 24
13 -6 9 -4 9 8 -1 8 -7 23 -10 32 -6 18 7 22 24 6 24 -5 0 -10 -5 -10 -12 0
-21 -21 7 -25 33 -2 13 -7 36 -10 50 -6 24 -4 26 22 24 15 -1 45 -3 65 -3 32
-2 37 -6 43 -33 4 -18 3 -34 -3 -38 -5 -3 -12 -15 -14 -26 -3 -18 3 -20 57
-23 l60 -3 -2 133 c-7 361 -7 558 -1 558 34 0 38 -13 38 -120 l0 -108 48 -8
c45 -7 46 -8 17 -15 -16 -3 -22 -7 -13 -8 9 0 23 -4 32 -7 10 -4 16 -1 16 9 0
12 9 14 43 11 86 -10 105 -15 111 -30 5 -12 1 -14 -15 -9 -12 4 -31 8 -42 10
-12 1 -29 6 -38 9 -22 10 -31 -17 -14 -41 13 -16 14 -16 15 -2 0 12 8 16 25
15 14 0 25 -3 25 -6 0 -3 16 -5 35 -5 19 1 35 -2 35 -6 0 -13 -41 -21 -76 -14
-27 5 -34 3 -34 -10 0 -8 7 -15 15 -15 9 0 16 -10 16 -22 1 -13 3 -34 4 -47 1
-15 -4 -25 -14 -28 -14 -3 -16 -18 -13 -99 2 -65 7 -92 14 -88 8 5 9 1 5 -11
-11 -27 11 -45 55 -45 l39 0 -7 122 c-4 68 -11 125 -16 126 -4 2 -5 8 -2 13 3
6 1 15 -4 22 -14 17 -3 67 17 75 9 3 19 10 23 16 4 6 10 7 14 3 4 -4 2 -13 -4
-19 -8 -8 -12 -65 -12 -184 l0 -172 98 1 97 2 -3 85 c-2 51 -9 94 -18 107 -25
40 -14 133 17 133 11 0 19 5 19 11 0 5 5 7 11 3 8 -5 6 -10 -5 -16 -20 -11
-12 -28 15 -28 17 0 19 -7 17 -62 l-2 -63 -3 58 c-4 50 -6 56 -19 43 -11 -11
-14 -44 -14 -143 l0 -128 135 -2 c104 -1 138 2 149 12 12 12 15 12 20 0 3 -8
17 -15 31 -15 l25 0 0 129 c0 105 3 133 16 145 8 9 19 14 24 11 5 -3 11 -1 15
5 3 5 14 10 23 9 12 0 11 -3 -5 -9 -22 -9 -23 -13 -23 -150 0 -129 1 -141 18
-138 14 3 17 14 16 58 -3 131 -7 186 -17 197 -10 14 18 31 31 18 4 -3 8 -67
10 -141 l4 -134 37 0 c21 0 40 2 43 5 8 9 -4 65 -13 59 -5 -3 -9 6 -9 20 0 14
5 26 11 26 8 0 8 4 2 12 -16 20 -16 130 -1 140 8 4 -4 8 -30 8 -26 0 -41 4
-37 10 3 6 1 10 -4 10 -6 0 -11 5 -11 11 0 8 4 8 14 0 16 -14 59 -24 96 -24
14 0 19 -2 13 -4 -10 -3 -13 -40 -13 -138 l0 -133 103 0 c66 0 105 4 109 12 6
8 8 8 8 -1 0 -7 7 -13 15 -13 16 0 18 14 15 88 -3 69 10 142 25 142 7 0 15 -7
19 -15 3 -8 13 -15 22 -15 15 0 16 -9 9 -83 -3 -45 -11 -84 -16 -85 -5 -2 -9
-10 -9 -18 0 -11 16 -14 78 -13 111 1 123 5 115 38 -3 14 -11 30 -17 34 -8 6
-7 10 2 14 6 2 12 9 12 14 0 6 -4 7 -10 4 -11 -7 -12 40 -2 68 8 19 62 52 62
37 0 -4 -6 -11 -12 -14 -9 -3 -8 -8 5 -16 14 -9 17 -26 17 -94 l0 -84 55 1 55
1 0 78 c0 60 3 78 14 78 19 0 36 -53 36 -111 0 -37 4 -49 15 -49 12 0 15 14
15 63 0 96 5 106 50 104 47 -2 53 -17 44 -106 -7 -59 -6 -61 17 -61 26 0 65
20 41 20 -10 0 -13 15 -10 61 3 53 6 63 26 70 22 8 22 7 22 -71 l0 -79 54 0
c48 1 55 4 59 23 l4 21 2 -21 c1 -21 5 -22 119 -20 l117 1 -1 32 c-1 18 4 34
12 37 16 6 34 -23 34 -53 0 -19 7 -20 109 -20 100 0 109 1 114 19 7 26 24 26
32 0 8 -27 41 -26 48 1 4 15 11 20 22 15 9 -3 23 -6 31 -6 8 0 14 -6 14 -13 0
-11 29 -14 143 -13 l142 1 0 184 0 185 -320 53 c-176 29 -417 68 -535 88 -118
19 -221 35 -227 35 -10 0 -13 -39 -13 -160 0 -100 -4 -160 -10 -160 -6 0 -11
37 -12 88 l-2 87 -3 -83 c-4 -78 -12 -97 -30 -69 -9 13 -9 12 -13 107 l-4 65
-5 -69 -6 -69 -32 46 c-23 32 -33 56 -33 84 0 26 -3 34 -9 24 -5 -8 -7 -21 -3
-30 4 -13 1 -12 -16 3 -14 12 -19 23 -13 30 6 7 2 11 -12 12 -38 1 -431 66
-442 72 -5 4 -19 5 -30 4 -11 -2 -96 8 -190 22 -93 14 -278 41 -410 60 -132
20 -283 42 -335 50 -52 8 -166 25 -252 38 l-158 22 0 87 c0 65 -4 90 -15 99
-8 7 -65 21 -126 31 -61 9 -113 19 -114 21 -2 2 -5 73 -6 158 l-1 155 -156 32
c-87 18 -171 32 -188 33 l-31 0 4 -597z m161 518 c50 -10 94 -20 97 -23 3 -3
8 -94 11 -203 7 -190 6 -197 -12 -192 -10 3 -41 9 -69 12 -27 3 -71 11 -97 17
l-48 10 0 81 c0 45 -3 135 -7 200 -7 136 -19 126 125 98z m149 -108 c-2 -16
-4 -3 -4 27 0 30 2 43 4 28 2 -16 2 -40 0 -55z m43 -59 c0 -87 -4 -133 -10
-129 -6 4 -10 60 -10 136 0 79 4 129 10 129 6 0 10 -52 10 -136z m127 -195
l62 -12 1 -251 c1 -138 1 -285 2 -326 0 -122 9 -111 -79 -108 l-78 3 -3 357
c-2 336 -1 356 15 353 10 -2 46 -9 80 -16z m127 -5 c9 -24 7 -181 -3 -166 -4
7 -8 46 -8 87 -1 40 -4 78 -8 84 -3 6 -2 11 3 11 6 0 13 -7 16 -16z m-364 -84
c0 -11 -4 -20 -9 -20 -5 0 -7 9 -4 20 3 11 7 20 9 20 2 0 4 -9 4 -20z m-107
-373 c-15 -28 -23 25 -23 161 0 224 14 242 21 27 3 -99 4 -183 2 -188z m107
253 c0 -5 -5 -10 -11 -10 -5 0 -7 5 -4 10 3 6 8 10 11 10 2 0 4 -4 4 -10z
m379 -217 c1 -63 -3 -103 -9 -103 -6 0 -9 61 -8 168 1 129 3 152 8 102 4 -36
8 -111 9 -167z m-382 145 c-3 -8 -6 -5 -6 6 -1 11 2 17 5 13 3 -3 4 -12 1 -19z
m-190 -65 c-2 -16 -4 -3 -4 27 0 30 2 43 4 28 2 -16 2 -40 0 -55z m804 24 c4
-5 7 -33 8 -63 1 -42 -2 -54 -14 -54 -12 0 -15 13 -15 60 0 47 -3 60 -15 60
-8 0 -15 4 -15 9 0 11 43 1 51 -12z m-614 -153 c-2 -3 -12 -2 -21 2 -23 9 -22
64 2 65 16 1 16 2 0 6 -13 3 -18 15 -18 40 0 27 3 34 15 29 9 -3 16 1 17 12 1
9 4 -21 5 -67 2 -46 2 -85 0 -87z m724 146 c5 0 9 -29 9 -65 0 -47 -3 -63 -12
-60 -9 4 -12 22 -9 56 2 29 -2 56 -8 62 -8 8 -11 6 -11 -8 0 -14 -3 -16 -11
-8 -15 15 -1 36 18 29 8 -3 19 -6 24 -6z m-154 -22 c-3 -8 -6 -5 -6 6 -1 11 2
17 5 13 3 -3 4 -12 1 -19z m631 -100 c2 -47 0 -58 -13 -58 -12 0 -15 12 -15
54 0 34 -5 56 -12 60 -7 3 -2 4 12 3 23 -2 25 -6 28 -59z m92 -12 c0 -61 -1
-64 -22 -58 -12 3 -17 7 -10 10 19 6 15 82 -5 98 -16 12 -15 13 10 14 27 0 27
-1 27 -64z m428 -59 c3 -52 1 -58 -15 -55 -14 3 -19 15 -21 61 -3 52 -1 58 15
55 14 -3 19 -15 21 -61z m-939 43 c11 -1 8 -5 -9 -14 -14 -8 -29 -11 -35 -8
-5 4 -14 7 -19 7 -5 0 -11 6 -14 14 -4 11 3 13 28 8 18 -4 40 -7 49 -7z m1021
-50 c0 -45 -4 -60 -14 -60 -10 0 -15 17 -18 60 -3 52 -1 60 15 60 14 0 17 -10
17 -60z m-707 9 c9 0 17 -4 17 -9 0 -10 -73 -6 -90 5 -5 3 -10 2 -10 -4 0 -5
-14 -2 -31 6 -25 12 -36 13 -50 5 -13 -8 -20 -8 -25 -1 -3 6 -17 9 -30 6 -14
-2 -27 0 -30 4 -3 5 -14 9 -25 9 -10 0 -19 4 -19 8 0 4 62 -1 138 -11 75 -10
145 -18 155 -18z m1721 25 c13 -5 16 -25 16 -111 0 -103 0 -104 -22 -101 -22
3 -23 8 -26 111 -3 106 0 113 32 101z m97 -14 c5 0 9 -47 9 -105 l0 -105 -25
0 -25 0 0 111 c0 97 2 110 16 105 9 -3 20 -6 25 -6z m-2087 -28 c3 -5 -1 -9
-9 -9 -8 0 -12 4 -9 9 3 4 7 8 9 8 2 0 6 -4 9 -8z m606 -27 c283 -35 303 -38
308 -54 3 -9 0 -11 -8 -6 -8 5 -30 11 -51 15 -34 6 -38 5 -43 -16 -4 -13 -11
-24 -17 -24 -6 0 -6 6 1 19 12 24 6 28 -47 28 -24 0 -49 5 -55 10 -7 5 -44 9
-83 9 -42 -1 -75 4 -83 11 -7 7 -34 12 -60 12 -86 0 -141 5 -136 12 2 4 -2 10
-8 12 -16 7 26 3 282 -28z m-1455 1 c17 -2 36 -5 43 -5 7 -1 12 -16 12 -41 l0
-40 -72 7 c-40 4 -85 8 -100 8 -26 0 -28 3 -28 46 l0 46 58 -8 c31 -4 71 -10
87 -13z m929 16 c2 -4 -7 -8 -22 -9 -24 -2 -24 -1 -7 7 11 5 21 9 22 9 1 1 4
-3 7 -7z m116 -25 c10 -4 8 -6 -6 -6 -12 -1 -25 6 -28 15 -5 13 -3 14 6 7 7
-6 20 -13 28 -16z m2208 -84 l3 -103 -26 0 -25 0 0 106 c0 104 0 105 23 102
21 -3 22 -8 25 -105z m-2442 76 c19 -22 19 -22 -3 -8 -13 8 -23 17 -23 21 0
12 6 9 26 -13z m274 17 c0 -3 -4 -8 -10 -11 -5 -3 -10 -1 -10 4 0 6 5 11 10
11 6 0 10 -2 10 -4z m91 -8 c17 2 29 -3 32 -13 5 -13 3 -14 -13 -5 -10 5 -29
9 -41 7 -12 -1 -24 4 -27 12 -3 10 0 11 9 5 8 -4 26 -7 40 -6z m2150 2 c5 0 9
-45 9 -100 0 -93 -1 -100 -20 -100 -15 0 -20 7 -20 28 0 16 -3 64 -7 107 -6
72 -5 78 11 72 10 -4 22 -7 27 -7z m-2444 -37 c-3 -10 -5 -4 -5 12 0 17 2 24
5 18 2 -7 2 -21 0 -30z m411 24 c6 3 12 -1 12 -7 0 -10 4 -10 15 0 11 9 15 9
15 1 0 -7 5 -9 12 -5 7 4 8 3 4 -4 -9 -15 -76 -16 -76 -1 0 6 -9 8 -20 4 -15
-5 -18 -3 -14 9 4 11 11 13 22 7 10 -4 23 -6 30 -4z m-495 -27 c3 -11 1 -20
-4 -20 -5 0 -9 9 -9 20 0 11 2 20 4 20 2 0 6 -9 9 -20z m270 -13 c-3 -5 1 -13
8 -18 11 -7 10 -9 -3 -9 -14 0 -18 8 -18 33 0 23 3 28 9 17 6 -8 7 -18 4 -23z
m111 -3 c9 -8 16 -18 16 -22 0 -3 -5 -1 -12 6 -7 7 -20 12 -29 12 -10 0 -21 5
-24 10 -10 16 32 11 49 -6z m656 6 c0 -6 -11 -10 -25 -10 -14 0 -25 4 -25 8 0
4 11 9 25 10 14 1 25 -3 25 -8z m-220 -14 c-4 -4 -16 -4 -26 2 -16 9 -14 10 8
9 15 -1 23 -6 18 -11z m430 -7 c74 -11 145 -20 158 -21 12 0 22 -3 22 -7 0 -9
-30 -11 -50 -3 -8 3 -22 6 -30 8 -39 5 -150 17 -190 20 -64 5 -70 6 -70 16 0
11 4 10 160 -13z m-750 -43 c6 -30 10 -74 8 -98 -3 -40 -5 -43 -33 -43 l-30 0
-3 98 -3 97 25 0 c22 0 26 -6 36 -54z m405 36 c-3 -3 -11 0 -18 7 -9 10 -8 11
6 5 10 -3 15 -9 12 -12z m-818 -24 c-3 -7 -5 -2 -5 12 0 14 2 19 5 13 2 -7 2
-19 0 -25z m948 19 c3 -4 2 -5 -1 -2 -4 2 -15 0 -26 -6 -14 -7 -23 -7 -33 1
-8 7 -19 9 -25 5 -5 -3 -10 -2 -10 4 0 11 86 9 95 -2z m-760 -17 c3 -5 1 -10
-4 -10 -6 0 -11 5 -11 10 0 6 2 10 4 10 3 0 8 -4 11 -10z m844 -6 c2 -2 -10
-4 -27 -4 -17 0 -34 4 -37 10 -5 9 53 3 64 -6z m-1512 -16 c-3 -8 -6 -5 -6 6
-1 11 2 17 5 13 3 -3 4 -12 1 -19z m1363 -18 c0 -30 -4 -40 -16 -40 -13 0 -14
3 -4 15 7 8 10 26 8 40 -3 14 -1 25 3 25 5 0 9 -18 9 -40z m200 28 c0 -11 -12
-10 -30 2 -12 7 -10 9 8 7 12 0 22 -5 22 -9z m45 2 c3 -5 -1 -10 -9 -10 -9 0
-16 5 -16 10 0 6 4 10 9 10 6 0 13 -4 16 -10z m265 6 c0 -2 -9 -6 -20 -9 -11
-3 -18 -1 -14 4 5 9 34 13 34 5z m-1483 -28 c-3 -8 -6 -5 -6 6 -1 11 2 17 5
13 3 -3 4 -12 1 -19z m853 -5 c0 -9 -5 -11 -12 -6 -7 4 -21 6 -30 5 -20 -4
-25 14 -5 21 20 7 47 -4 47 -20z m31 -6 c-10 -9 -11 -8 -5 6 3 10 9 15 12 12
3 -3 0 -11 -7 -18z m-453 -12 c-3 -3 -9 2 -12 12 -6 14 -5 15 5 6 7 -7 10 -15
7 -18z m762 0 c0 -14 -4 -25 -9 -25 -4 0 -6 11 -3 25 2 14 6 25 8 25 2 0 4
-11 4 -25z m-250 6 c0 -5 -9 -7 -20 -4 -11 3 -20 7 -20 9 0 2 9 4 20 4 11 0
20 -4 20 -9z m209 -20 c0 -10 -2 -11 -6 -3 -7 18 -23 15 -23 -5 0 -9 -3 -14
-6 -10 -3 3 -3 15 1 26 7 23 35 17 34 -8z m324 22 c-7 -2 -19 -2 -25 0 -7 3
-2 5 12 5 14 0 19 -2 13 -5z m-1073 -13 c0 -5 -4 -10 -10 -10 -5 0 -10 5 -10
10 0 6 5 10 10 10 6 0 10 -4 10 -10z m-183 -22 c-3 -8 -6 -5 -6 6 -1 11 2 17
5 13 3 -3 4 -12 1 -19z m1410 16 c-3 -3 -12 -4 -19 -1 -8 3 -5 6 6 6 11 1 17
-2 13 -5z m-694 -31 c-7 -2 -19 -2 -25 0 -7 3 -2 5 12 5 14 0 19 -2 13 -5z
m1024 1 c-3 -3 -12 -4 -19 -1 -8 3 -5 6 6 6 11 1 17 -2 13 -5z m-210 -36 c-3
-7 -5 -2 -5 12 0 14 2 19 5 13 2 -7 2 -19 0 -25z m-624 -3 c-7 -21 -13 -19
-13 6 0 11 4 18 10 14 5 -3 7 -12 3 -20z m67 10 c0 -9 -6 -12 -16 -8 -9 3 -20
0 -25 -8 -7 -11 -9 -11 -9 3 0 9 10 18 23 21 12 2 23 5 25 6 1 0 2 -6 2 -14z
m-1797 -46 c-8 -29 -13 -23 -13 14 0 22 3 28 9 18 5 -7 6 -22 4 -32z m1962 21
c3 -6 -1 -7 -9 -4 -18 7 -21 14 -7 14 6 0 13 -4 16 -10z m-388 -37 c-3 -10 -5
-4 -5 12 0 17 2 24 5 18 2 -7 2 -21 0 -30z"/>
<path d="M5148 773 c6 -2 18 -2 25 0 6 3 1 5 -13 5 -14 0 -19 -2 -12 -5z"/>
<path d="M2098 1297 c-66 -44 -61 -56 5 -13 l54 34 6 -442 c4 -242 7 -539 7
-658 0 -147 3 -218 11 -218 6 0 9 36 8 102 -2 95 0 103 19 111 31 14 36 37 8
37 -26 0 -36 17 -36 60 0 23 4 28 21 27 36 -3 49 -55 49 -203 0 -81 4 -134 10
-134 6 0 11 69 13 173 l3 172 2 -172 c2 -146 4 -173 17 -173 12 0 15 17 15 89
0 86 11 141 27 141 5 0 9 -19 10 -42 2 -24 5 -76 9 -115 l6 -73 306 0 c169 0
317 3 330 6 14 4 22 14 22 28 0 16 6 21 25 21 19 0 25 -5 25 -22 0 -12 5 -25
10 -28 7 -4 10 47 9 147 l-1 153 -13 -70 c-8 -47 -13 -59 -14 -37 -1 21 -5 31
-12 26 -6 -3 -26 -8 -44 -11 l-33 -4 -7 53 c-12 93 -6 109 43 126 39 13 62 35
50 47 -2 3 -20 0 -39 -5 -19 -6 -46 -8 -61 -4 -27 5 -28 7 -28 75 0 57 3 69
16 69 14 0 15 12 13 80 -3 47 0 81 6 82 6 2 11 -52 13 -144 1 -82 6 -148 11
-148 4 0 22 5 40 11 l32 11 -6 57 c-7 57 7 117 24 106 5 -3 12 -1 16 5 3 5 13
10 22 10 13 0 15 -15 11 -109 l-5 -108 33 10 c19 6 34 14 34 19 0 5 4 7 8 4
12 -7 84 15 105 32 24 21 21 35 -5 29 -13 -3 -35 -9 -50 -12 -49 -12 -31 13
20 27 l47 14 5 219 c3 121 5 221 4 223 -1 1 -20 -4 -43 -11 l-41 -15 0 55 c0
33 -4 52 -10 48 -5 -3 -10 -34 -10 -69 l0 -62 -35 -1 -35 -1 0 123 0 123 -32
5 c-18 2 -35 3 -37 1 -2 -2 -3 -69 -2 -148 l2 -145 -34 -14 c-81 -34 -77 -36
-78 40 -2 108 -17 134 -18 30 -1 -51 -5 -86 -10 -82 -5 3 -12 -3 -14 -12 -5
-18 -11 117 -10 195 1 23 -3 40 -8 36 -5 -3 -9 19 -9 50 0 30 5 58 10 61 17
10 11 25 -9 25 -17 0 -18 -7 -15 -105 3 -66 0 -105 -6 -105 -6 0 -10 41 -10
104 l0 104 -27 6 c-94 19 -659 106 -682 105 -9 0 -37 -15 -63 -32z m125 -78
c-1 -24 1 -36 3 -26 3 9 10 17 15 17 12 0 12 -777 0 -784 -5 -4 -21 -2 -35 4
l-26 10 2 182 c3 155 5 183 18 183 12 0 16 -18 21 -80 l5 -80 2 83 c1 49 -2
82 -8 82 -6 0 -10 58 -10 154 0 85 -4 157 -9 161 -6 3 -9 -55 -8 -147 1 -84
-2 -154 -6 -156 -13 -4 -18 121 -11 295 7 159 7 161 28 153 17 -6 21 -15 19
-51z m93 33 c15 -10 25 -60 31 -169 5 -85 3 -92 -16 -102 -24 -13 -29 -44 -6
-35 13 5 15 -13 15 -132 0 -94 3 -134 10 -124 7 10 10 -32 10 -127 l0 -143
-26 0 -25 0 3 195 c3 169 1 195 -12 194 -41 -4 -40 -7 -40 226 l1 225 22 0
c12 0 27 -4 33 -8z m248 -33 c66 -11 121 -21 123 -23 4 -4 -50 -35 -120 -71
-25 -13 -33 -21 -22 -23 9 -2 27 3 40 12 31 20 75 28 75 13 1 -7 3 -45 6 -86
5 -56 3 -76 -8 -82 -10 -6 -10 -9 0 -9 8 0 12 -22 12 -77 0 -124 -7 -150 -43
-162 -16 -6 -32 -11 -33 -11 -2 0 -4 18 -4 39 0 45 -1 45 -124 56 l-69 7 7
-39 c20 -120 19 -140 -3 -146 -21 -5 -21 -4 -21 196 1 180 2 199 15 177 12
-21 14 -22 15 -6 0 10 16 34 35 52 35 32 36 33 108 28 87 -7 75 11 -15 21 -48
6 -65 3 -103 -15 -25 -12 -44 -24 -41 -27 2 -3 14 1 26 7 12 6 24 10 26 8 2
-3 -12 -12 -31 -21 l-35 -17 0 113 0 114 33 -5 c17 -2 86 -12 151 -23z m576
-177 c0 -59 -5 -114 -10 -122 -7 -10 -10 27 -10 113 0 83 4 126 10 122 6 -4
10 -52 10 -113z m-33 -69 c-2 -32 -3 -6 -3 57 0 63 1 89 3 58 2 -32 2 -84 0
-115z m-407 108 c0 -35 -14 -16 -16 21 -1 21 1 26 7 17 5 -8 9 -25 9 -38z
m-13 -223 c-2 -35 -3 -7 -3 62 0 69 1 97 3 63 2 -35 2 -91 0 -125z m360 -10
c-3 -8 -6 -5 -6 6 -1 11 2 17 5 13 3 -3 4 -12 1 -19z m20 0 c-3 -8 -6 -5 -6 6
-1 11 2 17 5 13 3 -3 4 -12 1 -19z m-777 -254 c0 -103 -4 -164 -10 -164 -6 0
-10 64 -10 171 0 111 3 168 10 164 6 -4 10 -72 10 -171z m124 -96 c15 -30 15
-33 -1 -50 -17 -17 -18 -15 -18 32 0 28 1 50 2 50 1 0 9 -14 17 -32z m790 -3
c-4 -8 -14 -15 -24 -15 -10 0 -25 -3 -34 -6 -9 -3 -16 -2 -16 3 0 6 15 15 33
21 45 14 47 14 41 -3z m-1004 -105 c0 -5 -4 -10 -10 -10 -5 0 -10 5 -10 10 0
6 5 10 10 10 6 0 10 -4 10 -10z m293 -110 c4 -16 0 -20 -19 -20 -23 0 -23 1
-6 19 9 11 18 20 18 20 1 1 4 -8 7 -19z m165 -92 c-2 -6 -21 -17 -41 -24 -34
-12 -37 -11 -37 6 0 19 16 27 58 29 14 1 22 -4 20 -11z m-158 -43 c0 -8 -4
-15 -10 -15 -5 0 -10 7 -10 15 0 8 5 15 10 15 6 0 10 -7 10 -15z m154 -15 c-5
-5 -21 -12 -36 -15 -41 -10 -37 20 5 32 32 9 48 0 31 -17z m413 8 c-3 -8 -6
-5 -6 6 -1 11 2 17 5 13 3 -3 4 -12 1 -19z m-627 -12 c0 -7 -9 -16 -20 -19
-15 -4 -20 0 -20 14 0 12 7 19 20 19 11 0 20 -6 20 -14z m627 -43 c-3 -10 -5
-4 -5 12 0 17 2 24 5 18 2 -7 2 -21 0 -30z m-627 -7 c0 -7 -9 -16 -20 -19 -19
-5 -28 12 -13 26 11 12 33 7 33 -7z"/>
<path d="M2280 1106 c0 -2 11 -6 25 -8 14 -3 25 -1 25 3 0 5 -11 9 -25 9 -14
0 -25 -2 -25 -4z"/>
<path d="M2400 829 c0 -5 5 -7 10 -4 6 3 10 8 10 11 0 2 -4 4 -10 4 -5 0 -10
-5 -10 -11z"/>
<path d="M2067 1013 c2 -126 3 -405 3 -621 l0 -393 38 3 c36 3 37 4 33 38 -6
53 -8 76 -11 195 l-4 110 -5 -75 -6 -75 -8 50 c-4 28 -10 62 -12 77 -3 22 1
30 23 40 15 7 28 22 30 32 3 15 0 18 -21 12 -25 -6 -26 -5 -20 31 6 42 18 61
30 48 5 -4 2 -10 -4 -12 -18 -7 -16 -43 2 -43 14 0 22 43 15 75 -3 15 -8 281
-10 523 l-1 212 -25 0 c-13 0 -24 -4 -24 -10 0 -5 6 -9 13 -7 9 1 12 -20 13
-78 0 -44 4 -141 8 -217 5 -92 4 -138 -4 -143 -6 -4 -10 10 -10 40 0 28 -4 44
-10 40 -7 -4 -10 55 -10 169 0 165 -4 206 -19 206 -3 0 -5 -102 -4 -227z m59
-420 c-10 -10 -19 5 -10 18 6 11 8 11 12 0 2 -7 1 -15 -2 -18z m1 -53 c-2 -24
-17 -15 -17 11 0 11 4 18 9 14 6 -3 9 -14 8 -25z"/>
<path d="M1907 1173 l-59 -36 8 -298 c4 -175 3 -299 -2 -299 -14 0 -491 47
-704 70 -664 70 -883 89 -898 81 -9 -5 -33 -26 -52 -47 l-35 -38 47 38 48 38
2 -338 c3 -331 3 -339 23 -339 17 0 20 8 23 46 2 34 8 48 20 51 15 4 17 -2 14
-49 l-4 -53 41 0 41 0 0 60 c0 58 -1 60 -32 69 -18 5 -26 10 -17 10 31 2 44
32 45 103 1 44 -3 68 -10 68 -6 0 -29 -14 -50 -30 -22 -17 -42 -30 -45 -30 -3
0 -5 70 -3 155 l3 155 24 0 c31 0 32 12 3 25 -15 6 -24 21 -26 38 -3 28 -3 28
35 21 21 -4 46 -8 56 -8 21 0 23 -38 2 -56 -19 -15 -19 -30 -2 -30 16 0 27
-179 27 -419 0 -74 3 -131 7 -127 4 4 6 24 4 46 -2 30 1 39 15 42 30 6 114 -4
114 -13 0 -5 -7 -9 -15 -9 -11 0 -15 -10 -14 -37 2 -31 3 -33 6 -10 5 32 18
36 26 7 8 -31 25 -24 29 12 4 46 28 49 28 4 0 -25 4 -36 15 -36 18 0 20 36 3
43 -10 4 -10 7 -1 14 6 5 13 31 16 58 2 36 4 24 7 -40 2 -50 5 -77 7 -60 2 17
7 37 10 45 4 8 8 26 9 40 1 14 6 50 10 80 l8 55 7 -40 c5 -22 8 -77 8 -122 1
-76 3 -83 21 -83 17 0 20 7 20 39 0 34 3 38 20 34 15 -4 20 -14 20 -39 0 -34
1 -34 45 -34 43 0 45 1 45 30 l0 30 85 -2 85 -3 0 -27 c0 -16 5 -28 10 -28 6
0 10 11 10 25 0 36 30 33 31 -2 l1 -28 8 30 8 30 1 -27 c1 -34 21 -37 21 -4 0
23 3 25 38 21 20 -1 40 -3 44 -4 3 -1 8 -7 11 -14 2 -6 2 0 0 15 -3 16 0 28 6
28 6 0 11 -16 11 -35 0 -34 1 -35 39 -35 29 0 41 5 44 17 4 17 5 17 6 1 1 -22
21 -24 21 -3 0 8 5 15 10 15 12 0 12 207 0 215 -4 2 -4 25 0 50 4 25 3 48 -2
51 -4 3 -8 53 -8 111 l0 105 38 -7 c20 -4 39 -9 42 -12 3 -2 7 -45 8 -94 l4
-89 29 0 29 0 0 87 c0 47 3 83 7 80 3 -4 12 -2 20 4 8 8 13 8 13 1 0 -6 -6
-12 -12 -15 -10 -3 -10 -9 -1 -28 7 -13 13 -52 15 -86 l3 -63 -55 3 -55 2 -1
-55 c-1 -49 -3 -55 -22 -55 -12 0 -22 -3 -22 -7 -3 -170 0 -198 20 -198 11 0
23 -7 26 -15 7 -17 64 -21 64 -4 0 8 4 8 13 1 6 -5 26 -10 42 -10 17 0 36 5
43 10 8 7 16 7 25 0 6 -5 65 -11 129 -11 l117 -2 4 28 4 28 2 -26 c1 -23 5
-26 31 -24 17 1 33 5 36 8 3 3 2 27 -2 54 l-8 48 -7 -40 c-5 -30 -7 -33 -8
-12 0 15 -5 27 -11 27 -5 0 -10 16 -10 37 0 46 -12 35 -21 -20 l-6 -42 -3 55
-3 55 -7 -60 -6 -60 -8 43 c-5 23 -12 42 -17 42 -5 0 -9 16 -9 35 0 21 -5 34
-11 32 -14 -3 -23 79 -10 87 6 4 15 -3 21 -14 6 -11 17 -20 25 -20 7 0 16 -6
18 -12 3 -7 6 -3 6 9 1 15 11 25 36 33 24 8 35 18 35 31 0 16 -5 18 -32 12
-28 -5 -31 -4 -21 8 7 8 13 50 15 94 3 75 4 78 21 61 16 -17 17 -16 17 3 0 14
-8 23 -25 27 l-25 6 0 299 c0 292 0 299 -20 299 -31 0 -24 14 20 39 22 12 42
26 45 31 9 14 6 13 -58 -27z m-10 -190 c-2 -16 -4 -5 -4 22 0 28 2 40 4 28 2
-13 2 -35 0 -50z m0 -230 c-2 -37 -3 -9 -3 62 0 72 1 102 3 68 2 -34 2 -93 0
-130z m-1270 -142 c11 -5 23 -7 27 -4 3 3 6 -42 6 -100 l0 -107 -62 -1 -63 -1
63 -15 c61 -15 62 -15 62 -49 l0 -34 -102 6 c-57 4 -105 9 -108 11 -6 6 -9
271 -3 298 4 19 9 20 82 14 43 -4 87 -12 98 -18z m396 -33 c40 -12 49 -36 22
-58 -8 -7 -15 -16 -15 -21 0 -5 7 -9 15 -9 12 0 15 -13 15 -58 0 -58 0 -59
-27 -56 -16 2 -81 8 -145 15 l-118 11 0 102 0 102 108 -8 c59 -4 124 -13 145
-20z m-316 -18 c8 -21 7 -42 -2 -64 -9 -21 15 -42 27 -23 4 7 8 -4 8 -25 0
-31 -4 -38 -19 -38 -11 0 -22 -6 -24 -12 -3 -7 -5 37 -5 97 0 61 2 103 5 95 2
-8 7 -22 10 -30z m33 20 c0 -13 -5 -18 -15 -14 -11 5 -12 9 -2 20 16 18 17 17
17 -6z m381 -35 c5 4 10 -23 11 -64 1 -39 2 -79 2 -88 1 -12 -5 -17 -16 -15
-13 2 -18 -4 -18 -23 0 -16 6 -25 15 -25 8 0 16 -9 17 -20 0 -11 1 -26 2 -32
1 -7 -8 -13 -19 -13 -18 0 -20 8 -25 105 -6 134 -2 210 12 187 5 -10 13 -15
19 -12z m128 0 c8 -4 16 -3 20 4 4 6 8 -34 9 -89 l1 -101 -60 3 -59 3 0 101 0
101 38 -7 c21 -4 44 -10 51 -15z m110 -107 c3 -77 3 -78 -21 -78 -22 0 -24 4
-26 63 -1 34 1 77 4 95 5 31 6 31 22 15 12 -12 18 -38 21 -95z m484 79 c4 3 7
-42 7 -100 0 -86 -3 -107 -14 -107 -12 0 -15 22 -18 109 -2 78 0 107 8 100 6
-5 14 -6 17 -2z m-1103 -12 c0 -8 -7 -15 -15 -15 -13 0 -14 3 -3 15 16 18 18
18 18 0z m1050 -85 c0 -82 -3 -100 -15 -100 -12 0 -15 18 -15 100 0 82 3 100
15 100 12 0 15 -18 15 -100z m-85 -30 c0 -41 -4 -60 -12 -60 -9 0 -13 19 -13
60 0 41 4 60 13 60 8 0 12 -19 12 -60z m-1008 -72 c-2 -13 -4 -5 -4 17 -1 22
1 32 4 23 2 -10 2 -28 0 -40z m128 31 c22 3 74 3 115 -1 41 -4 85 -6 98 -3 20
5 22 2 22 -36 l0 -42 -57 6 c-32 4 -97 9 -145 13 l-88 7 0 36 c0 20 4 31 8 25
4 -8 21 -9 47 -5z m363 -43 c9 -3 23 -15 30 -26 11 -19 10 -20 -23 -20 -35 0
-35 0 -34 43 1 23 3 34 6 25 2 -9 12 -19 21 -22z m151 -37 c6 10 10 9 14 -3 5
-11 1 -16 -13 -16 -16 0 -20 6 -19 33 l2 32 4 -29 c3 -19 7 -25 12 -17z m-799
-74 c-7 -9 -15 -13 -19 -10 -3 3 1 10 9 15 21 14 24 12 10 -5z"/>
<path d="M2936 1148 c7 -72 15 -85 32 -58 10 16 9 18 -3 14 -11 -5 -15 2 -15
28 0 19 5 39 11 45 14 14 3 33 -17 33 -12 0 -14 -11 -8 -62z"/>
<path d="M3220 1125 c0 -28 4 -44 10 -40 6 3 10 21 10 40 0 19 -4 37 -10 40
-6 4 -10 -12 -10 -40z"/>
<path d="M3418 1023 c-5 -246 -3 -501 4 -497 8 5 11 624 3 624 -3 0 -6 -57 -7
-127z"/>
<path d="M3347 1003 c-11 -17 -20 -443 -11 -443 5 0 8 17 6 38 -2 20 1 120 7
222 6 101 9 186 7 188 -2 2 -6 -1 -9 -5z"/>
<path d="M133 586 c-4 -8 -7 -143 -5 -300 l3 -286 39 0 40 0 0 295 c0 284 -1
295 -19 295 -11 0 -26 3 -34 6 -8 3 -19 -1 -24 -10z"/>
<path d="M89 543 c-13 -16 -12 -17 4 -4 9 7 17 15 17 17 0 8 -8 3 -21 -13z"/>
<path d="M49 507 c-1 -6 -2 -23 -2 -37 -2 -18 -9 -26 -25 -28 l-22 -3 0 -220
c0 -183 2 -219 14 -219 25 0 29 38 21 227 -5 131 -4 183 4 183 8 0 11 -62 11
-205 l0 -205 36 0 36 0 -6 257 -6 256 -30 4 c-19 2 -30 -2 -31 -10z"/>
<path d="M3071 494 c0 -11 3 -14 6 -6 3 7 2 16 -1 19 -3 4 -6 -2 -5 -13z"/>
<path d="M5416 435 c-3 -9 0 -15 9 -15 9 0 12 6 9 15 -4 8 -7 15 -9 15 -2 0
-5 -7 -9 -15z"/>
<path d="M3075 420 c-3 -5 -1 -10 4 -10 6 0 11 5 11 10 0 6 -2 10 -4 10 -3 0
-8 -4 -11 -10z"/>
<path d="M3200 418 c0 -7 5 -20 10 -28 8 -12 10 -9 10 13 0 15 -4 27 -10 27
-5 0 -10 -6 -10 -12z"/>
<path d="M5520 420 c0 -5 5 -10 11 -10 5 0 7 5 4 10 -3 6 -8 10 -11 10 -2 0
-4 -4 -4 -10z"/>
<path d="M7260 388 c0 -18 5 -40 10 -48 7 -11 10 -2 10 33 0 26 -4 47 -10 47
-5 0 -10 -15 -10 -32z"/>
<path d="M5415 398 c-3 -7 -4 -98 -2 -203 l2 -190 79 -2 78 -2 -4 165 c-3 124
-7 167 -17 173 -8 5 -10 14 -6 20 8 13 -12 41 -29 41 -6 0 -4 -5 4 -11 11 -8
3 -9 -30 -4 -25 3 -46 10 -48 15 -5 14 -22 12 -27 -2z m66 -46 c-7 -2 -18 1
-23 6 -8 8 -4 9 13 5 13 -4 18 -8 10 -11z m14 -62 c4 -6 -6 -10 -24 -10 -16 0
-33 5 -36 10 -4 6 6 10 24 10 16 0 33 -4 36 -10z m-5 -112 c0 -18 -2 -20 -9
-8 -6 8 -7 18 -5 22 9 14 14 9 14 -14z m10 -132 c0 -3 -4 -8 -10 -11 -5 -3
-10 -1 -10 4 0 6 5 11 10 11 6 0 10 -2 10 -4z"/>
<path d="M3122 380 c0 -14 2 -19 5 -12 2 6 2 18 0 25 -3 6 -5 1 -5 -13z"/>
<path d="M3070 379 c0 -5 5 -7 10 -4 6 3 10 8 10 11 0 2 -4 4 -10 4 -5 0 -10
-5 -10 -11z"/>
<path d="M3500 369 c0 -17 3 -18 20 -9 11 6 20 14 20 18 0 4 -9 8 -20 9 -14 1
-20 -4 -20 -18z"/>
<path d="M3417 333 c-10 -88 -8 -323 3 -323 6 0 10 68 10 185 0 102 -2 185 -4
185 -2 0 -6 -21 -9 -47z"/>
<path d="M3082 340 c0 -14 2 -19 5 -12 2 6 2 18 0 25 -3 6 -5 1 -5 -13z"/>
<path d="M1420 330 c0 -5 7 -7 15 -4 8 4 15 8 15 10 0 2 -7 4 -15 4 -8 0 -15
-4 -15 -10z"/>
<path d="M3229 290 c0 -8 -1 -40 -1 -70 l-1 -55 -4 53 c-4 54 -22 73 -24 25
-2 -24 -2 -25 -6 -5 -4 19 -25 34 -22 15 4 -25 -4 -24 -16 2 -10 20 -14 23
-12 10 1 -11 -3 -19 -10 -18 -7 2 -17 -14 -22 -35 -10 -38 -10 -92 -1 -92 3 0
5 -26 5 -58 l0 -57 70 0 c69 0 70 0 76 30 l6 30 4 -30 c4 -29 6 -30 61 -32
l57 -2 3 87 c2 48 0 97 -4 110 -11 33 -41 24 -49 -13 l-7 -30 -1 33 c-1 20 -6
32 -15 32 -8 0 -16 10 -18 22 -2 12 -9 23 -17 26 -8 3 -11 0 -7 -7 4 -6 4 -21
0 -33 -6 -20 -7 -21 -20 -4 -7 10 -10 24 -7 31 2 8 0 22 -6 32 -8 14 -11 15
-12 3z m31 -120 c0 -5 -4 -10 -10 -10 -5 0 -10 5 -10 10 0 6 5 10 10 10 6 0
10 -4 10 -10z m7 -82 c-2 -13 -4 -5 -4 17 -1 22 1 32 4 23 2 -10 2 -28 0 -40z"/>
<path d="M4810 116 c0 -61 4 -106 10 -106 19 0 30 40 30 109 0 105 19 86 22
-21 2 -75 6 -93 18 -93 11 0 17 15 21 50 9 74 18 97 35 91 9 -3 12 -1 9 4 -3
6 -13 10 -21 10 -17 0 -17 5 -4 31 9 17 7 19 -17 19 -15 0 -45 3 -65 6 l-38 7
0 -107z"/>
<path d="M3447 102 c-8 -86 -6 -114 8 -100 3 3 4 48 3 99 l-3 94 -8 -93z"/>
<path d="M1942 130 c0 -19 2 -27 5 -17 2 9 2 25 0 35 -3 9 -5 1 -5 -18z"/>
<path d="M2201 117 c1 -18 3 -24 6 -14 2 9 9 15 14 12 5 -4 9 0 9 8 0 8 -7 17
-15 21 -12 4 -15 -2 -14 -27z"/>
<path d="M7280 76 c0 -58 3 -77 13 -73 8 3 11 23 9 68 -5 94 -22 98 -22 5z"/>
<path d="M5180 50 c19 -13 30 -13 30 0 0 6 -10 10 -22 10 -19 0 -20 -2 -8 -10z"/>
<path d="M5220 49 c0 -5 5 -7 10 -4 6 3 10 8 10 11 0 2 -4 4 -10 4 -5 0 -10
-5 -10 -11z"/>
<path d="M479 32 c-12 -11 -18 -22 -13 -25 6 -3 23 5 40 18 21 17 24 24 13 25
-9 0 -27 -8 -40 -18z"/>
<path d="M7015 10 c3 -5 8 -10 11 -10 2 0 4 5 4 10 0 6 -5 10 -11 10 -5 0 -7
-4 -4 -10z"/>
</g>
</svg>
