<?xml version="1.0" standalone="no"?>
<!DOCTYPE svg PUBLIC "-//W3C//DTD SVG 20010904//EN"
 "http://www.w3.org/TR/2001/REC-SVG-20010904/DTD/svg10.dtd">
<svg version="1.0" xmlns="http://www.w3.org/2000/svg"
 width="1667.000000pt" height="1539.000000pt" viewBox="0 0 1667.000000 1539.000000"
 preserveAspectRatio="xMidYMid meet">

<g transform="translate(0.000000,1539.000000) scale(0.100000,-0.100000)"
fill="#000000" stroke="none">
<path d="M8416 11634 c-14 -55 -17 -117 -16 -373 l2 -306 -68 -5 c-65 -5 -68
-6 -77 -35 -5 -16 -12 -75 -15 -130 l-7 -100 -61 -3 -62 -3 -16 -64 c-9 -38
-16 -105 -16 -165 l0 -100 -59 0 -59 0 -15 -62 c-13 -56 -14 -268 -10 -1825
l6 -1763 -64 0 -64 0 0 267 c0 148 -1 611 -2 1031 -3 668 -5 762 -18 762 -13
0 -15 99 -17 807 l-3 807 -239 -329 c-132 -182 -291 -401 -354 -487 -63 -87
-116 -158 -118 -158 -2 0 -32 15 -66 32 -57 30 -72 33 -148 33 -100 0 -140
-16 -209 -82 l-45 -43 -215 0 -216 0 -115 45 c-114 45 -116 45 -236 45 -120 0
-120 0 -162 -32 -24 -19 -47 -47 -54 -68 -10 -27 -13 -314 -13 -1332 l1 -1298
-77 0 -77 0 -6 1438 c-7 1760 -14 2495 -22 2545 l-7 37 -92 0 -92 0 -7 70 -7
70 -124 0 -124 0 -3 -72 -3 -73 -204 -3 -204 -2 6 -220 6 -220 -25 0 -25 0 5
-1206 c3 -664 7 -1209 10 -1212 11 -10 6 -232 -4 -232 -5 0 -10 -20 -10 -45 0
-25 5 -45 10 -45 13 0 13 -227 0 -235 -5 -3 -10 -24 -10 -46 0 -21 5 -39 10
-39 6 0 10 -47 10 -120 0 -73 -4 -120 -10 -120 -5 0 -10 -18 -10 -40 0 -22 5
-40 10 -40 6 0 10 -38 10 -95 l0 -95 -285 0 c-278 0 -285 0 -285 20 0 19 7 20
160 20 l160 0 0 35 0 35 -160 0 -160 0 0 25 0 25 160 0 160 0 0 40 0 40 -160
0 -160 0 0 25 0 25 160 0 160 0 0 35 0 35 -160 0 -160 0 0 25 0 25 160 0 160
0 0 42 0 41 -160 -6 c-151 -5 -159 -5 -165 14 -4 10 -3 23 0 29 4 6 69 10 166
10 l159 0 0 35 0 35 -165 0 -165 0 0 25 0 25 165 0 165 0 0 39 0 39 -162 -1
c-159 -2 -163 -1 -166 19 -4 28 32 34 201 34 l127 0 0 35 0 35 -165 0 -165 0
0 25 0 25 165 0 165 0 0 35 0 35 -162 2 c-157 3 -163 4 -166 24 -3 20 3 21
110 27 62 4 137 7 166 7 l52 0 0 35 0 35 -165 0 -165 0 0 25 0 25 165 0 165 0
0 35 0 35 -165 0 -165 0 0 25 0 25 128 0 c70 0 144 3 165 6 34 6 37 9 37 40
l0 34 -165 0 -165 0 0 25 0 25 165 0 165 0 0 35 0 35 -165 0 -165 0 0 25 0 25
165 0 165 0 0 40 0 40 -165 0 -165 0 0 25 0 25 165 0 165 0 0 35 0 35 -165 0
-165 0 0 25 0 25 165 0 165 0 0 100 0 100 -174 0 -174 0 -5 238 c-2 130 -8
247 -12 259 -7 22 -8 22 -199 17 -105 -2 -205 -4 -221 -4 l-31 0 3 -92 c1 -51
4 -612 6 -1245 l3 -1153 -188 0 -188 0 0 78 0 77 52 25 c77 37 111 85 116 164
3 51 0 71 -19 107 -12 25 -23 65 -24 92 -3 85 -64 142 -150 142 -83 0 -145
-56 -150 -137 -1 -24 -12 -59 -24 -78 -64 -106 -25 -236 87 -290 l52 -25 0
-77 0 -78 -225 0 -225 0 0 53 c1 51 1 52 43 72 58 27 87 74 87 139 0 28 -6 60
-14 71 -7 11 -16 40 -19 65 -7 56 -60 110 -107 110 -63 0 -120 -53 -120 -111
0 -13 -10 -42 -21 -67 -39 -80 -13 -165 64 -207 35 -19 37 -22 37 -72 l0 -53
-205 0 -205 0 0 53 c0 52 0 53 42 72 77 36 111 130 74 203 -7 15 -16 47 -19
72 -4 33 -14 52 -36 72 -41 36 -70 43 -114 25 -42 -18 -68 -53 -72 -99 -2 -18
-13 -51 -24 -73 -12 -21 -21 -49 -21 -61 0 -57 42 -117 98 -140 31 -14 32 -17
32 -69 l0 -55 -45 0 -45 0 0 -75 0 -75 6530 0 6530 0 0 75 0 75 -80 0 -80 0 0
55 c0 51 2 56 28 66 89 34 124 139 74 219 -9 14 -15 36 -14 50 5 61 -76 129
-138 115 -42 -9 -81 -56 -87 -106 -3 -24 -12 -56 -19 -71 -37 -73 -3 -167 74
-203 42 -19 42 -20 42 -72 l0 -53 -205 0 -205 0 0 55 c0 52 1 55 35 71 76 36
108 138 66 209 -11 20 -21 47 -21 61 0 59 -58 114 -120 114 -58 0 -110 -57
-110 -122 0 -18 -7 -42 -15 -52 -9 -12 -15 -42 -15 -71 0 -66 29 -112 87 -140
42 -20 42 -21 43 -72 l0 -53 -225 0 -225 0 0 78 0 77 52 25 c34 16 62 40 83
68 26 38 30 52 30 110 0 54 -5 75 -25 107 -14 22 -23 48 -22 58 2 10 -2 34 -9
55 -34 109 -159 145 -244 71 -36 -32 -61 -95 -51 -132 3 -12 -4 -33 -17 -51
-18 -25 -22 -45 -22 -108 0 -70 3 -79 30 -115 17 -21 54 -49 83 -63 l52 -25 0
-77 0 -78 -169 0 -170 0 -4 1483 c-3 815 -8 1499 -12 1520 -7 34 -10 37 -41
37 l-35 0 3 -182 3 -183 -70 0 -70 0 -2 135 c-3 187 -7 224 -27 228 -12 3 -16
15 -16 46 0 24 -3 64 -6 90 l-7 46 -318 0 -319 0 0 -125 0 -125 -46 0 -47 0 5
-430 4 -431 -25 -5 c-165 -33 -244 -115 -259 -270 -6 -61 -9 -69 -29 -72 -22
-3 -23 -7 -23 -103 0 -81 3 -99 15 -99 8 0 15 -4 15 -10 0 -5 -7 -10 -15 -10
-12 0 -15 -13 -15 -55 0 -42 3 -55 15 -55 8 0 15 -4 15 -10 0 -5 -7 -10 -15
-10 -12 0 -15 -20 -15 -120 0 -100 3 -120 15 -120 8 0 15 -4 15 -10 0 -5 -7
-10 -15 -10 -12 0 -15 -13 -15 -55 0 -42 3 -55 15 -55 8 0 15 -4 15 -10 0 -5
-7 -10 -15 -10 -12 0 -15 -13 -15 -55 0 -42 3 -55 15 -55 8 0 15 -4 15 -10 0
-5 -7 -10 -15 -10 -12 0 -15 -13 -15 -55 0 -42 3 -55 15 -55 8 0 15 -4 15 -10
0 -5 -7 -10 -15 -10 -12 0 -15 -13 -15 -55 0 -42 3 -55 15 -55 8 0 15 -4 15
-10 0 -5 -7 -10 -15 -10 -12 0 -15 -13 -15 -55 0 -42 3 -55 15 -55 8 0 15 -4
15 -10 0 -5 -7 -10 -15 -10 -12 0 -15 -13 -15 -55 0 -42 3 -55 15 -55 8 0 15
-4 15 -10 0 -5 -7 -10 -15 -10 -12 0 -15 -13 -15 -55 0 -42 3 -55 15 -55 8 0
15 -4 15 -10 0 -5 -7 -10 -15 -10 -12 0 -15 -13 -15 -55 0 -42 3 -55 15 -55 8
0 15 -4 15 -10 0 -5 -7 -10 -15 -10 -12 0 -15 -13 -15 -55 l0 -55 -99 0 -99 0
-2 1028 c-1 565 -5 1155 -9 1312 l-6 285 -33 67 c-96 196 -350 324 -662 331
l-85 2 -3 168 -2 167 -34 0 c-32 0 -34 -3 -46 -47 -10 -38 -12 -394 -11 -1680
l3 -1633 -121 0 -121 0 0 1525 0 1525 -85 0 -85 0 0 175 0 175 -705 0 -704 0
-12 -37 c-8 -25 -14 -129 -16 -298 -3 -143 -8 -262 -13 -265 -4 -3 -14 -30
-22 -60 -12 -47 -14 -257 -10 -1397 l5 -1343 -117 0 -116 0 -2 1428 c-2 785
-3 1505 -3 1600 0 172 0 172 -22 172 l-23 0 0 240 0 240 -45 0 c-33 0 -45 -4
-45 -15 0 -8 -4 -15 -10 -15 -6 0 -10 62 -10 165 l0 164 -87 3 -88 3 0 133 0
132 -67 0 -68 0 0 375 0 375 -44 0 -44 0 -16 -66z m-3732 -2541 c3 -775 7
-1630 10 -1900 l3 -493 -27 0 -28 0 -6 1448 c-3 796 -8 1651 -10 1900 l-3 452
27 0 28 0 6 -1407z m86 745 c0 -365 3 -1220 7 -1900 l6 -1238 -25 0 -26 0 -6
673 c-3 369 -8 1224 -11 1900 l-6 1227 31 0 30 0 0 -662z m84 -30 c3 -381 8
-1236 11 -1900 l6 -1208 -31 0 -30 0 0 638 c0 351 -3 1206 -7 1900 l-6 1262
25 0 26 0 6 -692z m90 -745 c3 -791 7 -1646 9 -1900 l3 -463 -27 0 -27 0 -6
1378 c-3 757 -8 1612 -10 1900 l-3 522 27 0 28 0 6 -1437z m86 754 c0 -376 3
-1231 7 -1900 l6 -1217 -25 0 -26 0 -6 643 c-3 353 -8 1208 -11 1900 l-6 1257
31 0 30 0 0 -683z m84 -594 c3 -703 8 -1558 10 -1900 l4 -623 -23 0 -23 0 -6
453 c-3 248 -8 1103 -11 1900 l-6 1447 24 0 25 0 6 -1277z m90 -200 c3 -813 7
-1668 9 -1900 l3 -423 -27 0 -27 0 -6 1348 c-3 741 -8 1596 -10 1900 l-4 552
28 0 28 0 6 -1477z m80 1455 c3 -13 8 -868 11 -1900 l7 -1878 -25 0 -25 0 -6
603 c-3 331 -8 1186 -11 1900 l-6 1297 25 0 c19 0 27 -6 30 -22z m90 -740 c3
-420 8 -1275 11 -1900 l6 -1138 -31 0 -30 0 0 588 c0 323 -3 1178 -7 1900 l-6
1312 25 0 26 0 6 -762z m2746 -835 c-1 -687 1 -1463 2 -1725 l4 -478 -36 0
-37 0 -6 422 c-4 232 -7 1008 -7 1725 l0 1303 40 0 40 0 0 -1247z m140 1245
c1 -2 4 -778 7 -1725 l6 -1723 -41 0 -42 0 0 1238 c0 680 -3 1456 -7 1725 l-6
487 41 0 c23 0 42 -1 42 -2z m150 -686 c0 -379 3 -1155 7 -1725 l6 -1037 -40
0 -40 0 -6 1292 c-4 710 -7 1486 -7 1725 l0 433 40 0 40 0 0 -688z m150 -810
c0 -824 3 -1601 7 -1725 l6 -227 -40 0 -40 0 -6 533 c-4 292 -7 1069 -7 1725
l0 1192 40 0 40 0 0 -1498z m144 656 c4 -464 8 -1240 9 -1726 l2 -882 -42 0
-43 0 0 1343 c0 738 -3 1514 -7 1725 l-6 382 40 0 41 0 6 -842z m129 -50 c4
-491 7 -1268 7 -1725 l0 -833 -30 0 -30 0 0 583 c0 321 -3 1097 -7 1725 l-6
1142 30 0 30 0 6 -892z m-1176 615 c-3 -2 -15 -3 -26 -1 l-21 3 22 32 23 32 3
-30 c2 -17 1 -33 -1 -36z m1688 -3172 c-3 -2 -7 -2 -9 0 -5 4 -9 3196 -5 3214
1 6 6 -714 10 -1599 5 -885 6 -1612 4 -1615z m1267 1601 c2 -881 0 -1602 -4
-1602 -5 0 -8 357 -8 793 0 435 -3 1161 -6 1612 -5 588 -3 817 4 810 8 -7 12
-480 14 -1613z m-1122 1538 l0 -50 -45 0 -45 0 0 50 0 50 45 0 45 0 0 -50z
m170 0 l0 -50 -40 0 -40 0 0 50 0 50 40 0 40 0 0 -50z m180 0 l0 -50 -50 0
-50 0 0 50 0 50 50 0 50 0 0 -50z m170 0 l0 -50 -45 0 -45 0 0 50 0 50 45 0
45 0 0 -50z m170 0 l0 -50 -40 0 -40 0 0 50 0 50 40 0 40 0 0 -50z m180 0 l0
-50 -50 0 -50 0 0 50 0 50 50 0 50 0 0 -50z m170 0 l0 -50 -45 0 -45 0 0 50 0
50 45 0 45 0 0 -50z m-2870 -85 l0 -45 -50 0 -50 0 0 45 0 45 50 0 50 0 0 -45z
m5118 -32 l3 -63 -29 0 c-28 0 -30 2 -37 55 -8 65 -2 77 33 73 26 -3 27 -6 30
-65z m212 2 l0 -65 -30 0 -30 0 0 65 0 65 30 0 30 0 0 -65z m210 0 l0 -65 -30
0 -30 0 0 65 0 65 30 0 30 0 0 -65z m-320 -688 c0 -393 3 -1079 7 -1525 l6
-812 -36 0 -37 0 0 558 c0 306 -3 992 -7 1525 l-6 967 36 0 37 0 0 -713z m223
-339 c4 -578 7 -1264 7 -1525 l0 -473 -29 0 -29 0 -6 143 c-3 78 -7 764 -10
1525 l-4 1382 32 0 33 0 6 -1052z m-3613 962 l0 -50 -45 0 -45 0 0 50 0 50 45
0 45 0 0 -50z m170 0 l0 -50 -40 0 -40 0 0 50 0 50 40 0 40 0 0 -50z m350 0
l0 -50 -45 0 -45 0 0 50 0 50 45 0 45 0 0 -50z m180 0 l0 -50 -50 0 -50 0 0
50 0 50 50 0 50 0 0 -50z m170 0 l0 -50 -50 0 -50 0 0 50 0 50 50 0 50 0 0
-50z m170 0 l0 -50 -45 0 -45 0 0 50 0 50 45 0 45 0 0 -50z m-3070 -55 c0 -34
-1 -35 -36 -35 -33 0 -35 2 -23 18 48 63 59 67 59 17z m200 0 c0 -35 0 -35
-45 -35 -45 0 -45 0 -45 35 0 35 0 35 45 35 45 0 45 0 45 -35z m5118 -62 l3
-63 -31 0 -30 0 0 66 0 65 28 -3 c26 -3 27 -6 30 -65z m212 2 l0 -65 -30 0
-30 0 0 65 0 65 30 0 30 0 0 -65z m-2190 -60 l0 -55 -60 0 -60 0 0 55 0 55 60
0 60 0 0 -55z m-1310 -10 l0 -55 -45 0 -45 0 0 55 0 55 45 0 45 0 0 -55z m520
0 l0 -55 -45 0 -45 0 0 55 0 55 45 0 45 0 0 -55z m175 0 l0 -50 -45 0 -45 0
-3 53 -3 53 48 -3 48 -3 0 -50z m175 -1 l0 -55 -47 3 c-45 3 -48 5 -51 32 -2
15 -1 39 2 52 6 21 12 24 51 24 l45 0 0 -56z m170 1 l0 -55 -45 0 -45 0 0 55
0 55 45 0 45 0 0 -55z m-870 0 l0 -45 -40 0 -40 0 0 45 0 45 40 0 40 0 0 -45z
m180 0 l0 -45 -45 0 -45 0 0 45 0 45 45 0 45 0 0 -45z m1500 -20 l0 -55 -55 0
-55 0 0 55 0 55 55 0 55 0 0 -55z m1313 -562 c4 -339 7 -971 7 -1405 0 -650
-2 -788 -13 -788 -11 0 -15 180 -20 1022 -10 1552 -10 1788 6 1788 11 0 15
-112 20 -617z m-4991 566 c2 -22 2 -42 -1 -45 -2 -2 -26 -4 -53 -4 l-48 0 0
45 0 45 49 0 49 0 4 -41z m-202 -4 c0 -35 0 -35 -45 -35 -45 0 -45 0 -45 35 0
35 0 35 45 35 45 0 45 0 45 -35z m5318 -91 l3 -62 -31 -4 -30 -5 0 69 0 69 28
-3 c26 -3 27 -6 30 -64z m212 1 l0 -65 -30 0 -30 0 0 65 0 65 30 0 30 0 0 -65z
m210 0 l0 -65 -30 0 c-30 0 -30 0 -30 58 0 65 3 72 37 72 22 0 23 -4 23 -65z
m-2400 -45 l0 -60 -60 0 -60 0 0 60 0 60 60 0 60 0 0 -60z m-3532 -17 l3 -43
-55 0 -56 0 32 45 c43 60 72 59 76 -2z m2227 -8 l0 -50 -47 -3 -48 -3 0 56 0
56 48 -3 47 -3 0 -50z m693 3 l-3 -53 -45 0 -45 0 -3 53 -3 52 51 0 51 0 -3
-52z m342 -3 l0 -55 -45 0 -45 0 0 55 0 55 45 0 45 0 0 -55z m-3070 5 l0 -40
-45 0 -45 0 0 40 0 40 45 0 45 0 0 -40z m200 0 l0 -40 -45 0 -45 0 0 40 0 40
45 0 45 0 0 -40z m2000 -5 l0 -45 -40 0 -40 0 0 45 0 45 40 0 40 0 0 -45z
m180 0 l0 -45 -45 0 -45 0 0 45 0 45 45 0 45 0 0 -45z m170 0 l0 -45 -45 0
-45 0 0 45 0 45 45 0 45 0 0 -45z m1585 -15 c4 -27 4 -54 0 -60 -3 -5 -31 -10
-61 -10 l-54 0 0 60 0 60 54 0 54 0 7 -50z m1395 -75 c0 -43 -1 -45 -30 -45
-28 0 -30 2 -30 38 0 45 5 52 37 52 21 0 23 -5 23 -45z m218 -2 l3 -43 -35 0
c-36 0 -36 0 -36 46 0 45 0 45 33 42 30 -3 32 -6 35 -45z m-428 -3 c0 -38 -2
-40 -30 -40 -28 0 -30 2 -30 40 0 38 2 40 30 40 28 0 30 -2 30 -40z m690 -30
l0 -30 -75 0 c-73 0 -75 1 -75 25 0 22 4 24 58 28 31 2 65 4 75 5 13 2 17 -5
17 -28z m-7267 -462 c4 -265 7 -825 7 -1245 0 -645 -2 -763 -14 -763 -12 0
-14 190 -18 1238 -2 680 -3 1240 -1 1245 16 31 21 -51 26 -475z m107 160 c0
-178 3 -738 7 -1245 6 -817 5 -923 -9 -923 -13 0 -16 147 -22 1235 -3 680 -4
1240 -1 1245 21 34 25 -16 25 -312z m113 -930 c3 -963 2 -1238 -8 -1238 -9 0
-13 158 -18 677 -9 876 -9 1798 0 1807 4 3 10 3 14 -1 4 -5 9 -565 12 -1245z
m105 4 c1 -683 -2 -1242 -6 -1242 -16 0 -22 422 -22 1463 0 819 3 1028 13
1025 9 -4 13 -264 15 -1246z m732 1208 l0 -40 -45 0 -45 0 0 40 0 40 45 0 45
0 0 -40z m200 0 l0 -40 -45 0 -45 0 0 40 0 40 45 0 45 0 0 -40z m200 0 l0 -40
-45 0 -45 0 0 40 0 40 45 0 45 0 0 -40z m-745 8 l45 -22 0 -123 0 -123 -125 0
-125 0 0 125 0 125 33 20 c43 27 114 26 172 -2z m3100 -43 l0 -50 -47 -3 -48
-3 0 56 0 56 48 -3 47 -3 0 -50z m173 -3 l3 -53 -48 3 c-48 3 -48 3 -51 42 -5
59 2 68 50 64 l43 -3 3 -53z m347 3 l0 -50 -47 -3 -48 -3 0 56 0 56 48 -3 47
-3 0 -50z m-875 0 l0 -45 -40 0 -40 0 0 45 0 45 40 0 40 0 0 -45z m180 0 l0
-45 -45 0 -45 0 0 45 0 45 45 0 45 0 0 -45z m520 0 l0 -45 -45 0 -45 0 0 45 0
45 45 0 45 0 0 -45z m980 -35 l0 -60 -55 0 -55 0 0 60 0 60 55 0 55 0 0 -60z
m255 0 l0 -55 -57 -3 -58 -3 0 61 0 61 58 -3 57 -3 0 -55z m245 0 l0 -50 -55
0 -55 0 0 50 0 50 55 0 55 0 0 -50z m-6160 -15 c0 -31 -3 -35 -25 -35 -22 0
-25 4 -25 35 0 31 3 35 25 35 22 0 25 -4 25 -35z m310 0 c0 -31 -3 -35 -25
-35 -22 0 -25 4 -25 35 0 31 3 35 25 35 22 0 25 -4 25 -35z m6790 -45 c0 -49
-1 -50 -30 -50 -29 0 -30 1 -30 50 0 49 1 50 30 50 29 0 30 -1 30 -50z m210 0
c0 -49 -1 -50 -30 -50 -29 0 -30 1 -30 50 0 49 1 50 30 50 29 0 30 -1 30 -50z
m218 3 c3 -42 2 -43 -26 -43 -26 0 -31 4 -36 35 -9 45 -1 57 32 53 24 -3 27
-8 30 -45z m262 17 l0 -30 -75 0 -75 0 0 30 0 30 75 0 75 0 0 -30z m-6210 -40
l0 -40 -45 0 -45 0 0 40 0 40 45 0 45 0 0 -40z m200 0 l0 -40 -45 0 -45 0 0
40 0 40 45 0 45 0 0 -40z m200 0 l0 -40 -45 0 -45 0 0 40 0 40 45 0 45 0 0
-40z m-4056 -72 c4 -46 8 -566 9 -1156 2 -852 -1 -1072 -10 -1072 -10 0 -13
108 -13 508 0 280 -3 800 -7 1155 -4 459 -3 647 4 647 7 0 14 -34 17 -82z m89
-535 c10 -851 9 -1693 -1 -1693 -5 0 -12 244 -15 542 -10 756 -9 1768 1 1768
5 0 12 -277 15 -617z m87 34 c0 -321 3 -841 7 -1155 6 -522 5 -572 -10 -572
-15 0 -16 101 -19 1148 -2 631 -2 1150 0 1155 18 43 22 -58 22 -576z m84 471
c4 -62 8 -582 9 -1156 2 -828 -1 -1042 -10 -1042 -10 0 -13 101 -13 473 0 259
-3 779 -7 1155 -4 480 -3 682 4 682 7 0 14 -44 17 -112z m5631 37 l0 -50 -47
-3 -48 -3 0 56 0 56 48 -3 47 -3 0 -50z m520 0 l0 -50 -47 -3 -48 -3 0 56 0
56 48 -3 47 -3 0 -50z m-355 0 l0 -45 -40 0 -40 0 0 45 0 45 40 0 40 0 0 -45z
m180 0 l0 -45 -45 0 -45 0 0 45 0 45 45 0 45 0 0 -45z m340 0 l0 -45 -40 0
-40 0 0 45 0 45 40 0 40 0 0 -45z m180 0 l0 -45 -45 0 -45 0 0 45 0 45 45 0
45 0 0 -45z m170 0 l0 -45 -45 0 -45 0 0 45 0 45 45 0 45 0 0 -45z m-4850 -20
c0 -31 -3 -35 -25 -35 -22 0 -25 4 -25 35 0 31 3 35 25 35 22 0 25 -4 25 -35z
m310 0 c0 -31 -3 -35 -25 -35 -22 0 -25 4 -25 35 0 31 3 35 25 35 22 0 25 -4
25 -35z m5358 -22 l3 -53 -60 0 -61 0 0 55 0 56 58 -3 57 -3 3 -52z m500 0 l3
-53 -60 0 -61 0 0 55 0 56 58 -3 57 -3 3 -52z m-258 -3 l0 -50 -55 0 -55 0 0
50 0 50 55 0 55 0 0 -50z m1880 20 l0 -30 -75 0 -75 0 0 30 0 30 75 0 75 0 0
-30z m-2660 -45 l0 -65 -65 0 -65 0 0 65 0 65 65 0 65 0 0 -65z m-3550 -15 l0
-40 -45 0 -45 0 0 40 0 40 45 0 45 0 0 -40z m200 0 l0 -40 -45 0 -45 0 0 40 0
40 45 0 45 0 0 -40z m200 0 l0 -40 -45 0 -45 0 0 40 0 40 45 0 45 0 0 -40z
m5118 -12 c-3 -39 -6 -43 -30 -46 -27 -3 -28 -2 -28 42 0 45 1 46 31 46 29 0
30 -1 27 -42z m212 3 c0 -31 -4 -40 -22 -44 -31 -9 -38 -1 -38 44 0 37 2 39
30 39 28 0 30 -2 30 -39z m220 -1 c0 -38 -2 -40 -30 -40 -28 0 -30 2 -30 40 0
38 2 40 30 40 28 0 30 -2 30 -40z m-7220 -76 c0 -44 -1 -45 -27 -42 -22 2 -29
9 -31 31 -5 42 4 57 33 57 23 0 25 -3 25 -46z m970 21 l0 -25 -125 0 -125 0 0
25 0 25 125 0 125 0 0 -25z m6510 -5 l0 -30 -75 0 -75 0 0 30 0 30 75 0 75 0
0 -30z m-7790 -15 c0 -31 -3 -35 -25 -35 -22 0 -25 4 -25 35 0 31 3 35 25 35
22 0 25 -4 25 -35z m3820 -15 l0 -50 -50 0 -50 0 0 50 0 50 50 0 50 0 0 -50z
m164 28 c3 -13 6 -35 6 -50 0 -26 -3 -28 -45 -28 l-45 0 0 50 0 50 39 0 c32 0
40 -4 45 -22z m176 -28 l0 -50 -45 0 -45 0 0 50 0 50 45 0 45 0 0 -50z m340 0
l0 -50 -40 0 -40 0 0 50 0 50 40 0 40 0 0 -50z m180 0 l0 -50 -45 0 -45 0 0
50 0 50 45 0 45 0 0 -50z m180 0 l0 -50 -50 0 -50 0 0 50 0 50 50 0 50 0 0
-50z m268 -47 l3 -63 -66 0 -65 0 0 65 0 66 63 -3 62 -3 3 -62z m542 2 l0 -55
-60 0 -60 0 0 55 0 55 60 0 60 0 0 -55z m500 0 l0 -55 -60 0 -60 0 0 55 0 55
60 0 60 0 0 -55z m-4590 -5 l0 -40 -45 0 -45 0 0 40 0 40 45 0 45 0 0 -40z
m400 0 l0 -40 -45 0 -45 0 0 40 0 40 45 0 45 0 0 -40z m5120 -45 c0 -43 -1
-45 -30 -45 -29 0 -30 2 -30 45 0 43 1 45 30 45 29 0 30 -2 30 -45z m220 0 c0
-45 0 -45 -35 -45 -35 0 -35 0 -35 45 0 45 0 45 35 45 35 0 35 0 35 -45z m208
3 c-3 -39 -6 -43 -30 -46 -27 -3 -28 -2 -28 42 0 45 1 46 31 46 29 0 30 -1 27
-42z m-6248 7 l0 -25 -125 0 -125 0 0 25 0 25 125 0 125 0 0 -25z m6520 -15
l0 -30 -80 0 -80 0 0 30 0 30 80 0 80 0 0 -30z m-7490 -30 c0 -38 -2 -40 -30
-40 -28 0 -30 2 -30 40 0 38 2 40 30 40 28 0 30 -2 30 -40z m-310 -5 c0 -31
-3 -35 -25 -35 -22 0 -25 4 -25 35 0 31 3 35 25 35 22 0 25 -4 25 -35z m3820
-45 l0 -50 -50 0 -50 0 0 50 0 50 50 0 50 0 0 -50z m170 0 l0 -50 -45 0 -45 0
0 50 0 50 45 0 45 0 0 -50z m350 0 l0 -50 -50 0 -50 0 0 50 0 50 50 0 50 0 0
-50z m170 0 l0 -50 -50 0 -50 0 0 50 0 50 50 0 50 0 0 -50z m170 0 l0 -50 -45
0 -45 0 0 50 0 50 45 0 45 0 0 -50z m170 0 l0 -50 -40 0 -40 0 0 50 0 50 40 0
40 0 0 -50z m-2752 -923 c2 -942 2 -947 -18 -947 -20 0 -20 6 -20 951 0 900 1
950 18 947 16 -3 17 -57 20 -951z m4653 927 c5 -15 8 -77 7 -138 l-3 -111 -27
-3 -28 -3 0 128 c0 87 4 133 12 141 18 18 27 15 39 -14z m97 14 c8 -8 12 -54
12 -141 l0 -128 -27 3 -28 3 -3 118 c-3 137 11 180 46 145z m-5268 -38 l0 -40
-45 0 -45 0 0 40 0 40 45 0 45 0 0 -40z m200 0 l0 -40 -45 0 -45 0 0 40 0 40
45 0 45 0 0 -40z m200 -5 c0 -35 0 -35 -45 -35 -45 0 -45 0 -45 35 0 35 0 35
45 35 45 0 45 0 45 -35z m3688 -27 l-3 -53 -57 -3 -58 -3 0 56 0 55 61 0 60 0
-3 -52z m250 0 l-3 -53 -57 -3 -58 -3 0 56 0 55 61 0 60 0 -3 -52z m252 -3 l0
-55 -60 0 -60 0 0 55 0 55 60 0 60 0 0 -55z m-4890 20 l0 -25 -125 0 -125 0 0
25 0 25 125 0 125 0 0 -25z m6515 -15 c0 -24 -2 -25 -77 -28 l-78 -3 0 31 0
31 78 -3 c75 -3 77 -4 77 -28z m-695 -45 c0 -43 -1 -45 -30 -45 -29 0 -30 2
-30 45 0 43 1 45 30 45 29 0 30 -2 30 -45z m210 -1 c0 -44 -1 -45 -27 -42 -22
2 -29 9 -31 31 -5 42 4 57 33 57 23 0 25 -3 25 -46z m218 4 c-3 -39 -6 -43
-30 -46 -27 -3 -28 -2 -28 42 0 45 1 46 31 46 29 0 30 -1 27 -42z m-7528 -13
c0 -31 -3 -35 -25 -35 -22 0 -25 4 -25 35 0 31 3 35 25 35 22 0 25 -4 25 -35z
m310 0 c0 -31 -3 -35 -25 -35 -22 0 -25 4 -25 35 0 31 3 35 25 35 22 0 25 -4
25 -35z m1480 -71 l0 -45 -52 3 c-50 3 -53 5 -56 31 -6 49 3 57 58 57 l50 0 0
-46z m2030 -4 l0 -50 -50 0 -50 0 0 50 0 50 50 0 50 0 0 -50z m170 0 l0 -50
-45 0 c-45 0 -45 0 -45 34 0 19 -3 41 -6 50 -5 13 2 16 45 16 l51 0 0 -50z
m170 0 l0 -50 -45 0 -45 0 0 50 0 50 45 0 45 0 0 -50z m170 0 l0 -50 -40 0
-40 0 0 50 0 50 40 0 40 0 0 -50z m180 0 l0 -50 -50 0 -50 0 0 50 0 50 50 0
50 0 0 -50z m170 0 l0 -50 -45 0 -45 0 0 50 0 50 45 0 45 0 0 -50z m170 0 l0
-50 -40 0 -40 0 0 50 0 50 40 0 40 0 0 -50z m-3570 15 l0 -25 -125 0 -125 0 0
25 0 25 125 0 125 0 0 -25z m300 -10 c0 -35 0 -35 -45 -35 -45 0 -45 0 -45 35
0 35 0 35 45 35 45 0 45 0 45 -35z m400 0 c0 -35 0 -35 -45 -35 -45 0 -45 0
-45 35 0 35 0 35 45 35 45 0 45 0 45 -35z m5815 -5 c0 -24 -2 -25 -77 -28
l-78 -3 0 31 0 31 78 -3 c75 -3 77 -4 77 -28z m-2130 -60 l0 -55 -57 -3 -58
-3 0 61 0 61 58 -3 57 -3 0 -55z m250 0 l0 -55 -55 0 -55 0 -3 44 c-5 67 0 72
60 69 l53 -3 0 -55z m250 0 l0 -55 -55 0 -55 0 -3 44 c-5 67 0 72 60 69 l53
-3 0 -55z m-6165 -5 c0 -31 -3 -35 -25 -35 -22 0 -25 4 -25 35 0 31 3 35 25
35 22 0 25 -4 25 -35z m310 0 c0 -31 -3 -35 -25 -35 -22 0 -25 4 -25 35 0 31
3 35 25 35 22 0 25 -4 25 -35z m6790 -30 c0 -43 -1 -45 -30 -45 -28 0 -30 2
-30 38 0 45 5 52 37 52 21 0 23 -5 23 -45z m215 0 c0 -36 -3 -40 -26 -43 -23
-3 -27 1 -33 33 -9 45 -1 57 32 53 24 -3 27 -7 27 -43z m215 0 c0 -43 -1 -45
-30 -45 -29 0 -30 2 -30 45 0 43 1 45 30 45 29 0 30 -2 30 -45z m-2400 -45 l0
-60 -65 0 -65 0 0 60 0 60 65 0 65 0 0 -60z m-3850 25 l0 -25 -125 0 -125 0 0
25 0 25 125 0 125 0 0 -25z m6520 -9 c0 -30 -16 -36 -96 -36 l-64 0 0 30 0 30
80 0 c78 0 80 -1 80 -24z m-6220 -26 l0 -40 -45 0 -45 0 0 40 0 40 45 0 45 0
0 -40z m200 0 l0 -40 -45 0 -45 0 0 40 0 40 45 0 45 0 0 -40z m200 0 l0 -40
-45 0 -45 0 0 40 0 40 45 0 45 0 0 -40z m1840 -30 l0 -50 -50 0 -50 0 0 50 0
50 50 0 50 0 0 -50z m168 -2 l3 -48 -45 0 -46 0 0 51 0 50 43 -3 42 -3 3 -47z
m172 2 l0 -50 -45 0 -45 0 0 50 0 50 45 0 45 0 0 -50z m180 0 l0 -50 -50 0
-50 0 0 50 0 50 50 0 50 0 0 -50z m170 0 l0 -50 -45 0 -45 0 0 50 0 50 45 0
45 0 0 -50z m350 0 l0 -50 -50 0 -50 0 0 50 0 50 50 0 50 0 0 -50z m-180 -5
l0 -45 -45 0 -45 0 0 45 0 45 45 0 45 0 0 -45z m2070 6 c5 -11 10 -74 10 -140
l0 -121 -30 0 -30 0 0 121 c0 113 9 159 30 159 5 0 14 -9 20 -19z m98 7 c5 -7
13 -68 17 -135 l7 -123 -36 0 -36 0 0 109 c0 137 16 187 48 149z m-6848 -43
c0 -31 -3 -35 -25 -35 -22 0 -25 4 -25 35 0 31 3 35 25 35 22 0 25 -4 25 -35z
m310 0 c0 -31 -3 -35 -25 -35 -22 0 -25 4 -25 35 0 31 3 35 25 35 22 0 25 -4
25 -35z m5600 -35 l0 -50 -50 0 -50 0 0 50 0 50 50 0 50 0 0 -50z m250 0 l0
-50 -50 0 -50 0 0 50 0 50 50 0 50 0 0 -50z m-4880 5 l0 -25 -125 0 -125 0 0
25 0 25 125 0 125 0 0 -25z m5820 -30 c0 -43 -1 -45 -30 -45 -28 0 -30 2 -30
38 0 45 5 52 37 52 21 0 23 -5 23 -45z m218 -2 c3 -42 2 -43 -27 -43 -30 0
-31 1 -31 46 0 44 1 45 28 42 24 -3 27 -7 30 -45z m212 2 c0 -43 -1 -45 -30
-45 -29 0 -30 2 -30 45 0 43 1 45 30 45 29 0 30 -2 30 -45z m270 20 c0 -24 -2
-25 -70 -25 -38 0 -73 0 -77 0 -5 0 -9 11 -11 25 -3 25 -3 25 77 25 80 0 81 0
81 -25z m-2670 -55 l0 -60 -65 0 -65 0 0 60 0 60 65 0 65 0 0 -60z m-3550 10
l0 -40 -45 0 -45 0 0 40 0 40 45 0 45 0 0 -40z m200 0 l0 -40 -45 0 -45 0 0
40 0 40 45 0 45 0 0 -40z m200 0 l0 -40 -45 0 -45 0 0 40 0 40 45 0 45 0 0
-40z m1838 -62 l-3 -53 -45 0 -45 0 -3 39 c-5 58 1 66 53 66 l46 0 -3 -52z
m347 -3 l0 -50 -47 -3 -48 -3 0 56 0 56 48 -3 47 -3 0 -50z m173 3 l-3 -53
-45 0 c-42 0 -45 2 -48 29 -2 15 -1 39 2 52 6 21 12 24 52 24 l45 0 -3 -52z
m347 -3 l0 -50 -47 -3 -48 -3 0 56 0 56 48 -3 47 -3 0 -50z m-4685 10 c0 -31
-3 -35 -25 -35 -22 0 -25 4 -25 35 0 31 3 35 25 35 22 0 25 -4 25 -35z m310 0
c0 -31 -3 -35 -25 -35 -22 0 -25 4 -25 35 0 31 3 35 25 35 22 0 25 -4 25 -35z
m3680 -10 l0 -45 -45 0 -45 0 0 45 0 45 45 0 45 0 0 -45z m520 0 l0 -45 -45 0
-45 0 0 45 0 45 45 0 45 0 0 -45z m340 0 l0 -45 -40 0 -40 0 0 45 0 45 40 0
40 0 0 -45z m-3570 -10 l0 -25 -125 0 -125 0 0 25 0 25 125 0 125 0 0 -25z
m6520 -10 c0 -25 -1 -25 -80 -25 -79 0 -80 0 -80 25 0 25 1 25 80 25 79 0 80
0 80 -25z m-2130 -50 l0 -55 -60 0 -60 0 0 55 0 55 60 0 60 0 0 -55z m250 0
l0 -55 -60 0 -60 0 0 55 0 55 60 0 60 0 0 -55z m240 38 c0 -10 3 -35 6 -55 l7
-38 -57 0 -56 0 0 55 0 55 50 0 c41 0 50 -3 50 -17z m-4570 -53 l0 -40 -50 0
-50 0 0 40 0 40 50 0 50 0 0 -40z m390 0 l0 -40 -45 0 -45 0 0 40 0 40 45 0
45 0 0 -40z m5125 -10 c0 -43 -1 -45 -32 -48 l-33 -3 0 51 0 51 33 -3 c31 -3
32 -5 32 -48z m213 2 c3 -41 2 -42 -27 -42 -29 0 -31 2 -31 39 0 29 5 41 18
44 30 8 37 1 40 -41z m212 3 c0 -43 -1 -45 -30 -45 -29 0 -30 2 -30 45 0 43 1
45 30 45 29 0 30 -2 30 -45z m-7530 -50 c0 -31 -3 -35 -25 -35 -22 0 -25 4
-25 35 0 31 3 35 25 35 22 0 25 -4 25 -35z m310 0 c0 -31 -3 -35 -25 -35 -22
0 -25 4 -25 35 0 31 3 35 25 35 22 0 25 -4 25 -35z m970 10 l0 -25 -125 0
-125 0 0 25 0 25 125 0 125 0 0 -25z m2535 -50 l0 -50 -45 0 -45 0 -3 39 c-5
59 2 68 50 64 l43 -3 0 -50z m695 0 l0 -55 -45 0 -45 0 0 55 0 55 45 0 45 0 0
-55z m345 0 l0 -50 -45 0 -45 0 -3 39 c-5 59 2 68 50 64 l43 -3 0 -50z m2945
30 c0 -25 -1 -25 -80 -25 -79 0 -80 0 -80 25 0 25 1 25 80 25 79 0 80 0 80
-25z m-3810 -30 l0 -45 -45 0 -45 0 0 45 0 45 45 0 45 0 0 -45z m170 -1 l0
-45 -42 3 c-43 3 -43 3 -46 46 l-3 42 45 0 46 0 0 -46z m170 1 l0 -45 -40 0
-40 0 0 45 0 45 40 0 40 0 0 -45z m2420 -4 c5 -11 10 -72 10 -135 l0 -116 -30
0 -30 0 0 116 c0 109 9 154 30 154 5 0 14 -9 20 -19z m108 -6 c7 -15 12 -74
12 -135 l0 -110 -29 0 c-28 0 -28 1 -35 77 -9 114 -8 146 10 171 20 28 28 28
42 -3z m-5268 -45 l0 -40 -50 0 -50 0 0 40 0 40 50 0 50 0 0 -40z m200 0 l0
-40 -50 0 -50 0 0 40 0 40 50 0 50 0 0 -40z m190 23 c0 -10 3 -28 6 -40 6 -22
3 -23 -45 -23 l-51 0 0 40 0 40 45 0 c36 0 45 -3 45 -17z m3690 -48 l0 -55
-60 0 -60 0 0 55 0 55 60 0 60 0 0 -55z m500 0 l0 -55 -55 0 -55 0 0 55 0 55
55 0 55 0 0 -55z m-4880 0 l0 -25 -130 0 -130 0 0 25 0 25 130 0 130 0 0 -25z
m5818 -17 c-3 -40 -5 -43 -35 -46 -33 -3 -33 -3 -33 42 0 46 0 46 36 46 l35 0
-3 -42z m212 2 c0 -38 -2 -40 -30 -40 -28 0 -30 2 -30 40 0 38 2 40 30 40 28
0 30 -2 30 -40z m210 0 c0 -38 -2 -40 -30 -40 -28 0 -30 2 -30 40 0 38 2 40
30 40 28 0 30 -2 30 -40z m-7530 -15 c0 -31 -3 -35 -25 -35 -22 0 -25 4 -25
35 0 31 3 35 25 35 22 0 25 -4 25 -35z m310 0 c0 -31 -3 -35 -25 -35 -22 0
-25 4 -25 35 0 31 3 35 25 35 22 0 25 -4 25 -35z m7490 10 c0 -25 -1 -25 -80
-25 -79 0 -80 0 -80 25 0 25 1 25 80 25 79 0 80 0 80 -25z m-3980 -81 l0 -55
-47 3 c-48 3 -48 3 -51 42 -5 58 1 66 53 66 l45 0 0 -56z m170 1 l0 -55 -45 0
-45 0 0 55 0 55 45 0 45 0 0 -55z m348 -3 l3 -53 -48 3 c-48 3 -48 3 -51 42
-5 59 2 68 50 64 l43 -3 3 -53z m172 3 l0 -55 -45 0 -45 0 0 55 0 55 45 0 45
0 0 -55z m175 0 l0 -50 -47 -3 -48 -3 0 49 c0 27 3 52 7 56 4 4 25 6 48 4 l40
-3 0 -50z m173 -3 l3 -53 -48 3 c-48 3 -48 3 -51 42 -5 59 2 68 50 64 l43 -3
3 -53z m-698 3 l0 -45 -40 0 -40 0 0 45 0 45 40 0 40 0 0 -45z m970 -25 l0
-60 -65 0 -65 0 0 60 0 60 65 0 65 0 0 -60z m-3540 -5 l0 -45 -50 0 -50 0 0
45 0 45 50 0 50 0 0 -45z m200 5 l0 -40 -50 0 -50 0 0 40 0 40 50 0 50 0 0
-40z m-500 -5 l0 -25 -130 0 -130 0 0 25 0 25 130 0 130 0 0 -25z m4378 -57
l3 -58 -61 0 -60 0 0 53 c0 30 3 57 7 61 4 4 30 6 58 4 l50 -3 3 -57z m250 -1
l3 -58 -58 3 -58 3 -3 44 c-5 67 0 72 60 69 l53 -3 3 -58z m252 3 l0 -61 -57
3 -58 3 -3 44 c-5 66 0 71 63 71 l55 0 0 -60z m1630 35 c0 -25 -1 -25 -80 -25
-79 0 -80 0 -80 25 0 25 1 25 80 25 79 0 80 0 80 -25z m-7800 -20 c0 -31 -3
-35 -25 -35 -22 0 -25 4 -25 35 0 31 3 35 25 35 22 0 25 -4 25 -35z m310 0 c0
-31 -3 -35 -25 -35 -22 0 -25 4 -25 35 0 31 3 35 25 35 22 0 25 -4 25 -35z
m7220 -25 c0 -49 -1 -50 -30 -50 -29 0 -30 1 -30 50 0 49 1 50 30 50 29 0 30
-1 30 -50z m-420 -5 c0 -45 0 -45 -35 -45 -35 0 -35 0 -35 45 0 45 0 45 35 45
35 0 35 0 35 -45z m208 3 c-3 -39 -6 -43 -30 -46 -27 -3 -28 -2 -28 42 0 45 1
46 31 46 29 0 30 -1 27 -42z m-2188 -93 l0 -65 -60 0 -60 0 0 65 0 65 60 0 60
0 0 -65z m-3840 30 l0 -25 -130 0 -130 0 0 25 0 25 130 0 130 0 0 -25z m298
-17 l3 -38 -50 0 -51 0 0 41 0 40 48 -3 c47 -3 47 -3 50 -40z m200 0 l3 -38
-50 0 -51 0 0 41 0 40 48 -3 c47 -3 47 -3 50 -40z m202 2 l0 -40 -50 0 -50 0
0 40 0 40 50 0 50 0 0 -40z m1830 -11 l0 -50 -47 3 -48 3 -3 48 -3 47 50 0 51
0 0 -51z m170 1 l0 -50 -45 0 -45 0 0 50 0 50 45 0 45 0 0 -50z m350 5 l0 -45
-45 0 -45 0 0 45 0 45 45 0 45 0 0 -45z m170 -5 l0 -50 -45 0 -45 0 0 50 0 50
45 0 45 0 0 -50z m350 5 l0 -45 -45 0 -45 0 0 45 0 45 45 0 45 0 0 -45z m2940
0 c0 -25 -1 -25 -80 -25 -79 0 -80 0 -80 25 0 25 1 25 80 25 79 0 80 0 80 -25z
m-930 -147 l0 -129 -32 3 -33 3 -3 119 c-2 96 0 123 13 143 16 24 17 24 36 7
17 -15 19 -32 19 -146z m-116 136 c3 -9 6 -69 6 -135 l0 -119 -30 0 -30 0 0
116 c0 63 5 124 10 135 13 23 36 25 44 3z m-6754 -29 c0 -31 -3 -35 -25 -35
-22 0 -25 4 -25 35 0 31 3 35 25 35 22 0 25 -4 25 -35z m310 0 c0 -31 -3 -35
-25 -35 -22 0 -25 4 -25 35 0 31 3 35 25 35 22 0 25 -4 25 -35z m5358 -52 l-3
-58 -55 0 -55 0 -3 58 -3 57 61 0 61 0 -3 -57z m252 -3 l0 -61 -57 3 -58 3 -3
44 c-5 66 0 71 63 71 l55 0 0 -60z m1185 -5 c0 -36 -3 -40 -27 -43 -27 -3 -28
-2 -28 43 0 45 1 46 28 43 24 -3 27 -7 27 -43z m213 3 c-3 -39 -6 -43 -30 -46
-27 -3 -28 -2 -28 42 0 45 1 46 31 46 29 0 30 -1 27 -42z m212 -4 c0 -44 -1
-45 -27 -42 -25 3 -28 7 -31 46 -3 41 -2 42 27 42 30 0 31 -1 31 -46z m-6240
-9 l0 -25 -130 0 -130 0 0 25 0 25 130 0 130 0 0 -25z m6510 -15 l0 -30 -80 0
c-78 0 -80 1 -80 24 0 29 12 33 98 35 l62 1 0 -30z m-6210 -25 l0 -45 -50 0
-50 0 0 45 0 45 50 0 50 0 0 -45z m200 0 l0 -35 -50 0 -50 0 0 35 0 35 50 0
50 0 0 -35z m200 0 l0 -35 -50 0 -50 0 0 35 0 35 50 0 50 0 0 -35z m1830 -35
l0 -50 -45 0 c-37 0 -45 3 -45 19 0 10 -3 33 -6 50 l-6 31 51 0 51 0 0 -50z
m170 0 l0 -50 -45 0 -45 0 0 50 0 50 45 0 45 0 0 -50z m180 0 l0 -50 -50 0
-50 0 0 50 0 50 50 0 50 0 0 -50z m170 0 l0 -50 -44 0 c-49 0 -58 12 -54 69 2
30 4 31 50 31 l48 0 0 -50z m170 0 l0 -50 -45 0 -45 0 0 50 0 50 45 0 45 0 0
-50z m180 0 l0 -50 -50 0 -50 0 0 50 0 50 50 0 50 0 0 -50z m170 0 l0 -50 -50
0 -50 0 0 50 0 50 50 0 50 0 0 -50z m-4860 -5 c0 -31 -3 -35 -25 -35 -22 0
-25 4 -25 35 0 31 3 35 25 35 22 0 25 -4 25 -35z m310 0 c0 -31 -3 -35 -25
-35 -22 0 -25 4 -25 35 0 31 3 35 25 35 22 0 25 -4 25 -35z m980 -45 l0 -30
-130 0 -130 0 0 30 0 30 130 0 130 0 0 -30z m4380 -45 l0 -55 -60 0 -60 0 0
55 0 55 60 0 60 0 0 -55z m250 0 l0 -55 -55 0 -55 0 0 55 0 55 55 0 55 0 0
-55z m250 0 l0 -55 -55 0 -55 0 0 55 0 55 55 0 55 0 0 -55z m1630 25 l0 -30
-75 0 c-58 0 -77 4 -81 15 -14 36 3 45 81 45 l75 0 0 -30z m-690 -25 c0 -45 0
-45 -35 -45 -35 0 -35 0 -35 45 0 45 0 45 35 45 35 0 35 0 35 -45z m210 0 c0
-43 -1 -45 -30 -45 -29 0 -30 2 -30 45 0 43 1 45 30 45 29 0 30 -2 30 -45z
m210 -1 c0 -44 -1 -45 -27 -42 -22 2 -29 9 -31 31 -5 42 4 57 33 57 23 0 25
-3 25 -46z m-5940 -19 l0 -35 -50 0 -50 0 0 35 0 35 50 0 50 0 0 -35z m400 0
l0 -35 -50 0 -50 0 0 35 0 35 50 0 50 0 0 -35z m-1990 -35 c0 -36 -2 -40 -25
-40 -22 0 -25 4 -25 40 0 36 3 40 25 40 23 0 25 -4 25 -40z m310 0 c0 -36 -2
-40 -25 -40 -22 0 -25 4 -25 40 0 36 3 40 25 40 23 0 25 -4 25 -40z m3510 -30
l0 -50 -45 0 -45 0 0 50 0 50 45 0 45 0 0 -50z m170 0 l0 -50 -45 0 -45 0 0
50 0 50 45 0 45 0 0 -50z m180 0 l0 -50 -50 0 -50 0 0 50 0 50 50 0 50 0 0
-50z m170 0 l0 -50 -45 0 -45 0 0 50 0 50 45 0 45 0 0 -50z m170 0 l0 -50 -45
0 -45 0 0 50 0 50 45 0 45 0 0 -50z m180 0 l0 -50 -50 0 -50 0 0 50 0 50 50 0
50 0 0 -50z m170 0 l0 -50 -45 0 c-37 0 -45 3 -45 19 0 10 -3 33 -6 50 l-6 31
51 0 51 0 0 -50z m-3570 0 l0 -30 -130 0 -130 0 0 30 0 30 130 0 130 0 0 -30z
m5570 -9 c5 -11 10 -74 10 -140 0 -98 -3 -121 -14 -121 -8 0 -21 -3 -30 -6
-14 -5 -16 10 -16 128 0 91 4 138 12 146 17 17 26 15 38 -7z m940 -11 l0 -30
-75 0 c-58 0 -77 4 -81 15 -14 36 3 45 81 45 l75 0 0 -30z m-1045 3 c4 -10 10
-71 12 -135 l6 -118 -37 0 -36 0 0 116 c0 63 5 124 10 135 13 24 36 25 45 2z
m-1625 -83 l0 -60 -60 0 -60 0 0 60 0 60 60 0 60 0 0 -60z m-3540 10 l0 -40
-50 0 -50 0 0 40 0 40 50 0 50 0 0 -40z m200 0 l0 -40 -50 0 -50 0 0 40 0 40
50 0 50 0 0 -40z m200 0 l0 -40 -50 0 -50 0 0 40 0 40 50 0 50 0 0 -40z m3680
-15 l0 -55 -60 0 -60 0 0 55 0 55 60 0 60 0 0 -55z m250 0 l0 -55 -55 0 -55 0
0 55 0 55 55 0 55 0 0 -55z m250 0 l0 -55 -55 0 -55 0 0 55 0 55 55 0 55 0 0
-55z m938 8 c3 -42 2 -43 -27 -43 -30 0 -31 1 -31 46 0 44 1 45 28 42 24 -3
27 -7 30 -45z m212 2 c0 -43 -1 -45 -30 -45 -29 0 -30 2 -30 45 0 43 1 45 30
45 29 0 30 -2 30 -45z m210 -1 c0 -44 -1 -45 -27 -42 -22 2 -29 9 -31 31 -5
42 4 57 33 57 23 0 25 -3 25 -46z m-7530 -19 c0 -31 -3 -35 -25 -35 -22 0 -25
4 -25 35 0 31 3 35 25 35 22 0 25 -4 25 -35z m310 0 c0 -31 -3 -35 -25 -35
-22 0 -25 4 -25 35 0 31 3 35 25 35 22 0 25 -4 25 -35z m978 -12 c3 -23 3 -23
-127 -23 l-131 0 0 25 0 26 128 -3 c123 -3 127 -4 130 -25z m6522 -23 l0 -30
-85 0 -85 0 0 30 0 30 85 0 85 0 0 -30z m-3990 -30 l0 -50 -45 0 -45 0 0 50 0
50 45 0 45 0 0 -50z m340 0 l0 -50 -40 0 -40 0 0 50 0 50 40 0 40 0 0 -50z
m180 0 l0 -50 -45 0 -45 0 0 50 0 50 45 0 45 0 0 -50z m170 0 l0 -50 -45 0
-45 0 0 50 0 50 45 0 45 0 0 -50z m350 0 l0 -50 -45 0 -45 0 0 50 0 50 45 0
45 0 0 -50z m-2870 -55 l0 -45 -50 0 -50 0 0 45 0 45 50 0 50 0 0 -45z m-400
-5 l0 -40 -50 0 -50 0 0 40 0 40 50 0 50 0 0 -40z m200 0 l0 -40 -50 0 -50 0
0 40 0 40 50 0 50 0 0 -40z m3340 -25 l0 -65 -60 0 -60 0 0 65 0 65 60 0 60 0
0 -65z m-5130 0 c0 -31 -3 -35 -25 -35 -22 0 -25 4 -25 35 0 31 3 35 25 35 22
0 25 -4 25 -35z m310 0 c0 -31 -3 -35 -25 -35 -22 0 -25 4 -25 35 0 31 3 35
25 35 22 0 25 -4 25 -35z m980 10 l0 -25 -130 0 -130 0 0 25 0 25 130 0 130 0
0 -25z m4880 -35 l0 -60 -55 0 -55 0 0 60 0 60 55 0 55 0 0 -60z m1150 15 c0
-43 -1 -45 -30 -45 -28 0 -30 2 -30 38 0 45 5 52 37 52 21 0 23 -5 23 -45z
m218 -2 c3 -42 2 -43 -26 -43 -26 0 -30 4 -35 37 -8 45 -2 55 31 51 24 -3 27
-8 30 -45z m-1618 -13 l0 -50 -55 0 -55 0 0 50 0 50 55 0 55 0 0 -50z m1190
10 c0 -38 -2 -40 -30 -40 -28 0 -30 2 -30 40 0 38 2 40 30 40 28 0 30 -2 30
-40z m690 0 l0 -30 -75 0 -75 0 0 30 0 30 75 0 75 0 0 -30z m-3980 -80 l0 -50
-45 0 -45 0 0 50 0 50 45 0 45 0 0 -50z m520 0 l0 -50 -45 0 -45 0 0 50 0 50
45 0 45 0 0 -50z m175 -5 c0 -45 -2 -50 -24 -53 -12 -2 -34 -1 -47 2 -21 6
-24 12 -24 57 l0 50 48 -3 47 -3 0 -50z m173 3 l-3 -53 -45 0 -45 0 -3 39 c-5
58 1 66 53 66 l46 0 -3 -52z m172 -3 l0 -55 -45 0 -45 0 0 55 0 55 45 0 45 0
0 -55z m-870 0 l0 -45 -39 0 c-35 0 -39 3 -45 31 -11 56 -9 59 39 59 l45 0 0
-45z m170 0 l0 -45 -40 0 -40 0 0 45 0 45 40 0 40 0 0 -45z m-2570 -20 l0 -35
-50 0 -50 0 0 35 0 35 50 0 50 0 0 -35z m200 0 l0 -35 -50 0 -50 0 0 35 0 35
50 0 50 0 0 -35z m200 0 l0 -35 -50 0 -50 0 0 35 0 35 50 0 50 0 0 -35z m-700
0 l0 -25 -125 0 c-69 0 -125 4 -125 9 0 5 -3 16 -6 25 -5 14 10 16 125 16
l131 0 0 -25z m-1290 -10 c0 -20 -5 -25 -25 -25 -20 0 -25 5 -25 25 0 20 5 25
25 25 20 0 25 -5 25 -25z m310 0 c0 -20 -5 -25 -25 -25 -20 0 -25 5 -25 25 0
20 5 25 25 25 20 0 25 -5 25 -25z m6448 0 c11 -24 10 -25 -24 -25 -19 0 -33 3
-31 8 2 4 7 15 10 25 9 25 32 21 45 -8z m102 6 c15 -28 13 -31 -20 -31 -31 0
-39 17 -18 38 17 17 26 15 38 -7z m940 -11 c0 -18 -7 -20 -75 -20 -68 0 -75 2
-75 20 0 18 7 20 75 20 68 0 75 -2 75 -20z"/>
</g>
</svg>
