<?xml version="1.0" standalone="no"?>
<!DOCTYPE svg PUBLIC "-//W3C//DTD SVG 20010904//EN"
 "http://www.w3.org/TR/2001/REC-SVG-20010904/DTD/svg10.dtd">
<svg version="1.0" xmlns="http://www.w3.org/2000/svg"
 width="40.000000pt" height="40.000000pt" viewBox="0 0 192.000000 192.000000"
 preserveAspectRatio="xMidYMid meet">

<g transform="translate(0.000000,192.000000) scale(0.100000,-0.100000)"
fill="#000000" stroke="none">
<path d="M259 1871 c39 -54 121 -120 177 -140 52 -20 75 -21 482 -21 485 0
486 0 574 -79 73 -65 101 -128 102 -223 1 -42 3 -74 7 -73 3 2 18 30 35 62 26
52 29 68 29 153 0 85 -3 101 -29 153 -36 70 -99 130 -174 165 l-57 27 -583 3
-584 3 21 -30z"/>
<path d="M331 1615 c36 -50 133 -117 195 -134 25 -7 171 -11 403 -11 l364 0
33 -25 c93 -71 54 -241 -71 -309 l-30 -16 40 6 c125 21 209 74 251 159 23 48
26 64 22 127 -4 82 -23 129 -71 178 -69 71 -52 70 -640 70 l-528 0 32 -45z"/>
<path d="M1305 1336 l-20 -31 -255 -6 c-211 -4 -264 -8 -305 -23 -105 -39
-208 -126 -256 -218 -49 -91 -22 -228 57 -298 71 -62 230 -97 360 -79 42 6 87
15 101 20 13 5 27 9 30 9 22 0 -60 -211 -129 -332 -56 -99 -163 -241 -232
-308 -55 -53 -58 -70 -12 -70 117 0 414 398 531 715 41 110 99 325 90 334 -14
14 -100 -47 -136 -95 -70 -95 -145 -136 -246 -136 -112 -1 -203 67 -203 149 0
51 27 99 69 125 33 21 52 23 221 29 104 3 197 10 212 17 76 32 155 142 146
204 l-3 25 -20 -31z"/>
<path d="M660 644 c0 -3 12 -28 27 -57 37 -73 44 -206 15 -327 -11 -47 -19
-87 -17 -88 2 -2 33 35 68 83 68 92 138 217 180 322 l25 62 -107 -6 c-58 -3
-125 -1 -148 5 -24 5 -43 8 -43 6z"/>
</g>
</svg>
