<?xml version="1.0" encoding="UTF-8"?>
<!DOCTYPE svg PUBLIC "-//W3C//DTD SVG 1.1//EN" "http://www.w3.org/Graphics/SVG/1.1/DTD/svg11.dtd">
<!-- Creator: CorelDRAW 2020 (64-Bit Evaluation Version) -->
<svg xmlns="http://www.w3.org/2000/svg" xml:space="preserve" width="0.844402in" height="1.52124in" version="1.1" style="shape-rendering:geometricPrecision; text-rendering:geometricPrecision; image-rendering:optimizeQuality; fill-rule:evenodd; clip-rule:evenodd"
viewBox="0 0 28.92 52.1"
 xmlns:xlink="http://www.w3.org/1999/xlink"
 xmlns:xodm="http://www.corel.com/coreldraw/odm/2003">
 <defs>
  <style type="text/css">
   <![CDATA[
    .fil1 {fill:#616161}
    .fil0 {fill:#FF6600}
    .fil2 {fill:#616161;fill-rule:nonzero}
   ]]>
  </style>
 </defs>
 <g id="Layer_x0020_1">
  <metadata id="CorelCorpID_0Corel-Layer"/>
  <g id="_2741628976304">
   <g>
    <path class="fil0" d="M0.35 0l22.49 0c0,0 4.62,0.42 5.78,4.89 1.16,4.47 -1.39,7.01 -1.39,7.01 0,0 0.65,-6.05 -4.35,-7.7l-18.06 0c0,0 -2.95,-0.17 -4.58,-3.2 0,0 -0.6,-0.87 0.12,-1z"/>
    <path class="fil0" d="M1.7 5.05l20.33 0c0,0 4.35,0.5 4.39,5.28 0.04,4.78 -4.35,5.58 -6.39,5.62 0,0 2.58,-1.54 2.77,-4.04 0.19,-2.5 -2.2,-3.08 -2.2,-3.08l-14.83 0c0,0 -2.02,0.27 -4.41,-3 0,0 -0.64,-0.83 0.33,-0.77z"/>
    <path class="fil1" d="M8.69 25.67c0,0 4.24,0.39 5.6,-0.04 0,0 -1.31,5.87 -5.43,9.49 0,0 2.12,-4.93 -0.17,-9.45z"/>
    <path class="fil1" d="M22.01 10.96c0,0 -0.37,1.08 -1.12,1.46l-9.2 0c0,0 -6.47,0.39 -7.59,6.24 -1.12,5.85 6.89,7.39 11.55,5.55 0,0 -1.58,8.32 -7.78,13.29 0,0 -0.91,0.85 -0.17,1.23 0.73,0.38 2.18,-0.83 2.18,-0.83 0,0 8.53,-6.93 10.76,-20.31 0,0 -0.7,-0.4 -1.4,0.29 -0.69,0.69 -3.05,4.65 -6.06,4.34 -3,-0.31 -4.7,-2.04 -4.2,-3.89 0.5,-1.85 2.39,-2.23 2.39,-2.23l6.16 0c0,0 4.27,-0.58 4.47,-5.13z"/>
   </g>
   <g>
    <path class="fil2" d="M3.81 43.92c0,0.17 0.02,0.29 0.07,0.36 0.08,0.14 0.31,0.21 0.45,0.21 0.02,0 0.03,0.02 0.03,0.05 0,0.03 -0.01,0.05 -0.03,0.05 -0.58,0 -1.17,0 -1.75,0 -0.02,0 -0.03,-0.02 -0.03,-0.05 0,-0.03 0.01,-0.05 0.03,-0.05 0.12,0 0.28,-0.06 0.33,-0.19 0.03,-0.07 0.05,-0.19 0.05,-0.35l0 -3.6c0,-0.16 -0.02,-0.27 -0.05,-0.34 -0.03,-0.07 -0.1,-0.12 -0.19,-0.15 -0.02,-0.01 -0.05,-0.03 -0.17,-0.04 -0.02,-0 -0.03,-0.02 -0.03,-0.05 0,-0.03 0.01,-0.05 0.03,-0.05l3.06 -0.02c0.58,-0 1.04,0.11 1.38,0.33 0.34,0.22 0.51,0.55 0.51,1 0,0.33 -0.1,0.6 -0.29,0.83 -0.19,0.23 -0.44,0.4 -0.73,0.51 -0.3,0.11 -0.6,0.17 -0.91,0.17 -0.16,0 -0.3,-0.02 -0.41,-0.04 -0.02,-0 -0.03,-0.01 -0.03,-0.04 0,-0.02 0,-0.03 0.01,-0.05 0.01,-0.02 0.02,-0.02 0.03,-0.02 0.09,0.02 0.2,0.03 0.31,0.03 0.31,0 0.56,-0.11 0.78,-0.33 0.21,-0.22 0.32,-0.54 0.32,-0.96 0,-0.41 -0.11,-0.73 -0.33,-0.95 -0.22,-0.23 -0.52,-0.34 -0.9,-0.34 -0.14,0 -1.28,0.01 -1.35,0.04 -0.07,0.03 -0.12,0.07 -0.15,0.14 -0.03,0.07 -0.04,0.18 -0.04,0.33l0 3.55zm13.78 -1.75l0 2c0,0 -4.3,1.79 -7.11,-1.21 0,0 -0.86,-1.13 0.52,-2.27 1.38,-1.13 4.85,-1.5 6.56,-0.63 0,0 0.04,0.22 -0.14,0.21 -0.17,-0.01 -1.63,-0.77 -4.24,-0.12 -2.62,0.65 -1.96,2.87 -1.24,3.38 0.64,0.41 1.25,1.15 4.48,0.77l0 -2.14 1.18 0zm5.09 1.75c0,0.17 0.02,0.29 0.07,0.36 0.08,0.14 0.31,0.21 0.45,0.21 0.02,0 0.03,0.02 0.03,0.05 0,0.03 -0.01,0.05 -0.03,0.05 -0.58,0 -1.17,0 -1.75,0 -0.02,0 -0.03,-0.02 -0.03,-0.05 0,-0.03 0.01,-0.05 0.03,-0.05 0.12,0 0.28,-0.06 0.33,-0.19 0.03,-0.07 0.05,-0.19 0.05,-0.35l0 -3.6c0,-0.16 -0.02,-0.27 -0.05,-0.34 -0.03,-0.07 -0.1,-0.12 -0.19,-0.15 -0.02,-0.01 -0.05,-0.03 -0.17,-0.04 -0.02,-0 -0.03,-0.02 -0.03,-0.05 0,-0.03 0.01,-0.05 0.03,-0.05l3.06 -0.02c0.58,-0 1.04,0.11 1.38,0.33 0.34,0.22 0.51,0.55 0.51,1 0,0.33 -0.1,0.6 -0.29,0.83 -0.19,0.23 -0.44,0.4 -0.73,0.51 -0.3,0.11 -0.6,0.17 -0.91,0.17 -0.16,0 -0.3,-0.02 -0.41,-0.04 -0.02,-0 -0.03,-0.01 -0.03,-0.04 0,-0.02 0,-0.03 0.01,-0.05 0.01,-0.02 0.02,-0.02 0.03,-0.02 0.09,0.02 0.2,0.03 0.31,0.03 0.31,0 0.56,-0.11 0.78,-0.33 0.21,-0.22 0.32,-0.54 0.32,-0.96 0,-0.41 -0.11,-0.73 -0.33,-0.95 -0.22,-0.23 -0.52,-0.34 -0.9,-0.34 -0.14,0 -1.28,0.01 -1.35,0.04 -0.07,0.03 -0.13,0.07 -0.15,0.14 -0.03,0.07 -0.04,0.18 -0.04,0.33l0 3.55z"/>
    <path class="fil2" d="M21 48.01c0,0.18 0.06,0.34 0.19,0.48 0.13,0.14 0.28,0.26 0.47,0.37 0.19,0.1 0.44,0.23 0.76,0.37 0.35,0.16 0.62,0.29 0.82,0.41 0.2,0.11 0.37,0.25 0.51,0.42 0.14,0.17 0.21,0.36 0.21,0.58 0,0.25 -0.09,0.48 -0.27,0.67 -0.18,0.2 -0.43,0.35 -0.76,0.46 -0.33,0.11 -0.57,0.19 -1.12,0.17 -0.23,-0.01 -1.93,-0.16 -2,-0.19 -0.06,-0.03 -0.1,-0.08 -0.1,-0.14l-0.01 -0.3c0.73,0.31 0.94,0.41 2.37,0.47 0.22,0.01 0.54,-0.06 0.73,-0.17 0.2,-0.12 0.29,-0.31 0.29,-0.58 0,-0.22 -0.07,-0.41 -0.2,-0.57 -0.13,-0.16 -0.29,-0.3 -0.49,-0.41 -0.19,-0.11 -0.46,-0.24 -0.79,-0.4 -0.33,-0.15 -0.58,-0.28 -0.76,-0.39 -0.18,-0.11 -0.34,-0.24 -0.47,-0.39 -0.13,-0.16 -0.19,-0.34 -0.19,-0.54 0,-0.26 0.1,-0.47 0.29,-0.65 0.2,-0.18 0.45,-0.31 0.77,-0.4 0.32,-0.09 0.65,-0.13 0.99,-0.13l1.36 0 0 0.23 -1.6 -0.08c-0.31,0 -0.55,0.06 -0.73,0.19 -0.18,0.13 -0.27,0.3 -0.27,0.53zm-8.51 3.98l0.51 0c0.1,-0.19 0.17,-0.27 0.3,-0.45l0.62 -0.86c0.12,-0.16 0.22,-0.29 0.33,-0.46l2.88 0c0.06,0.22 1.01,1.49 1.07,1.72l1.26 0c-0.42,-0.62 -1.76,-2.23 -2.34,-3.01 -0.22,-0.3 -1.33,-1.64 -1.38,-1.83 -0.15,0.04 -0.18,0.11 -0.29,0.22 -0.11,0.11 -0.19,0.17 -0.27,0.29 0.08,0.15 0.1,0.16 0.19,0.28l-2.88 4.09zm3.16 -3.69l1.21 1.58 -2.4 -0.02 1.19 -1.56zm-7.09 -1.28l0.99 0 0 4.55 2.67 0 0 0.5 -3.69 0 0.03 -5.05zm-1.18 2.55l0 2c0,0 -4.3,1.79 -7.11,-1.21 0,0 -0.86,-1.13 0.52,-2.27 1.38,-1.13 4.85,-1.5 6.56,-0.63 0,0 0.04,0.22 -0.14,0.21 -0.17,-0.01 -1.63,-0.77 -4.24,-0.12 -2.62,0.65 -1.96,2.87 -1.24,3.38 0.64,0.41 1.25,1.15 4.48,0.77l0 -2.14 1.18 0zm18.6 -1.56c0,0.18 0.06,0.34 0.19,0.48 0.13,0.14 0.28,0.26 0.47,0.37 0.19,0.1 0.44,0.23 0.76,0.37 0.35,0.16 0.62,0.29 0.82,0.41 0.2,0.11 0.37,0.25 0.51,0.42 0.14,0.17 0.21,0.36 0.21,0.58 0,0.25 -0.09,0.48 -0.27,0.67 -0.18,0.2 -0.43,0.35 -0.76,0.46 -0.33,0.11 -0.57,0.19 -1.12,0.17 -0.23,-0.01 -1.93,-0.16 -2,-0.19 -0.06,-0.03 -0.1,-0.08 -0.1,-0.14l-0.01 -0.3c0.73,0.31 0.94,0.41 2.37,0.47 0.22,0.01 0.54,-0.06 0.73,-0.17 0.2,-0.12 0.29,-0.31 0.29,-0.58 0,-0.22 -0.07,-0.41 -0.2,-0.57 -0.13,-0.16 -0.29,-0.3 -0.49,-0.41 -0.19,-0.11 -0.46,-0.24 -0.79,-0.4 -0.33,-0.15 -0.58,-0.28 -0.76,-0.39 -0.18,-0.11 -0.34,-0.24 -0.47,-0.39 -0.13,-0.16 -0.19,-0.34 -0.19,-0.54 0,-0.26 0.1,-0.47 0.29,-0.65 0.2,-0.18 0.45,-0.31 0.77,-0.4 0.32,-0.09 0.65,-0.13 0.99,-0.13l1.36 0 0 0.23 -1.6 -0.08c-0.31,0 -0.55,0.06 -0.73,0.19 -0.18,0.13 -0.27,0.3 -0.27,0.53z"/>
   </g>
  </g>
 </g>
</svg>
