<svg width="1512" height="947" viewBox="0 0 1512 947" fill="none" xmlns="http://www.w3.org/2000/svg">
<g clip-path="url(#clip0_90_2)">
<rect width="1512" height="947" fill="#11282E"/>
<line x1="785.452" y1="191.602" x2="1808" y2="191.602" stroke="url(#paint0_linear_90_2)" stroke-opacity="0.15" stroke-width="3"/>
<line y1="-1.5" x2="1026.23" y2="-1.5" transform="matrix(-1 0 0.00295642 -0.999996 785.357 189.351)" stroke="url(#paint1_linear_90_2)" stroke-opacity="0.15" stroke-width="3"/>
<line x1="785.452" y1="254.129" x2="1808" y2="254.129" stroke="url(#paint2_linear_90_2)" stroke-opacity="0.15" stroke-width="3"/>
<line y1="-1.5" x2="1026.23" y2="-1.5" transform="matrix(-1 0 0.00295642 -0.999996 785.357 251.878)" stroke="url(#paint3_linear_90_2)" stroke-opacity="0.15" stroke-width="3"/>
<line x1="785.452" y1="320.408" x2="1808" y2="320.408" stroke="url(#paint4_linear_90_2)" stroke-opacity="0.15" stroke-width="3"/>
<line y1="-1.5" x2="1026.23" y2="-1.5" transform="matrix(-1 0 0.00295642 -0.999996 785.357 318.156)" stroke="url(#paint5_linear_90_2)" stroke-opacity="0.15" stroke-width="3"/>
<line x1="785.452" y1="389.187" x2="1808" y2="389.187" stroke="url(#paint6_linear_90_2)" stroke-opacity="0.15" stroke-width="3"/>
<line y1="-1.5" x2="1026.23" y2="-1.5" transform="matrix(-1 0 0.00295642 -0.999996 785.357 386.935)" stroke="url(#paint7_linear_90_2)" stroke-opacity="0.15" stroke-width="3"/>
<line x1="785.452" y1="465.47" x2="1808" y2="465.47" stroke="url(#paint8_linear_90_2)" stroke-opacity="0.15" stroke-width="3"/>
<line y1="-1.5" x2="1026.23" y2="-1.5" transform="matrix(-1 0 0.00295642 -0.999996 785.357 463.218)" stroke="url(#paint9_linear_90_2)" stroke-opacity="0.15" stroke-width="3"/>
<line x1="785.452" y1="538.001" x2="1808" y2="538.001" stroke="url(#paint10_linear_90_2)" stroke-opacity="0.15" stroke-width="3"/>
<line y1="-1.5" x2="1026.23" y2="-1.5" transform="matrix(-1 0 0.00295642 -0.999996 785.357 535.749)" stroke="url(#paint11_linear_90_2)" stroke-opacity="0.15" stroke-width="3"/>
<line x1="785.452" y1="609.281" x2="1808" y2="609.281" stroke="url(#paint12_linear_90_2)" stroke-opacity="0.15" stroke-width="3"/>
<line y1="-1.5" x2="1026.23" y2="-1.5" transform="matrix(-1 0 0.00295642 -0.999996 785.357 607.03)" stroke="url(#paint13_linear_90_2)" stroke-opacity="0.15" stroke-width="3"/>
<line x1="785.452" y1="684.313" x2="1808" y2="684.313" stroke="url(#paint14_linear_90_2)" stroke-opacity="0.15" stroke-width="3"/>
<line y1="-1.5" x2="1026.23" y2="-1.5" transform="matrix(-1 0 0.00295642 -0.999996 785.357 682.061)" stroke="url(#paint15_linear_90_2)" stroke-opacity="0.15" stroke-width="3"/>
<line x1="785.452" y1="753.093" x2="1808" y2="753.093" stroke="url(#paint16_linear_90_2)" stroke-opacity="0.15" stroke-width="3"/>
<line y1="-1.5" x2="1026.23" y2="-1.5" transform="matrix(-1 0 0.00295642 -0.999996 785.357 750.841)" stroke="url(#paint17_linear_90_2)" stroke-opacity="0.15" stroke-width="3"/>
<line x1="785.452" y1="824.373" x2="1808" y2="824.373" stroke="url(#paint18_linear_90_2)" stroke-opacity="0.15" stroke-width="3"/>
<line y1="-1.5" x2="1026.23" y2="-1.5" transform="matrix(-1 0 0.00295642 -0.999996 785.357 822.121)" stroke="url(#paint19_linear_90_2)" stroke-opacity="0.15" stroke-width="3"/>
<line x1="470.583" y1="493.525" x2="470.583" y2="-182.883" stroke="url(#paint20_linear_90_2)" stroke-opacity="0.15" stroke-width="3"/>
<line y1="-1.5" x2="678.843" y2="-1.5" transform="matrix(0 1 -0.999998 -0.00213713 468.596 493.587)" stroke="url(#paint21_linear_90_2)" stroke-opacity="0.15" stroke-width="3"/>
<line x1="528.698" y1="493.525" x2="528.698" y2="-182.883" stroke="url(#paint22_linear_90_2)" stroke-opacity="0.15" stroke-width="3"/>
<line y1="-1.5" x2="678.843" y2="-1.5" transform="matrix(0 1 -0.999998 -0.00213713 526.711 493.587)" stroke="url(#paint23_linear_90_2)" stroke-opacity="0.15" stroke-width="3"/>
<line x1="590.3" y1="493.525" x2="590.3" y2="-182.883" stroke="url(#paint24_linear_90_2)" stroke-opacity="0.15" stroke-width="3"/>
<line y1="-1.5" x2="678.843" y2="-1.5" transform="matrix(0 1 -0.999998 -0.00213713 588.313 493.587)" stroke="url(#paint25_linear_90_2)" stroke-opacity="0.15" stroke-width="3"/>
<line x1="654.227" y1="493.525" x2="654.227" y2="-182.883" stroke="url(#paint26_linear_90_2)" stroke-opacity="0.15" stroke-width="3"/>
<line y1="-1.5" x2="678.843" y2="-1.5" transform="matrix(0 1 -0.999998 -0.00213713 652.24 493.587)" stroke="url(#paint27_linear_90_2)" stroke-opacity="0.15" stroke-width="3"/>
<line x1="725.128" y1="493.525" x2="725.128" y2="-182.883" stroke="url(#paint28_linear_90_2)" stroke-opacity="0.15" stroke-width="3"/>
<line y1="-1.5" x2="678.843" y2="-1.5" transform="matrix(0 1 -0.999998 -0.00213713 723.141 493.587)" stroke="url(#paint29_linear_90_2)" stroke-opacity="0.15" stroke-width="3"/>
<line x1="792.541" y1="493.525" x2="792.541" y2="-182.883" stroke="url(#paint30_linear_90_2)" stroke-opacity="0.15" stroke-width="3"/>
<line y1="-1.5" x2="678.843" y2="-1.5" transform="matrix(0 1 -0.999998 -0.00213713 790.554 493.587)" stroke="url(#paint31_linear_90_2)" stroke-opacity="0.15" stroke-width="3"/>
<line x1="858.792" y1="493.525" x2="858.792" y2="-182.883" stroke="url(#paint32_linear_90_2)" stroke-opacity="0.15" stroke-width="3"/>
<line y1="-1.5" x2="678.843" y2="-1.5" transform="matrix(0 1 -0.999998 -0.00213713 856.805 493.587)" stroke="url(#paint33_linear_90_2)" stroke-opacity="0.15" stroke-width="3"/>
<line x1="928.53" y1="493.525" x2="928.53" y2="-182.883" stroke="url(#paint34_linear_90_2)" stroke-opacity="0.15" stroke-width="3"/>
<line y1="-1.5" x2="678.843" y2="-1.5" transform="matrix(0 1 -0.999998 -0.00213713 926.543 493.587)" stroke="url(#paint35_linear_90_2)" stroke-opacity="0.15" stroke-width="3"/>
<line x1="992.457" y1="493.525" x2="992.457" y2="-182.883" stroke="url(#paint36_linear_90_2)" stroke-opacity="0.15" stroke-width="3"/>
<line y1="-1.5" x2="678.843" y2="-1.5" transform="matrix(0 1 -0.999998 -0.00213713 990.47 493.587)" stroke="url(#paint37_linear_90_2)" stroke-opacity="0.15" stroke-width="3"/>
<line x1="1058.71" y1="493.525" x2="1058.71" y2="-182.883" stroke="url(#paint38_linear_90_2)" stroke-opacity="0.15" stroke-width="3"/>
<line y1="-1.5" x2="678.843" y2="-1.5" transform="matrix(0 1 -0.999998 -0.00213713 1056.72 493.587)" stroke="url(#paint39_linear_90_2)" stroke-opacity="0.15" stroke-width="3"/>
<line x1="1127.28" y1="493.525" x2="1127.28" y2="-182.883" stroke="url(#paint40_linear_90_2)" stroke-opacity="0.15" stroke-width="3"/>
<line y1="-1.5" x2="678.843" y2="-1.5" transform="matrix(0 1 -0.999998 -0.00213713 1125.3 493.587)" stroke="url(#paint41_linear_90_2)" stroke-opacity="0.15" stroke-width="3"/>
<line x1="1193.54" y1="493.525" x2="1193.54" y2="-182.883" stroke="url(#paint42_linear_90_2)" stroke-opacity="0.15" stroke-width="3"/>
<line y1="-1.5" x2="678.843" y2="-1.5" transform="matrix(0 1 -0.999998 -0.00213713 1191.55 493.587)" stroke="url(#paint43_linear_90_2)" stroke-opacity="0.15" stroke-width="3"/>
<line x1="198.333" y1="514.891" x2="198.333" y2="-76.833" stroke="url(#paint44_linear_90_2)" stroke-opacity="0.15" stroke-width="3"/>
<line y1="-1.5" x2="593.854" y2="-1.5" transform="matrix(0 1 -0.999998 -0.00186957 196.346 514.945)" stroke="url(#paint45_linear_90_2)" stroke-opacity="0.15" stroke-width="3"/>
<line x1="264.584" y1="514.891" x2="264.584" y2="-76.833" stroke="url(#paint46_linear_90_2)" stroke-opacity="0.15" stroke-width="3"/>
<line y1="-1.5" x2="593.854" y2="-1.5" transform="matrix(0 1 -0.999998 -0.00186957 262.597 514.945)" stroke="url(#paint47_linear_90_2)" stroke-opacity="0.15" stroke-width="3"/>
<line x1="333.16" y1="514.891" x2="333.16" y2="-76.833" stroke="url(#paint48_linear_90_2)" stroke-opacity="0.15" stroke-width="3"/>
<line y1="-1.5" x2="593.854" y2="-1.5" transform="matrix(0 1 -0.999998 -0.00186957 331.173 514.945)" stroke="url(#paint49_linear_90_2)" stroke-opacity="0.15" stroke-width="3"/>
<line x1="399.411" y1="514.891" x2="399.411" y2="-76.833" stroke="url(#paint50_linear_90_2)" stroke-opacity="0.15" stroke-width="3"/>
<line y1="-1.5" x2="593.854" y2="-1.5" transform="matrix(0 1 -0.999998 -0.00186957 397.425 514.945)" stroke="url(#paint51_linear_90_2)" stroke-opacity="0.15" stroke-width="3"/>
<line x1="1264.89" y1="507.419" x2="1264.89" y2="-110.769" stroke="url(#paint52_linear_90_2)" stroke-opacity="0.15" stroke-width="3"/>
<line y1="-1.5" x2="620.413" y2="-1.5" transform="matrix(0 1 -0.999998 -0.00195318 1262.91 507.476)" stroke="url(#paint53_linear_90_2)" stroke-opacity="0.15" stroke-width="3"/>
<line x1="1328.82" y1="507.419" x2="1328.82" y2="-110.769" stroke="url(#paint54_linear_90_2)" stroke-opacity="0.15" stroke-width="3"/>
<line y1="-1.5" x2="620.413" y2="-1.5" transform="matrix(0 1 -0.999998 -0.00195318 1326.83 507.476)" stroke="url(#paint55_linear_90_2)" stroke-opacity="0.15" stroke-width="3"/>
<rect x="487" y="435" width="538" height="64" rx="10" fill="#11282E"/>
</g>
<defs>
<linearGradient id="paint0_linear_90_2" x1="785.452" y1="193.602" x2="1808" y2="191.577" gradientUnits="userSpaceOnUse">
<stop offset="0.338417" stop-color="#FF6600"/>
<stop offset="0.720325" stop-color="#11282E"/>
</linearGradient>
<linearGradient id="paint1_linear_90_2" x1="0" y1="0.5" x2="1026.23" y2="-1.54045" gradientUnits="userSpaceOnUse">
<stop offset="0.338417" stop-color="#FF6600"/>
<stop offset="0.720325" stop-color="#11282E"/>
</linearGradient>
<linearGradient id="paint2_linear_90_2" x1="785.452" y1="256.129" x2="1808" y2="254.103" gradientUnits="userSpaceOnUse">
<stop offset="0.338417" stop-color="#FF6600"/>
<stop offset="0.720325" stop-color="#11282E"/>
</linearGradient>
<linearGradient id="paint3_linear_90_2" x1="0" y1="0.5" x2="1026.23" y2="-1.54045" gradientUnits="userSpaceOnUse">
<stop offset="0.338417" stop-color="#FF6600"/>
<stop offset="0.720325" stop-color="#11282E"/>
</linearGradient>
<linearGradient id="paint4_linear_90_2" x1="785.452" y1="322.408" x2="1808" y2="320.382" gradientUnits="userSpaceOnUse">
<stop offset="0.338417" stop-color="#FF6600"/>
<stop offset="0.720325" stop-color="#11282E"/>
</linearGradient>
<linearGradient id="paint5_linear_90_2" x1="0" y1="0.5" x2="1026.23" y2="-1.54045" gradientUnits="userSpaceOnUse">
<stop offset="0.338417" stop-color="#FF6600"/>
<stop offset="0.720325" stop-color="#11282E"/>
</linearGradient>
<linearGradient id="paint6_linear_90_2" x1="785.452" y1="391.187" x2="1808" y2="389.161" gradientUnits="userSpaceOnUse">
<stop offset="0.338417" stop-color="#FF6600"/>
<stop offset="0.720325" stop-color="#11282E"/>
</linearGradient>
<linearGradient id="paint7_linear_90_2" x1="0" y1="0.5" x2="1026.23" y2="-1.54045" gradientUnits="userSpaceOnUse">
<stop offset="0.338417" stop-color="#FF6600"/>
<stop offset="0.720325" stop-color="#11282E"/>
</linearGradient>
<linearGradient id="paint8_linear_90_2" x1="785.452" y1="467.47" x2="1808" y2="465.444" gradientUnits="userSpaceOnUse">
<stop offset="0.338417" stop-color="#FF6600"/>
<stop offset="0.720325" stop-color="#11282E"/>
</linearGradient>
<linearGradient id="paint9_linear_90_2" x1="0" y1="0.5" x2="1026.23" y2="-1.54045" gradientUnits="userSpaceOnUse">
<stop offset="0.338417" stop-color="#FF6600"/>
<stop offset="0.720325" stop-color="#11282E"/>
</linearGradient>
<linearGradient id="paint10_linear_90_2" x1="785.452" y1="540.001" x2="1808" y2="537.975" gradientUnits="userSpaceOnUse">
<stop offset="0.338417" stop-color="#FF6600"/>
<stop offset="0.720325" stop-color="#11282E"/>
</linearGradient>
<linearGradient id="paint11_linear_90_2" x1="0" y1="0.5" x2="1026.23" y2="-1.54045" gradientUnits="userSpaceOnUse">
<stop offset="0.338417" stop-color="#FF6600"/>
<stop offset="0.720325" stop-color="#11282E"/>
</linearGradient>
<linearGradient id="paint12_linear_90_2" x1="785.452" y1="611.281" x2="1808" y2="609.255" gradientUnits="userSpaceOnUse">
<stop offset="0.338417" stop-color="#FF6600"/>
<stop offset="0.720325" stop-color="#11282E"/>
</linearGradient>
<linearGradient id="paint13_linear_90_2" x1="0" y1="0.5" x2="1026.23" y2="-1.54045" gradientUnits="userSpaceOnUse">
<stop offset="0.338417" stop-color="#FF6600"/>
<stop offset="0.720325" stop-color="#11282E"/>
</linearGradient>
<linearGradient id="paint14_linear_90_2" x1="785.452" y1="686.313" x2="1808" y2="684.287" gradientUnits="userSpaceOnUse">
<stop offset="0.338417" stop-color="#FF6600"/>
<stop offset="0.720325" stop-color="#11282E"/>
</linearGradient>
<linearGradient id="paint15_linear_90_2" x1="0" y1="0.5" x2="1026.23" y2="-1.54045" gradientUnits="userSpaceOnUse">
<stop offset="0.338417" stop-color="#FF6600"/>
<stop offset="0.720325" stop-color="#11282E"/>
</linearGradient>
<linearGradient id="paint16_linear_90_2" x1="785.452" y1="755.093" x2="1808" y2="753.067" gradientUnits="userSpaceOnUse">
<stop offset="0.338417" stop-color="#FF6600"/>
<stop offset="0.720325" stop-color="#11282E"/>
</linearGradient>
<linearGradient id="paint17_linear_90_2" x1="0" y1="0.5" x2="1026.23" y2="-1.54045" gradientUnits="userSpaceOnUse">
<stop offset="0.338417" stop-color="#FF6600"/>
<stop offset="0.720325" stop-color="#11282E"/>
</linearGradient>
<linearGradient id="paint18_linear_90_2" x1="785.452" y1="826.373" x2="1808" y2="824.347" gradientUnits="userSpaceOnUse">
<stop offset="0.338417" stop-color="#FF6600"/>
<stop offset="0.720325" stop-color="#11282E"/>
</linearGradient>
<linearGradient id="paint19_linear_90_2" x1="0" y1="0.5" x2="1026.23" y2="-1.54045" gradientUnits="userSpaceOnUse">
<stop offset="0.338417" stop-color="#FF6600"/>
<stop offset="0.720325" stop-color="#11282E"/>
</linearGradient>
<linearGradient id="paint20_linear_90_2" x1="472.583" y1="493.525" x2="471.697" y2="-182.882" gradientUnits="userSpaceOnUse">
<stop offset="0.338417" stop-color="#FF6600"/>
<stop offset="0.720325" stop-color="#11282E"/>
</linearGradient>
<linearGradient id="paint21_linear_90_2" x1="0" y1="0.5" x2="678.842" y2="-0.39284" gradientUnits="userSpaceOnUse">
<stop offset="0.338417" stop-color="#FF6600"/>
<stop offset="0.720325" stop-color="#11282E"/>
</linearGradient>
<linearGradient id="paint22_linear_90_2" x1="530.698" y1="493.525" x2="529.812" y2="-182.882" gradientUnits="userSpaceOnUse">
<stop offset="0.338417" stop-color="#FF6600"/>
<stop offset="0.720325" stop-color="#11282E"/>
</linearGradient>
<linearGradient id="paint23_linear_90_2" x1="0" y1="0.5" x2="678.842" y2="-0.39284" gradientUnits="userSpaceOnUse">
<stop offset="0.338417" stop-color="#FF6600"/>
<stop offset="0.720325" stop-color="#11282E"/>
</linearGradient>
<linearGradient id="paint24_linear_90_2" x1="592.3" y1="493.525" x2="591.414" y2="-182.882" gradientUnits="userSpaceOnUse">
<stop offset="0.338417" stop-color="#FF6600"/>
<stop offset="0.720325" stop-color="#11282E"/>
</linearGradient>
<linearGradient id="paint25_linear_90_2" x1="0" y1="0.5" x2="678.842" y2="-0.39284" gradientUnits="userSpaceOnUse">
<stop offset="0.338417" stop-color="#FF6600"/>
<stop offset="0.720325" stop-color="#11282E"/>
</linearGradient>
<linearGradient id="paint26_linear_90_2" x1="656.227" y1="493.525" x2="655.341" y2="-182.882" gradientUnits="userSpaceOnUse">
<stop offset="0.338417" stop-color="#FF6600"/>
<stop offset="0.720325" stop-color="#11282E"/>
</linearGradient>
<linearGradient id="paint27_linear_90_2" x1="0" y1="0.5" x2="678.842" y2="-0.39284" gradientUnits="userSpaceOnUse">
<stop offset="0.338417" stop-color="#FF6600"/>
<stop offset="0.720325" stop-color="#11282E"/>
</linearGradient>
<linearGradient id="paint28_linear_90_2" x1="727.128" y1="493.525" x2="726.241" y2="-182.882" gradientUnits="userSpaceOnUse">
<stop offset="0.338417" stop-color="#FF6600"/>
<stop offset="0.720325" stop-color="#11282E"/>
</linearGradient>
<linearGradient id="paint29_linear_90_2" x1="0" y1="0.5" x2="678.842" y2="-0.39284" gradientUnits="userSpaceOnUse">
<stop offset="0.338417" stop-color="#FF6600"/>
<stop offset="0.720325" stop-color="#11282E"/>
</linearGradient>
<linearGradient id="paint30_linear_90_2" x1="794.541" y1="493.525" x2="793.655" y2="-182.882" gradientUnits="userSpaceOnUse">
<stop offset="0.338417" stop-color="#FF6600"/>
<stop offset="0.720325" stop-color="#11282E"/>
</linearGradient>
<linearGradient id="paint31_linear_90_2" x1="0" y1="0.5" x2="678.842" y2="-0.39284" gradientUnits="userSpaceOnUse">
<stop offset="0.338417" stop-color="#FF6600"/>
<stop offset="0.720325" stop-color="#11282E"/>
</linearGradient>
<linearGradient id="paint32_linear_90_2" x1="860.792" y1="493.525" x2="859.906" y2="-182.882" gradientUnits="userSpaceOnUse">
<stop offset="0.338417" stop-color="#FF6600"/>
<stop offset="0.720325" stop-color="#11282E"/>
</linearGradient>
<linearGradient id="paint33_linear_90_2" x1="0" y1="0.5" x2="678.842" y2="-0.39284" gradientUnits="userSpaceOnUse">
<stop offset="0.338417" stop-color="#FF6600"/>
<stop offset="0.720325" stop-color="#11282E"/>
</linearGradient>
<linearGradient id="paint34_linear_90_2" x1="930.53" y1="493.525" x2="929.644" y2="-182.882" gradientUnits="userSpaceOnUse">
<stop offset="0.338417" stop-color="#FF6600"/>
<stop offset="0.720325" stop-color="#11282E"/>
</linearGradient>
<linearGradient id="paint35_linear_90_2" x1="0" y1="0.5" x2="678.842" y2="-0.39284" gradientUnits="userSpaceOnUse">
<stop offset="0.338417" stop-color="#FF6600"/>
<stop offset="0.720325" stop-color="#11282E"/>
</linearGradient>
<linearGradient id="paint36_linear_90_2" x1="994.457" y1="493.525" x2="993.57" y2="-182.882" gradientUnits="userSpaceOnUse">
<stop offset="0.338417" stop-color="#FF6600"/>
<stop offset="0.720325" stop-color="#11282E"/>
</linearGradient>
<linearGradient id="paint37_linear_90_2" x1="0" y1="0.5" x2="678.842" y2="-0.39284" gradientUnits="userSpaceOnUse">
<stop offset="0.338417" stop-color="#FF6600"/>
<stop offset="0.720325" stop-color="#11282E"/>
</linearGradient>
<linearGradient id="paint38_linear_90_2" x1="1060.71" y1="493.525" x2="1059.82" y2="-182.882" gradientUnits="userSpaceOnUse">
<stop offset="0.338417" stop-color="#FF6600"/>
<stop offset="0.720325" stop-color="#11282E"/>
</linearGradient>
<linearGradient id="paint39_linear_90_2" x1="0" y1="0.5" x2="678.842" y2="-0.39284" gradientUnits="userSpaceOnUse">
<stop offset="0.338417" stop-color="#FF6600"/>
<stop offset="0.720325" stop-color="#11282E"/>
</linearGradient>
<linearGradient id="paint40_linear_90_2" x1="1129.28" y1="493.525" x2="1128.4" y2="-182.882" gradientUnits="userSpaceOnUse">
<stop offset="0.338417" stop-color="#FF6600"/>
<stop offset="0.720325" stop-color="#11282E"/>
</linearGradient>
<linearGradient id="paint41_linear_90_2" x1="0" y1="0.5" x2="678.842" y2="-0.39284" gradientUnits="userSpaceOnUse">
<stop offset="0.338417" stop-color="#FF6600"/>
<stop offset="0.720325" stop-color="#11282E"/>
</linearGradient>
<linearGradient id="paint42_linear_90_2" x1="1195.54" y1="493.525" x2="1194.65" y2="-182.882" gradientUnits="userSpaceOnUse">
<stop offset="0.338417" stop-color="#FF6600"/>
<stop offset="0.720325" stop-color="#11282E"/>
</linearGradient>
<linearGradient id="paint43_linear_90_2" x1="0" y1="0.5" x2="678.842" y2="-0.39284" gradientUnits="userSpaceOnUse">
<stop offset="0.338417" stop-color="#FF6600"/>
<stop offset="0.720325" stop-color="#11282E"/>
</linearGradient>
<linearGradient id="paint44_linear_90_2" x1="200.333" y1="514.891" x2="199.655" y2="-76.8328" gradientUnits="userSpaceOnUse">
<stop offset="0.338417" stop-color="#FF6600"/>
<stop offset="0.720325" stop-color="#11282E"/>
</linearGradient>
<linearGradient id="paint45_linear_90_2" x1="0" y1="0.5" x2="593.854" y2="-0.183275" gradientUnits="userSpaceOnUse">
<stop offset="0.338417" stop-color="#FF6600"/>
<stop offset="0.720325" stop-color="#11282E"/>
</linearGradient>
<linearGradient id="paint46_linear_90_2" x1="266.584" y1="514.891" x2="265.906" y2="-76.8328" gradientUnits="userSpaceOnUse">
<stop offset="0.338417" stop-color="#FF6600"/>
<stop offset="0.720325" stop-color="#11282E"/>
</linearGradient>
<linearGradient id="paint47_linear_90_2" x1="0" y1="0.5" x2="593.854" y2="-0.183275" gradientUnits="userSpaceOnUse">
<stop offset="0.338417" stop-color="#FF6600"/>
<stop offset="0.720325" stop-color="#11282E"/>
</linearGradient>
<linearGradient id="paint48_linear_90_2" x1="335.16" y1="514.891" x2="334.482" y2="-76.8328" gradientUnits="userSpaceOnUse">
<stop offset="0.338417" stop-color="#FF6600"/>
<stop offset="0.720325" stop-color="#11282E"/>
</linearGradient>
<linearGradient id="paint49_linear_90_2" x1="0" y1="0.5" x2="593.854" y2="-0.183275" gradientUnits="userSpaceOnUse">
<stop offset="0.338417" stop-color="#FF6600"/>
<stop offset="0.720325" stop-color="#11282E"/>
</linearGradient>
<linearGradient id="paint50_linear_90_2" x1="401.411" y1="514.891" x2="400.733" y2="-76.8328" gradientUnits="userSpaceOnUse">
<stop offset="0.338417" stop-color="#FF6600"/>
<stop offset="0.720325" stop-color="#11282E"/>
</linearGradient>
<linearGradient id="paint51_linear_90_2" x1="0" y1="0.5" x2="593.854" y2="-0.183275" gradientUnits="userSpaceOnUse">
<stop offset="0.338417" stop-color="#FF6600"/>
<stop offset="0.720325" stop-color="#11282E"/>
</linearGradient>
<linearGradient id="paint52_linear_90_2" x1="1266.89" y1="507.419" x2="1266.15" y2="-110.769" gradientUnits="userSpaceOnUse">
<stop offset="0.338417" stop-color="#FF6600"/>
<stop offset="0.720325" stop-color="#11282E"/>
</linearGradient>
<linearGradient id="paint53_linear_90_2" x1="0" y1="0.5" x2="620.413" y2="-0.245758" gradientUnits="userSpaceOnUse">
<stop offset="0.338417" stop-color="#FF6600"/>
<stop offset="0.720325" stop-color="#11282E"/>
</linearGradient>
<linearGradient id="paint54_linear_90_2" x1="1330.82" y1="507.419" x2="1330.08" y2="-110.769" gradientUnits="userSpaceOnUse">
<stop offset="0.338417" stop-color="#FF6600"/>
<stop offset="0.720325" stop-color="#11282E"/>
</linearGradient>
<linearGradient id="paint55_linear_90_2" x1="0" y1="0.5" x2="620.413" y2="-0.245758" gradientUnits="userSpaceOnUse">
<stop offset="0.338417" stop-color="#FF6600"/>
<stop offset="0.720325" stop-color="#11282E"/>
</linearGradient>
<clipPath id="clip0_90_2">
<rect width="1512" height="947" fill="white"/>
</clipPath>
</defs>
</svg>
